<svg width="267" height="110" viewBox="0 0 267 110" fill="none" xmlns="http://www.w3.org/2000/svg">
<path d="M33.8595 105.075C32.7526 102.986 31.5836 101.058 30.6509 99.006C30.2156 98.0857 29.7803 97.5385 28.773 97.2276C13.016 92.2655 6.27552 73.1134 15.4287 59.3961C23.0274 47.9919 38.0754 44.6341 49.8278 51.785C50.7854 52.3695 51.4197 52.3944 52.2653 51.6979C55.561 49.0241 58.9064 46.4 62.3513 43.6391C62.7244 43.3158 62.9358 43.1044 63.1721 42.9054C63.4457 42.6194 63.6944 42.3333 64.0426 41.9105C63.7566 41.6244 63.3586 41.3757 62.9358 41.3757C42.3908 41.3633 21.8459 41.3633 1.30096 41.3633C0.915427 41.3633 0.542334 41.413 0.00756836 41.4503V104.839C0.00756836 108.507 1.43776 109.95 5.11893 109.938C9.75771 109.925 14.3965 109.838 19.0353 109.851C24.7187 109.863 30.3897 109.963 36.0607 110C36.5457 110 37.0308 109.826 37.6899 109.701C37.0059 108.905 36.496 108.321 35.9737 107.736C35.2896 106.891 34.5808 106.033 33.8595 105.1V105.075Z" fill="url(#paint0_linear_411_1277)"/>
<path d="M68.0636 37.6445C68.1383 37.5077 68.1383 37.4331 68.2502 37.3834C68.7103 36.774 69.1332 36.2019 69.6431 35.5428C69.7799 35.3314 69.8545 35.1946 69.9913 34.9832C70.2525 34.6598 70.3893 34.3986 70.638 33.9634C70.8494 32.3342 71.0608 30.8916 71.0359 29.4241C70.9862 25.9792 69.6431 24.6982 66.2355 24.6982C53.1773 24.6982 40.0569 24.7231 26.9986 24.7231C26.5136 24.7231 26.041 24.7729 25.6431 24.7977V38.7638H67.0936C67.3672 38.4156 67.6781 38.0425 68.0512 37.6445H68.0636ZM39.7957 34.1748C38.465 35.9905 35.9528 36.3885 34.1371 35.1075C32.6199 34.038 32.2219 32.2471 33.0179 30.0832C34.6222 27.7576 36.7488 27.2477 38.7013 28.5411C40.5419 29.822 41.0518 32.4586 39.7957 34.1748ZM65.1784 32.9187C65.0914 33.3167 64.3825 33.8763 63.9721 33.8763C59.5945 33.9509 55.192 33.9261 50.7895 33.9261C49.9562 33.9261 49.608 33.5281 49.5583 32.67C49.3717 29.2997 49.322 29.2997 52.7296 29.2997H62.3678C65.253 29.2997 65.9246 30.0956 65.1908 32.9311L65.1784 32.9187Z" fill="url(#paint1_linear_411_1277)"/>
<path d="M10.4538 38.7761C14.6947 38.7761 18.7614 38.7761 22.8778 38.7636V24.8597C22.654 24.7976 22.5296 24.7105 22.3928 24.7105C16.1248 24.7105 9.86933 24.6732 3.60139 24.7478C1.26334 24.7851 0.0570142 26.1158 0.019705 28.516C-0.0176042 31.6251 0.00726857 34.7342 0.019705 37.8433C0.0321414 38.1294 0.119195 38.403 0.193814 38.7885H10.4663L10.4538 38.7761Z" fill="url(#paint2_linear_411_1277)"/>
<path d="M43.0517 56.6608C44.6684 57.3199 45.6011 57.1209 46.5339 55.8151C39.4949 51.1639 27.9414 51.9598 20.8154 60.4042C11.3513 72.6665 18.154 87.9135 27.9663 91.3211C26.76 85.3516 27.444 79.6184 29.8318 74.1215C26.2128 72.5048 23.1285 69.5449 18.7385 71.5969C18.7758 70.9378 18.7509 70.6518 18.8007 70.3657C20.6164 59.1481 32.5678 52.3454 43.0641 56.6484L43.0517 56.6608Z" fill="url(#paint3_linear_411_1277)"/>
<path d="M35.7329 103.421C35.82 103.595 35.907 103.695 35.9816 103.695C35.8821 103.508 35.7951 103.421 35.7329 103.421Z" fill="url(#paint4_linear_411_1277)"/>
<path d="M77.7668 0C74.3468 0 71.5735 2.77332 71.5735 6.20577C71.5735 9.63822 74.3344 12.3991 77.7668 12.3991C81.1993 12.3991 83.9601 9.62578 83.9601 6.20577C83.9601 2.78576 81.1868 0 77.7668 0ZM81.3112 8.13341C81.5724 6.66592 80.6396 5.5342 78.513 4.75071C77.4683 4.48954 77.1326 4.01696 77.2694 3.27078C77.63 1.31826 81.8211 2.64896 81.8211 6.20577C81.8211 6.90221 81.6345 7.56134 81.3236 8.13341H81.3112Z" fill="url(#paint5_linear_411_1277)"/>
<path d="M73.4511 22.485C74.9435 22.485 76.1498 21.2663 76.1498 19.7863C76.1498 18.3064 74.9311 17.0752 73.4511 17.0752C71.9712 17.0752 70.7524 18.294 70.7524 19.7863C70.7524 21.2787 71.9588 22.485 73.4511 22.485ZM75.2171 19.7739C75.2171 20.0724 75.1425 20.3708 74.9933 20.6196C75.1052 19.9729 74.6948 19.4879 73.7745 19.1396C73.3143 19.0277 73.1651 18.8163 73.2273 18.4929C73.3765 17.6348 75.2171 18.2193 75.2171 19.7739Z" fill="url(#paint6_linear_411_1277)"/>
<path d="M87.176 15.906C87.176 14.4136 85.9572 13.1948 84.4773 13.1948C82.9973 13.1948 81.7786 14.4136 81.7786 15.906C81.7786 17.3983 82.9849 18.6047 84.4773 18.6047C85.9696 18.6047 87.176 17.3859 87.176 15.906ZM86.0194 16.7516C86.1313 16.1049 85.7209 15.6199 84.8006 15.2717C84.3405 15.1598 84.1912 14.9484 84.2534 14.625C84.4026 13.7669 86.2432 14.3514 86.2432 15.906C86.2432 16.2169 86.1686 16.5029 86.0194 16.7516Z" fill="url(#paint7_linear_411_1277)"/>
<path d="M77.8206 15.7327C80.3452 28.4427 72.8833 35.8921 72.8833 35.8921C71.6397 37.8695 67.6601 42.2968 65.5832 44.4732C64.6753 45.4308 63.6804 46.3013 62.6109 47.0724C45.1253 59.7451 40.4368 64.3714 40.4368 64.3714C29.6544 73.5371 30.0648 85.0407 30.0648 85.0407C36.2084 72.2188 46.2943 66.4608 46.2943 66.4608C62.5487 56.5241 66.7771 53.2035 66.7771 53.2035C77.2734 45.7915 79.3005 40.7423 79.3005 40.7423C85.2078 30.818 83.0439 24.8734 83.0439 24.8734C81.85 18.2946 77.8206 15.7202 77.8206 15.7202V15.7327Z" fill="url(#paint8_linear_411_1277)"/>
<path d="M83.6454 41.1895C83.5086 41.4507 83.3345 41.7367 83.148 42.0352C83.0858 42.1347 83.0112 42.2342 82.9366 42.3337C82.7997 42.5451 82.6505 42.7441 82.4888 42.9679C82.4018 43.0923 82.3023 43.2166 82.2028 43.341C82.0411 43.5524 81.867 43.7638 81.6929 43.9877C81.5934 44.1121 81.4815 44.2489 81.3696 44.3732C81.1706 44.6095 80.9716 44.8458 80.7726 45.0821C80.6607 45.2065 80.5612 45.3308 80.4493 45.4552C80.1881 45.7537 79.9145 46.0521 79.6409 46.3506C79.5787 46.4128 79.5165 46.4874 79.4544 46.5496C79.1061 46.9227 78.7579 47.2958 78.3973 47.6689C78.2978 47.7684 78.1983 47.8679 78.1112 47.9674C77.8376 48.241 77.5765 48.5145 77.3029 48.7881C77.1785 48.9125 77.0417 49.0493 76.9173 49.1737C76.681 49.41 76.4323 49.6587 76.196 49.895C76.0592 50.0318 75.9224 50.1686 75.7856 50.293C75.5493 50.5168 75.3255 50.7407 75.0892 50.9645C74.9524 51.0889 74.828 51.2257 74.6912 51.35C74.4425 51.5863 74.1938 51.8226 73.9575 52.0465C73.858 52.1335 73.7585 52.233 73.6714 52.3201C73.3356 52.631 73.0247 52.9295 72.7138 53.2155C72.6516 53.2777 72.5895 53.3274 72.5273 53.3772C72.2785 53.601 72.0423 53.8249 71.8184 54.0239C71.7313 54.0985 71.6443 54.1731 71.5697 54.2602C71.3956 54.4218 71.2339 54.5711 71.0722 54.7079C70.9852 54.7949 70.8857 54.8696 70.8111 54.9442C70.7489 55.0064 70.6867 55.0561 70.6369 55.1058C70.04 55.6406 69.4182 56.1381 68.759 56.6107C68.7217 56.6355 68.6596 56.6728 68.6222 56.7101C68.3113 56.934 67.9631 57.1827 67.5527 57.4812C67.4408 57.5558 67.3289 57.6429 67.2169 57.7175C66.8314 57.9911 66.421 58.2896 65.9857 58.6129C65.8738 58.7 65.7619 58.7746 65.6499 58.8616C65.1152 59.2472 64.5431 59.67 63.9337 60.0928C63.7721 60.2172 63.5979 60.3291 63.4363 60.4535C62.8393 60.8888 62.2299 61.3241 61.5957 61.7842C61.5211 61.8339 61.4589 61.8837 61.3843 61.9334C60.7624 62.3811 60.1406 62.8413 59.5064 63.289C59.382 63.3885 59.2452 63.4755 59.1208 63.575C58.4244 64.0849 57.728 64.5824 57.044 65.0798C56.9818 65.1171 56.932 65.1669 56.8698 65.2042C55.4148 66.2613 54.0343 67.2562 52.8902 68.1019C50.0547 69.9674 43.8116 75.3647 43.7867 75.3896C37.2949 81.6327 34.0988 87.938 34.3848 94.181C34.5714 98.8323 36.6482 102.588 38.5013 105.038C37.4069 98.795 38.5759 94.9272 38.5883 94.8402C41.1751 82.2421 60.4515 71.5592 61.2226 71.1115C69.8659 65.9131 77.8003 58.0657 77.8998 57.9787C90.4481 45.6666 88.8936 35.3941 86.8167 30.3325C86.0705 37.4088 83.72 41.0651 83.6703 41.1646L83.6454 41.1895Z" fill="url(#paint9_linear_411_1277)"/>
<path d="M75.1059 91.1336C76.7848 89.0194 77.618 86.4326 77.618 83.3733C77.618 80.7865 77.0584 78.5107 75.9142 76.5333C74.7452 74.531 73.029 72.9765 70.7407 71.8074C69.6712 71.2975 68.5021 70.8747 67.1963 70.626L56.302 78.635H61.4258C63.4032 78.635 64.8707 79.0952 65.8532 80.0528C66.8108 81.0104 67.2958 82.3162 67.2958 83.9702C67.2958 85.7113 66.8357 87.0172 65.8781 87.925C64.9204 88.808 63.453 89.2557 61.4258 89.2557H55.133V79.4931L45.0098 86.9177V109.826H55.133V96.1828H57.4586L65.2562 109.826H76.3868L67.7684 95.5237C70.9645 94.7277 73.4021 93.2602 75.081 91.1212L75.1059 91.1336Z" fill="url(#paint10_linear_411_1277)"/>
<path d="M109.477 48.0237V56.5399C109.151 56.6286 108.634 56.7173 107.924 56.806C107.244 56.8947 106.564 56.9391 105.884 56.9391C105.204 56.9391 104.598 56.8799 104.065 56.7616C103.563 56.6729 103.134 56.4955 102.779 56.2294C102.454 55.9633 102.202 55.5936 102.025 55.1205C101.848 54.6474 101.759 54.0264 101.759 53.2576V32.3665C101.759 31.7455 101.921 31.2724 102.247 30.9471C102.602 30.5923 103.075 30.3114 103.666 30.1044C104.671 29.7495 105.839 29.4982 107.17 29.3503C108.501 29.1729 109.92 29.0842 111.428 29.0842C115.509 29.0842 118.584 29.9417 120.654 31.6568C122.724 33.3719 123.759 35.6931 123.759 38.6205C123.759 40.4538 123.286 42.021 122.339 43.3221C121.393 44.6232 120.27 45.6286 118.968 46.3383C120.033 47.7872 121.083 49.1474 122.118 50.4189C123.153 51.6904 123.966 52.8436 124.557 53.8786C124.261 54.9135 123.714 55.7119 122.916 56.2737C122.147 56.806 121.275 57.0721 120.299 57.0721C119.649 57.0721 119.087 56.9982 118.614 56.8503C118.141 56.7025 117.727 56.4955 117.372 56.2294C117.017 55.9633 116.692 55.638 116.396 55.2536C116.1 54.8692 115.819 54.4552 115.553 54.0116L111.827 48.0237H109.477ZM112.271 42.1245C113.395 42.1245 114.282 41.8436 114.932 41.2818C115.583 40.6904 115.908 39.8329 115.908 38.7092C115.908 37.5856 115.538 36.7428 114.799 36.181C114.089 35.5896 112.951 35.2939 111.384 35.2939C110.94 35.2939 110.585 35.3087 110.319 35.3383C110.053 35.3678 109.757 35.4122 109.432 35.4713V42.1245H112.271ZM138.96 57.427C137.216 57.427 135.589 57.1904 134.081 56.7173C132.603 56.2146 131.302 55.4753 130.178 54.4995C129.084 53.5237 128.212 52.2966 127.561 50.8181C126.94 49.3396 126.63 47.6098 126.63 45.6286C126.63 43.677 126.94 42.0063 127.561 40.6165C128.212 39.1971 129.054 38.0439 130.089 37.1568C131.124 36.2401 132.307 35.5748 133.638 35.1608C134.968 34.7173 136.329 34.4955 137.718 34.4955C139.286 34.4955 140.705 34.7321 141.977 35.2052C143.278 35.6783 144.386 36.3288 145.303 37.1568C146.249 37.9848 146.974 38.9753 147.477 40.1286C148.009 41.2818 148.275 42.5385 148.275 43.8987C148.275 44.9041 147.994 45.6729 147.432 46.2052C146.87 46.7374 146.087 47.0775 145.081 47.2253L134.126 48.8665C134.451 49.8423 135.116 50.5815 136.122 51.0842C137.127 51.5573 138.28 51.7939 139.581 51.7939C140.794 51.7939 141.932 51.646 142.997 51.3503C144.091 51.0251 144.978 50.6555 145.658 50.2415C146.131 50.5372 146.53 50.9512 146.856 51.4834C147.181 52.0157 147.343 52.5775 147.343 53.1689C147.343 54.4995 146.722 55.4901 145.481 56.1407C144.534 56.6434 143.47 56.9834 142.287 57.1608C141.104 57.3383 139.995 57.427 138.96 57.427ZM137.718 39.9955C137.009 39.9955 136.388 40.1138 135.856 40.3503C135.353 40.5869 134.939 40.8974 134.614 41.2818C134.288 41.6366 134.037 42.0506 133.86 42.5237C133.712 42.9673 133.623 43.4256 133.593 43.8987L141.178 42.6568C141.089 42.0654 140.764 41.474 140.202 40.8826C139.64 40.2912 138.813 39.9955 137.718 39.9955ZM161.13 51.927C161.633 51.927 162.18 51.8826 162.771 51.7939C163.392 51.6756 163.851 51.5278 164.146 51.3503V47.802L160.953 48.0681C160.125 48.1272 159.445 48.3047 158.912 48.6003C158.38 48.896 158.114 49.3396 158.114 49.931C158.114 50.5224 158.336 51.0103 158.779 51.3947C159.252 51.7495 160.036 51.927 161.13 51.927ZM160.775 34.4955C162.372 34.4955 163.821 34.6581 165.122 34.9834C166.453 35.3087 167.576 35.8114 168.493 36.4915C169.439 37.142 170.164 37.9848 170.666 39.0197C171.169 40.0251 171.42 41.2227 171.42 42.6124V52.5479C171.42 53.3167 171.199 53.9525 170.755 54.4552C170.341 54.9283 169.839 55.3423 169.247 55.6971C167.325 56.8503 164.619 57.427 161.13 57.427C159.563 57.427 158.144 57.2791 156.872 56.9834C155.63 56.6877 154.551 56.2442 153.634 55.6528C152.747 55.0614 152.052 54.3073 151.55 53.3907C151.076 52.474 150.84 51.4095 150.84 50.1971C150.84 48.1568 151.446 46.5896 152.658 45.4955C153.871 44.4014 155.748 43.7213 158.291 43.4552L164.102 42.8342V42.5237C164.102 41.6662 163.718 41.06 162.949 40.7052C162.209 40.3208 161.13 40.1286 159.711 40.1286C158.587 40.1286 157.493 40.2469 156.429 40.4834C155.364 40.72 154.403 41.0157 153.545 41.3705C153.161 41.1044 152.836 40.7052 152.57 40.1729C152.304 39.6111 152.17 39.0345 152.17 38.4431C152.17 37.6743 152.348 37.0681 152.703 36.6245C153.087 36.1514 153.664 35.7522 154.433 35.427C155.29 35.1017 156.295 34.8651 157.449 34.7173C158.632 34.5694 159.74 34.4955 160.775 34.4955ZM175.1 45.9391C175.1 43.9874 175.395 42.302 175.987 40.8826C176.578 39.4337 177.391 38.2361 178.426 37.2899C179.491 36.3436 180.718 35.6487 182.108 35.2052C183.527 34.7321 185.05 34.4955 186.676 34.4955C187.268 34.4955 187.844 34.5546 188.406 34.6729C188.968 34.7616 189.426 34.8799 189.781 35.0278V27.8423C190.077 27.7536 190.55 27.6649 191.2 27.5762C191.851 27.4579 192.516 27.3987 193.196 27.3987C193.847 27.3987 194.423 27.4431 194.926 27.5318C195.458 27.6205 195.902 27.7979 196.257 28.0641C196.612 28.3302 196.878 28.6998 197.055 29.1729C197.233 29.6165 197.321 30.2079 197.321 30.9471V51.9713C197.321 53.3611 196.671 54.47 195.37 55.2979C194.512 55.8598 193.403 56.3477 192.043 56.7616C190.683 57.2052 189.116 57.427 187.341 57.427C185.419 57.427 183.69 57.1608 182.152 56.6286C180.644 56.0963 179.358 55.3275 178.293 54.3221C177.258 53.3167 176.46 52.1192 175.898 50.7294C175.366 49.31 175.1 47.7133 175.1 45.9391ZM187.696 40.3947C186.1 40.3947 184.872 40.853 184.015 41.7697C183.157 42.6864 182.729 44.0762 182.729 45.9391C182.729 47.7724 183.128 49.1622 183.926 50.1084C184.725 51.0251 185.878 51.4834 187.386 51.4834C187.918 51.4834 188.391 51.4095 188.805 51.2616C189.249 51.0842 189.589 50.892 189.825 50.685V40.927C189.234 40.5721 188.524 40.3947 187.696 40.3947ZM205.391 51.2173C205.066 50.478 204.711 49.6501 204.327 48.7334C203.972 47.8167 203.587 46.767 203.173 45.5842C202.789 44.4014 202.375 43.056 201.931 41.5479C201.517 40.0103 201.074 38.2509 200.601 36.2697C201.015 35.8557 201.562 35.5009 202.242 35.2052C202.952 34.8799 203.72 34.7173 204.548 34.7173C205.583 34.7173 206.441 34.9391 207.121 35.3826C207.801 35.7966 208.304 36.595 208.629 37.7778L212.133 49.9753H212.31C212.665 48.97 213.005 47.8759 213.331 46.6931C213.685 45.5103 214.026 44.2979 214.351 43.056C214.676 41.7845 214.972 40.5278 215.238 39.2858C215.534 38.0143 215.785 36.7724 215.992 35.56C217.056 34.9982 218.224 34.7173 219.496 34.7173C220.531 34.7173 221.388 34.9391 222.069 35.3826C222.749 35.8262 223.089 36.595 223.089 37.6891C223.089 38.4874 222.985 39.4189 222.778 40.4834C222.571 41.5184 222.29 42.6272 221.935 43.81C221.61 44.9928 221.211 46.22 220.738 47.4915C220.294 48.7334 219.821 49.9606 219.319 51.1729C218.816 52.3853 218.298 53.5385 217.766 54.6326C217.234 55.6971 216.716 56.6581 216.214 57.5157C215.386 58.9646 214.617 60.1474 213.907 61.0641C213.198 61.9807 212.517 62.6904 211.867 63.1931C211.216 63.7254 210.566 64.0802 209.915 64.2576C209.265 64.4646 208.585 64.5681 207.875 64.5681C206.633 64.5681 205.628 64.1985 204.859 63.4592C204.09 62.72 203.632 61.759 203.484 60.5762C204.43 59.8369 205.376 59.009 206.323 58.0923C207.269 57.2052 208.126 56.2885 208.895 55.3423C208.392 55.1944 207.845 54.8544 207.254 54.3221C206.692 53.7603 206.071 52.7253 205.391 51.2173Z" fill="url(#paint11_linear_411_1277)"/>
<path d="M105.884 101.592C104.612 101.592 103.607 101.222 102.868 100.483C102.128 99.7439 101.759 98.7386 101.759 97.467V74.5356C102.084 74.4765 102.602 74.4025 103.311 74.3138C104.021 74.1955 104.701 74.1364 105.352 74.1364C106.032 74.1364 106.623 74.1955 107.126 74.3138C107.658 74.4025 108.102 74.58 108.456 74.8461C108.811 75.1122 109.077 75.4818 109.255 75.9549C109.432 76.4281 109.521 77.049 109.521 77.8179V95.338H119.678C119.885 95.6633 120.077 96.1068 120.255 96.6687C120.432 97.2009 120.521 97.7627 120.521 98.3541C120.521 99.5369 120.27 100.38 119.767 100.882C119.264 101.355 118.599 101.592 117.771 101.592H105.884ZM133.149 96.6687C133.651 96.6687 134.198 96.6243 134.79 96.5356C135.411 96.4173 135.869 96.2695 136.165 96.092V92.5437L132.971 92.8098C132.143 92.8689 131.463 93.0463 130.931 93.342C130.399 93.6377 130.132 94.0813 130.132 94.6727C130.132 95.2641 130.354 95.752 130.798 96.1364C131.271 96.4912 132.054 96.6687 133.149 96.6687ZM132.794 79.2372C134.39 79.2372 135.839 79.3998 137.14 79.7251C138.471 80.0504 139.595 80.5531 140.511 81.2332C141.458 81.8837 142.182 82.7265 142.685 83.7614C143.187 84.7668 143.439 85.9644 143.439 87.3541V97.2896C143.439 98.0584 143.217 98.6942 142.774 99.1969C142.36 99.67 141.857 100.084 141.265 100.439C139.343 101.592 136.638 102.169 133.149 102.169C131.581 102.169 130.162 102.021 128.89 101.725C127.649 101.429 126.569 100.986 125.653 100.394C124.765 99.8031 124.071 99.049 123.568 98.1324C123.095 97.2157 122.858 96.1512 122.858 94.9388C122.858 92.8985 123.464 91.3313 124.677 90.2372C125.889 89.1431 127.767 88.463 130.31 88.1969L136.12 87.5759V87.2654C136.12 86.4079 135.736 85.8017 134.967 85.4469C134.228 85.0625 133.149 84.8703 131.729 84.8703C130.605 84.8703 129.511 84.9886 128.447 85.2251C127.382 85.4617 126.421 85.7574 125.564 86.1122C125.179 85.8461 124.854 85.4469 124.588 84.9146C124.322 84.3528 124.189 83.7762 124.189 83.1848C124.189 82.416 124.366 81.8098 124.721 81.3662C125.105 80.8931 125.682 80.4939 126.451 80.1687C127.308 79.8434 128.314 79.6068 129.467 79.459C130.65 79.3111 131.759 79.2372 132.794 79.2372ZM148.049 80.213C148.345 80.1243 148.803 80.0356 149.424 79.9469C150.075 79.8582 150.74 79.8138 151.42 79.8138C152.071 79.8138 152.647 79.8582 153.15 79.9469C153.682 80.0356 154.126 80.213 154.481 80.4791C154.836 80.7453 155.102 81.1149 155.279 81.588C155.486 82.0316 155.59 82.623 155.59 83.3622V92.8985C155.59 94.1109 155.885 94.9832 156.477 95.5154C157.068 96.0181 157.926 96.2695 159.049 96.2695C159.729 96.2695 160.276 96.2103 160.69 96.092C161.134 95.9738 161.474 95.8555 161.711 95.7372V80.213C162.006 80.1243 162.465 80.0356 163.086 79.9469C163.736 79.8582 164.401 79.8138 165.082 79.8138C165.732 79.8138 166.309 79.8582 166.811 79.9469C167.344 80.0356 167.787 80.213 168.142 80.4791C168.497 80.7453 168.763 81.1149 168.94 81.588C169.147 82.0316 169.251 82.623 169.251 83.3622V96.8461C169.251 98.3246 168.63 99.4334 167.388 100.173C166.353 100.823 165.111 101.311 163.662 101.636C162.243 101.991 160.69 102.169 159.005 102.169C157.408 102.169 155.93 101.991 154.569 101.636C153.239 101.282 152.086 100.735 151.11 99.9953C150.134 99.256 149.38 98.3098 148.848 97.1566C148.315 95.9738 148.049 94.5544 148.049 92.8985V80.213ZM187.527 87.7977C187.527 86.881 187.26 86.2157 186.728 85.8017C186.225 85.3582 185.531 85.1364 184.643 85.1364C184.052 85.1364 183.461 85.2103 182.869 85.3582C182.307 85.506 181.82 85.7278 181.406 86.0235V101.415C181.11 101.503 180.637 101.592 179.986 101.681C179.365 101.769 178.715 101.814 178.035 101.814C177.384 101.814 176.793 101.769 176.26 101.681C175.758 101.592 175.329 101.415 174.974 101.149C174.619 100.882 174.338 100.528 174.131 100.084C173.954 99.6109 173.865 99.0047 173.865 98.2654V84.959C173.865 84.1606 174.028 83.5101 174.353 83.0074C174.708 82.5047 175.181 82.0463 175.772 81.6324C176.778 80.9227 178.035 80.3461 179.543 79.9025C181.08 79.459 182.781 79.2372 184.643 79.2372C187.985 79.2372 190.557 79.9765 192.361 81.455C194.165 82.9039 195.067 84.9294 195.067 87.5316V101.415C194.771 101.503 194.298 101.592 193.647 101.681C193.027 101.769 192.376 101.814 191.696 101.814C191.045 101.814 190.454 101.769 189.922 101.681C189.419 101.592 188.99 101.415 188.635 101.149C188.281 100.882 188 100.528 187.793 100.084C187.615 99.6109 187.527 99.0047 187.527 98.2654V87.7977ZM198.793 90.6808C198.793 88.7291 199.089 87.0437 199.68 85.6243C200.271 84.1754 201.085 82.9778 202.12 82.0316C203.184 81.0853 204.411 80.3904 205.801 79.9469C207.22 79.4738 208.743 79.2372 210.37 79.2372C210.961 79.2372 211.538 79.2963 212.099 79.4146C212.661 79.5033 213.12 79.6216 213.474 79.7695V72.584C213.77 72.4953 214.243 72.4066 214.894 72.3179C215.544 72.1996 216.21 72.1404 216.89 72.1404C217.54 72.1404 218.117 72.1848 218.62 72.2735C219.152 72.3622 219.595 72.5396 219.95 72.8058C220.305 73.0719 220.571 73.4415 220.749 73.9146C220.926 74.3582 221.015 74.9496 221.015 75.6888V96.713C221.015 98.1028 220.364 99.2117 219.063 100.04C218.206 100.601 217.097 101.089 215.737 101.503C214.376 101.947 212.809 102.169 211.035 102.169C209.113 102.169 207.383 101.903 205.845 101.37C204.337 100.838 203.051 100.069 201.987 99.0638C200.952 98.0584 200.153 96.8609 199.591 95.4711C199.059 94.0517 198.793 92.455 198.793 90.6808ZM211.39 85.1364C209.793 85.1364 208.566 85.5947 207.708 86.5114C206.851 87.4281 206.422 88.8179 206.422 90.6808C206.422 92.5141 206.821 93.9039 207.62 94.8501C208.418 95.7668 209.571 96.2251 211.079 96.2251C211.612 96.2251 212.085 96.1512 212.499 96.0033C212.942 95.8259 213.282 95.6337 213.519 95.4267V85.6687C212.927 85.3138 212.218 85.1364 211.39 85.1364ZM233.254 101.415C232.958 101.503 232.485 101.592 231.835 101.681C231.214 101.769 230.563 101.814 229.883 101.814C229.232 101.814 228.641 101.769 228.109 101.681C227.606 101.592 227.177 101.415 226.822 101.149C226.468 100.882 226.187 100.528 225.98 100.084C225.802 99.6109 225.714 99.0047 225.714 98.2654V84.959C225.714 84.2789 225.832 83.7023 226.068 83.2291C226.335 82.7265 226.704 82.2829 227.177 81.8985C227.65 81.5141 228.227 81.174 228.907 80.8783C229.617 80.5531 230.371 80.2722 231.169 80.0356C231.968 79.799 232.796 79.6216 233.653 79.5033C234.511 79.3555 235.368 79.2816 236.226 79.2816C237.645 79.2816 238.769 79.5625 239.597 80.1243C240.425 80.6566 240.839 81.5437 240.839 82.7856C240.839 83.1996 240.779 83.6136 240.661 84.0275C240.543 84.4119 240.395 84.7668 240.218 85.092C239.597 85.092 238.961 85.1216 238.31 85.1808C237.66 85.2399 237.024 85.3286 236.403 85.4469C235.782 85.5652 235.191 85.6982 234.629 85.8461C234.097 85.9644 233.638 86.1122 233.254 86.2896V101.415ZM248.013 95.959C247.688 95.2197 247.333 94.3918 246.949 93.4751C246.594 92.5584 246.21 91.5087 245.796 90.3259C245.411 89.1431 244.997 87.7977 244.554 86.2896C244.14 84.752 243.696 82.9926 243.223 81.0114C243.637 80.5974 244.184 80.2426 244.864 79.9469C245.574 79.6216 246.343 79.459 247.171 79.459C248.206 79.459 249.063 79.6808 249.743 80.1243C250.423 80.5383 250.926 81.3367 251.251 82.5195L254.755 94.717H254.933C255.288 93.7117 255.628 92.6176 255.953 91.4348C256.308 90.252 256.648 89.0396 256.973 87.7977C257.298 86.5262 257.594 85.2695 257.86 84.0275C258.156 82.756 258.407 81.5141 258.614 80.3017C259.679 79.7399 260.847 79.459 262.118 79.459C263.153 79.459 264.011 79.6808 264.691 80.1243C265.371 80.5679 265.711 81.3367 265.711 82.4308C265.711 83.2291 265.607 84.1606 265.4 85.2251C265.193 86.2601 264.913 87.3689 264.558 88.5517C264.232 89.7345 263.833 90.9617 263.36 92.2332C262.917 93.4751 262.443 94.7023 261.941 95.9146C261.438 97.127 260.921 98.2802 260.388 99.3743C259.856 100.439 259.339 101.4 258.836 102.257C258.008 103.706 257.239 104.889 256.529 105.806C255.82 106.722 255.14 107.432 254.489 107.935C253.839 108.467 253.188 108.822 252.538 108.999C251.887 109.206 251.207 109.31 250.497 109.31C249.255 109.31 248.25 108.94 247.481 108.201C246.712 107.462 246.254 106.501 246.106 105.318C247.052 104.579 247.999 103.751 248.945 102.834C249.891 101.947 250.749 101.03 251.517 100.084C251.015 99.9361 250.468 99.5961 249.876 99.0638C249.314 98.502 248.693 97.467 248.013 95.959Z" fill="white"/>
<defs>
<linearGradient id="paint0_linear_411_1277" x1="32.0251" y1="41.3633" x2="32.0251" y2="110" gradientUnits="userSpaceOnUse">
<stop stop-color="#32D3A0"/>
<stop offset="1" stop-color="#039265"/>
</linearGradient>
<linearGradient id="paint1_linear_411_1277" x1="48.3405" y1="24.6982" x2="48.3405" y2="38.7638" gradientUnits="userSpaceOnUse">
<stop stop-color="#32D3A0"/>
<stop offset="1" stop-color="#039265"/>
</linearGradient>
<linearGradient id="paint2_linear_411_1277" x1="11.4389" y1="24.7012" x2="11.4389" y2="38.7885" gradientUnits="userSpaceOnUse">
<stop stop-color="#32D3A0"/>
<stop offset="1" stop-color="#039265"/>
</linearGradient>
<linearGradient id="paint3_linear_411_1277" x1="31.4079" y1="52.9888" x2="31.4079" y2="91.3211" gradientUnits="userSpaceOnUse">
<stop stop-color="#32D3A0"/>
<stop offset="1" stop-color="#039265"/>
</linearGradient>
<linearGradient id="paint4_linear_411_1277" x1="35.8573" y1="103.421" x2="35.8573" y2="103.695" gradientUnits="userSpaceOnUse">
<stop stop-color="#32D3A0"/>
<stop offset="1" stop-color="#039265"/>
</linearGradient>
<linearGradient id="paint5_linear_411_1277" x1="77.7668" y1="0" x2="77.7668" y2="12.3991" gradientUnits="userSpaceOnUse">
<stop stop-color="#32D3A0"/>
<stop offset="1" stop-color="#039265"/>
</linearGradient>
<linearGradient id="paint6_linear_411_1277" x1="73.4511" y1="17.0752" x2="73.4511" y2="22.485" gradientUnits="userSpaceOnUse">
<stop stop-color="#32D3A0"/>
<stop offset="1" stop-color="#039265"/>
</linearGradient>
<linearGradient id="paint7_linear_411_1277" x1="84.4773" y1="13.1948" x2="84.4773" y2="18.6047" gradientUnits="userSpaceOnUse">
<stop stop-color="#32D3A0"/>
<stop offset="1" stop-color="#039265"/>
</linearGradient>
<linearGradient id="paint8_linear_411_1277" x1="56.7468" y1="15.7202" x2="56.7468" y2="85.0407" gradientUnits="userSpaceOnUse">
<stop stop-color="#32D3A0"/>
<stop offset="1" stop-color="#039265"/>
</linearGradient>
<linearGradient id="paint9_linear_411_1277" x1="61.2954" y1="30.3325" x2="61.2954" y2="105.038" gradientUnits="userSpaceOnUse">
<stop stop-color="#32D3A0"/>
<stop offset="1" stop-color="#039265"/>
</linearGradient>
<linearGradient id="paint10_linear_411_1277" x1="61.3139" y1="70.626" x2="61.3139" y2="109.826" gradientUnits="userSpaceOnUse">
<stop stop-color="#32D3A0"/>
<stop offset="1" stop-color="#039265"/>
</linearGradient>
<linearGradient id="paint11_linear_411_1277" x1="161.876" y1="29.7173" x2="161.876" y2="56.7173" gradientUnits="userSpaceOnUse">
<stop stop-color="#32D3A0"/>
<stop offset="1" stop-color="#039265"/>
</linearGradient>
</defs>
</svg>
