<svg width="137" height="57" viewBox="0 0 137 57" fill="none" xmlns="http://www.w3.org/2000/svg">
<path d="M17.2413 53.4929C16.6778 52.4292 16.0826 51.4479 15.6078 50.4032C15.3862 49.9347 15.1646 49.6561 14.6518 49.4978C6.63007 46.9717 3.19852 37.2215 7.85833 30.2381C11.7267 24.4324 19.3876 22.7229 25.3706 26.3634C25.8581 26.661 26.181 26.6736 26.6115 26.3191C28.2893 24.9579 29.9924 23.622 31.7462 22.2164C31.9361 22.0518 32.0438 21.9442 32.164 21.8429C32.3033 21.6973 32.43 21.5516 32.6072 21.3364C32.4616 21.1908 32.259 21.0641 32.0438 21.0641C21.5845 21.0578 11.1253 21.0578 0.66602 21.0578C0.469751 21.0578 0.279813 21.0831 0.00756836 21.1021V53.3726C0.00756836 55.2403 0.735664 55.9747 2.60972 55.9684C4.97128 55.962 7.33284 55.9177 9.6944 55.9241C12.5878 55.9304 15.4748 55.981 18.3619 56C18.6088 56 18.8557 55.9114 19.1913 55.8481C18.8431 55.4429 18.5835 55.1453 18.3176 54.8477C17.9694 54.4172 17.6085 53.9804 17.2413 53.5055V53.4929Z" fill="url(#paint0_linear_411_2263)"/>
<path d="M34.6509 19.1646C34.6889 19.095 34.6889 19.057 34.7458 19.0317C34.9801 18.7214 35.1954 18.4302 35.4549 18.0947C35.5246 17.987 35.5626 17.9174 35.6322 17.8097C35.7652 17.6451 35.8348 17.5122 35.9614 17.2906C36.0691 16.4612 36.1767 15.7268 36.164 14.9797C36.1387 13.2259 35.4549 12.5738 33.7202 12.5738C27.0723 12.5738 20.3929 12.5865 13.745 12.5865C13.4981 12.5865 13.2575 12.6118 13.0549 12.6244V19.7344H34.157C34.2963 19.5572 34.4546 19.3672 34.6445 19.1646H34.6509ZM20.2599 17.3982C19.5825 18.3226 18.3035 18.5252 17.3792 17.8731C16.6068 17.3286 16.4042 16.4169 16.8094 15.3152C17.6261 14.1313 18.7087 13.8717 19.7028 14.5302C20.6398 15.1823 20.8994 16.5245 20.2599 17.3982ZM33.182 16.7588C33.1377 16.9614 32.7768 17.2463 32.5679 17.2463C30.3393 17.2843 28.098 17.2716 25.8567 17.2716C25.4325 17.2716 25.2553 17.069 25.23 16.6321C25.135 14.9164 25.1097 14.9164 26.8444 14.9164H31.7511C33.22 14.9164 33.5619 15.3216 33.1883 16.7651L33.182 16.7588Z" fill="url(#paint1_linear_411_2263)"/>
<path d="M5.32538 19.7408C7.48434 19.7408 9.55466 19.7408 11.6503 19.7345V12.6561C11.5363 12.6244 11.473 12.5801 11.4034 12.5801C8.21243 12.5801 5.02781 12.5611 1.83685 12.5991C0.646574 12.6181 0.0324434 13.2956 0.0134496 14.5175C-0.00554419 16.1003 0.00711833 17.6831 0.0134496 19.2659C0.0197809 19.4116 0.0640993 19.5508 0.102087 19.7471H5.33171L5.32538 19.7408Z" fill="url(#paint2_linear_411_2263)"/>
<path d="M21.9204 28.8452C22.7435 29.1808 23.2183 29.0795 23.6932 28.4147C20.1097 26.0468 14.228 26.452 10.6001 30.7509C5.78205 36.9936 9.24525 44.7557 14.2406 46.4905C13.6265 43.4514 13.9747 40.5327 15.1903 37.7343C13.3479 36.9113 11.7778 35.4044 9.54282 36.4491C9.56181 36.1135 9.54915 35.9679 9.57447 35.8223C10.4988 30.1115 16.5832 26.6483 21.9268 28.8389L21.9204 28.8452Z" fill="url(#paint3_linear_411_2263)"/>
<path d="M18.1917 52.6508C18.236 52.7394 18.2803 52.79 18.3183 52.79C18.2676 52.6951 18.2233 52.6508 18.1917 52.6508Z" fill="url(#paint4_linear_411_2263)"/>
<path d="M39.5902 0C37.8491 0 36.4373 1.41187 36.4373 3.1593C36.4373 4.90673 37.8428 6.31227 39.5902 6.31227C41.3376 6.31227 42.7432 4.9004 42.7432 3.1593C42.7432 1.4182 41.3313 0 39.5902 0ZM41.3946 4.14065C41.5276 3.39356 41.0527 2.81741 39.9701 2.41854C39.4383 2.28559 39.2673 2.045 39.337 1.66512C39.5206 0.671114 41.6542 1.34856 41.6542 3.1593C41.6542 3.51385 41.5592 3.84941 41.401 4.14065H41.3946Z" fill="url(#paint5_linear_411_2263)"/>
<path d="M37.3937 11.4469C38.1534 11.4469 38.7675 10.8265 38.7675 10.0731C38.7675 9.31964 38.1471 8.69284 37.3937 8.69284C36.6402 8.69284 36.0198 9.3133 36.0198 10.0731C36.0198 10.8328 36.6339 11.4469 37.3937 11.4469ZM38.2927 10.0667C38.2927 10.2187 38.2547 10.3706 38.1787 10.4973C38.2357 10.168 38.0268 9.92111 37.5583 9.74383C37.324 9.68685 37.248 9.57922 37.2797 9.4146C37.3557 8.97775 38.2927 9.27532 38.2927 10.0667Z" fill="url(#paint6_linear_411_2263)"/>
<path d="M44.3833 8.09771C44.3833 7.33796 43.7628 6.7175 43.0094 6.7175C42.256 6.7175 41.6355 7.33796 41.6355 8.09771C41.6355 8.85747 42.2496 9.4716 43.0094 9.4716C43.7691 9.4716 44.3833 8.85113 44.3833 8.09771ZM43.7945 8.52824C43.8514 8.19901 43.6425 7.95209 43.174 7.77482C42.9397 7.71784 42.8638 7.61021 42.8954 7.44559C42.9714 7.00874 43.9084 7.30631 43.9084 8.09771C43.9084 8.256 43.8704 8.40161 43.7945 8.52824Z" fill="url(#paint7_linear_411_2263)"/>
<path d="M39.6212 8.00923C40.9064 14.4798 37.1077 18.2722 37.1077 18.2722C36.4746 19.2789 34.4486 21.5328 33.3912 22.6408C32.9291 23.1283 32.4226 23.5715 31.8781 23.964C22.9763 30.4156 20.5894 32.7708 20.5894 32.7708C15.1002 37.4369 15.3092 43.2934 15.3092 43.2934C18.4368 36.7658 23.5714 33.8344 23.5714 33.8344C31.8464 28.7758 33.999 27.0853 33.999 27.0853C39.3426 23.3119 40.3746 20.7414 40.3746 20.7414C43.382 15.6891 42.2803 12.6627 42.2803 12.6627C41.6725 9.31347 39.6212 8.0029 39.6212 8.0029V8.00923Z" fill="url(#paint8_linear_411_2263)"/>
<path d="M42.5847 20.9691C42.515 21.102 42.4264 21.2477 42.3314 21.3996C42.2998 21.4503 42.2618 21.5009 42.2238 21.5516C42.1541 21.6592 42.0782 21.7605 41.9959 21.8745C41.9515 21.9378 41.9009 22.0011 41.8502 22.0644C41.7679 22.172 41.6793 22.2797 41.5907 22.3936C41.54 22.4569 41.483 22.5266 41.426 22.5899C41.3247 22.7102 41.2234 22.8305 41.1221 22.9508C41.0652 23.0141 41.0145 23.0774 40.9575 23.1407C40.8246 23.2927 40.6853 23.4446 40.546 23.5966C40.5143 23.6282 40.4827 23.6662 40.451 23.6979C40.2738 23.8878 40.0965 24.0777 39.9129 24.2677C39.8622 24.3183 39.8116 24.369 39.7673 24.4196C39.628 24.5589 39.495 24.6982 39.3557 24.8375C39.2924 24.9008 39.2228 24.9704 39.1595 25.0338C39.0392 25.154 38.9125 25.2807 38.7922 25.401C38.7226 25.4706 38.653 25.5403 38.5833 25.6036C38.463 25.7175 38.3491 25.8315 38.2288 25.9455C38.1591 26.0088 38.0958 26.0784 38.0262 26.1417C37.8995 26.262 37.7729 26.3823 37.6526 26.4963C37.602 26.5406 37.5513 26.5912 37.507 26.6356C37.336 26.7938 37.1778 26.9458 37.0195 27.0914C36.9878 27.1231 36.9562 27.1484 36.9245 27.1737C36.7979 27.2877 36.6776 27.4016 36.5636 27.5029C36.5193 27.5409 36.475 27.5789 36.437 27.6232C36.3484 27.7056 36.2661 27.7815 36.1838 27.8512C36.1394 27.8955 36.0888 27.9335 36.0508 27.9715C36.0191 28.0031 35.9875 28.0284 35.9622 28.0538C35.6583 28.326 35.3417 28.5793 35.0061 28.8199C34.9871 28.8325 34.9555 28.8515 34.9365 28.8705C34.7782 28.9845 34.6009 29.1111 34.392 29.263C34.335 29.301 34.278 29.3453 34.2211 29.3833C34.0248 29.5226 33.8159 29.6746 33.5943 29.8392C33.5373 29.8835 33.4803 29.9215 33.4233 29.9658C33.1511 30.1621 32.8598 30.3773 32.5496 30.5926C32.4673 30.6559 32.3787 30.7129 32.2964 30.7762C31.9925 30.9978 31.6822 31.2194 31.3593 31.4537C31.3213 31.479 31.2897 31.5043 31.2517 31.5296C30.9351 31.7576 30.6186 31.9918 30.2957 32.2197C30.2324 32.2704 30.1627 32.3147 30.0994 32.3654C29.7449 32.6249 29.3903 32.8782 29.0421 33.1314C29.0104 33.1504 28.9851 33.1758 28.9535 33.1948C28.2127 33.7329 27.5099 34.2394 26.9275 34.6699C25.4839 35.6196 22.3056 38.3674 22.293 38.3801C18.9881 41.5583 17.3609 44.7683 17.5065 47.9466C17.6015 50.3145 18.6588 52.2265 19.6022 53.4738C19.045 50.2955 19.6402 48.3265 19.6465 48.2822C20.9634 41.8686 30.7769 36.43 31.1694 36.2021C35.5696 33.5556 39.609 29.5606 39.6596 29.5163C46.0479 23.2483 45.2565 18.0187 44.1991 15.4419C43.8193 19.0444 42.6226 20.9058 42.5973 20.9564L42.5847 20.9691Z" fill="url(#paint9_linear_411_2263)"/>
<path d="M38.2362 46.3956C39.0909 45.3193 39.5151 44.0024 39.5151 42.4449C39.5151 41.128 39.2302 39.9693 38.6477 38.9627C38.0526 37.9433 37.1789 37.1519 36.0139 36.5568C35.4694 36.2972 34.8743 36.0819 34.2095 35.9553L28.6633 40.0327H31.2718C32.2785 40.0327 33.0256 40.2669 33.5257 40.7544C34.0133 41.2419 34.2602 41.9067 34.2602 42.7488C34.2602 43.6351 34.0259 44.2999 33.5384 44.7621C33.0509 45.2116 32.3038 45.4396 31.2718 45.4396H28.0682V40.4695L22.9146 44.2493V55.9115H28.0682V48.9661H29.2521L33.2218 55.9115H38.8883L34.5008 48.6305C36.1279 48.2253 37.3688 47.4782 38.2235 46.3892L38.2362 46.3956Z" fill="url(#paint10_linear_411_2263)"/>
<path d="M55.731 24.7032V29.0387C55.5654 29.0839 55.302 29.129 54.9407 29.1742C54.5944 29.2194 54.2482 29.2419 53.902 29.2419C53.5557 29.2419 53.2471 29.2118 52.9762 29.1516C52.7203 29.1064 52.502 29.0161 52.3213 28.8806C52.1557 28.7452 52.0278 28.557 51.9375 28.3161C51.8471 28.0753 51.802 27.7591 51.802 27.3677V16.7323C51.802 16.4161 51.8848 16.1753 52.0504 16.0097C52.231 15.829 52.4719 15.686 52.7729 15.5806C53.2848 15.4 53.8794 15.272 54.5568 15.1968C55.2342 15.1064 55.9568 15.0613 56.7246 15.0613C58.802 15.0613 60.3676 15.4978 61.4213 16.371C62.4751 17.2441 63.002 18.4258 63.002 19.9161C63.002 20.8495 62.7611 21.6473 62.2794 22.3097C61.7977 22.972 61.2256 23.4839 60.5633 23.8452C61.1052 24.5828 61.6396 25.2753 62.1665 25.9226C62.6934 26.5699 63.1073 27.157 63.4084 27.6839C63.2579 28.2107 62.9794 28.6172 62.5729 28.9032C62.1815 29.1742 61.7375 29.3097 61.2407 29.3097C60.9095 29.3097 60.6235 29.272 60.3826 29.1968C60.1418 29.1215 59.931 29.0161 59.7504 28.8806C59.5697 28.7452 59.4041 28.5796 59.2536 28.3839C59.103 28.1882 58.96 27.9774 58.8246 27.7516L56.9278 24.7032H55.731ZM57.1536 21.7C57.7256 21.7 58.1772 21.557 58.5084 21.271C58.8396 20.9699 59.0052 20.5333 59.0052 19.9613C59.0052 19.3892 58.817 18.9602 58.4407 18.6742C58.0794 18.3731 57.4998 18.2226 56.702 18.2226C56.4762 18.2226 56.2955 18.2301 56.16 18.2452C56.0246 18.2602 55.874 18.2828 55.7084 18.3129V21.7H57.1536ZM70.741 29.4903C69.8528 29.4903 69.0248 29.3699 68.2571 29.129C67.5044 28.8731 66.842 28.4968 66.27 28C65.713 27.5032 65.2689 26.8785 64.9377 26.1258C64.6216 25.3731 64.4635 24.4925 64.4635 23.4839C64.4635 22.4903 64.6216 21.6398 64.9377 20.9323C65.2689 20.2097 65.6979 19.6226 66.2248 19.171C66.7517 18.7043 67.3539 18.3656 68.0313 18.1548C68.7087 17.929 69.4012 17.8161 70.1087 17.8161C70.9065 17.8161 71.6291 17.9366 72.2764 18.1774C72.9388 18.4183 73.5033 18.7495 73.97 19.171C74.4517 19.5925 74.8205 20.0968 75.0764 20.6839C75.3474 21.271 75.4829 21.9107 75.4829 22.6032C75.4829 23.115 75.3399 23.5064 75.0539 23.7774C74.7678 24.0484 74.3689 24.2215 73.8571 24.2968L68.2797 25.1323C68.4453 25.629 68.784 26.0054 69.2958 26.2613C69.8076 26.5021 70.3947 26.6226 71.0571 26.6226C71.6743 26.6226 72.2539 26.5473 72.7958 26.3968C73.3528 26.2312 73.8044 26.043 74.1506 25.8323C74.3915 25.9828 74.5947 26.1935 74.7603 26.4645C74.9259 26.7355 75.0087 27.0215 75.0087 27.3226C75.0087 28 74.6926 28.5043 74.0603 28.8355C73.5786 29.0914 73.0367 29.2645 72.4345 29.3548C71.8324 29.4452 71.2678 29.4903 70.741 29.4903ZM70.1087 20.6161C69.7474 20.6161 69.4313 20.6763 69.1603 20.7968C68.9044 20.9172 68.6936 21.0753 68.5281 21.271C68.3625 21.4516 68.2345 21.6624 68.1442 21.9032C68.0689 22.129 68.0238 22.3624 68.0087 22.6032L71.87 21.971C71.8248 21.6699 71.6592 21.3688 71.3732 21.0677C71.0872 20.7667 70.6657 20.6161 70.1087 20.6161ZM82.0274 26.6903C82.2833 26.6903 82.5618 26.6677 82.8629 26.6226C83.179 26.5624 83.4123 26.4871 83.5629 26.3968V24.5903L81.9371 24.7258C81.5156 24.7559 81.1693 24.8462 80.8984 24.9968C80.6274 25.1473 80.4919 25.3731 80.4919 25.6742C80.4919 25.9753 80.6048 26.2237 80.8306 26.4194C81.0715 26.6 81.4704 26.6903 82.0274 26.6903ZM81.8468 17.8161C82.6597 17.8161 83.3973 17.8989 84.0597 18.0645C84.7371 18.2301 85.3091 18.486 85.7758 18.8323C86.2575 19.1634 86.6263 19.5925 86.8822 20.1194C87.1381 20.6312 87.2661 21.2409 87.2661 21.9484V27.0064C87.2661 27.3978 87.1532 27.7215 86.9274 27.9774C86.7166 28.2183 86.4607 28.429 86.1597 28.6097C85.1812 29.1968 83.8037 29.4903 82.0274 29.4903C81.2295 29.4903 80.507 29.415 79.8597 29.2645C79.2274 29.114 78.6779 28.8882 78.2113 28.5871C77.7597 28.286 77.4059 27.9021 77.15 27.4355C76.9091 26.9688 76.7887 26.4269 76.7887 25.8097C76.7887 24.771 77.0973 23.9731 77.7145 23.4161C78.3317 22.8591 79.2876 22.5129 80.5822 22.3774L83.5403 22.0613V21.9032C83.5403 21.4667 83.3446 21.1581 82.9532 20.9774C82.5769 20.7817 82.0274 20.6839 81.3048 20.6839C80.7328 20.6839 80.1758 20.7441 79.6338 20.8645C79.0919 20.9849 78.6027 21.1355 78.1661 21.3161C77.9704 21.1806 77.8048 20.9774 77.6693 20.7064C77.5338 20.4204 77.4661 20.1269 77.4661 19.8258C77.4661 19.4344 77.5564 19.1258 77.7371 18.9C77.9328 18.6591 78.2263 18.4559 78.6177 18.2903C79.0543 18.1247 79.5661 18.0043 80.1532 17.929C80.7554 17.8538 81.3199 17.8161 81.8468 17.8161ZM89.1391 23.6419C89.1391 22.6484 89.2896 21.7903 89.5907 21.0677C89.8918 20.3301 90.3057 19.7204 90.8326 19.2387C91.3745 18.757 91.9993 18.4032 92.7068 18.1774C93.4294 17.9366 94.2047 17.8161 95.0326 17.8161C95.3337 17.8161 95.6272 17.8462 95.9133 17.9064C96.1993 17.9516 96.4326 18.0118 96.6133 18.0871V14.429C96.7638 14.3839 97.0047 14.3387 97.3358 14.2935C97.667 14.2333 98.0057 14.2032 98.352 14.2032C98.6832 14.2032 98.9767 14.2258 99.2326 14.271C99.5036 14.3161 99.7294 14.4064 99.91 14.5419C100.091 14.6774 100.226 14.8656 100.316 15.1064C100.407 15.3323 100.452 15.6333 100.452 16.0097V26.7129C100.452 27.4204 100.121 27.9849 99.4584 28.4064C99.0219 28.6925 98.4573 28.9409 97.7649 29.1516C97.0724 29.3774 96.2745 29.4903 95.3713 29.4903C94.3928 29.4903 93.5122 29.3548 92.7294 29.0839C91.9616 28.8129 91.3068 28.4215 90.7649 27.9097C90.238 27.3978 89.8315 26.7882 89.5455 26.0806C89.2745 25.3581 89.1391 24.5452 89.1391 23.6419ZM95.552 20.8194C94.7391 20.8194 94.1143 21.0527 93.6778 21.5194C93.2412 21.986 93.0229 22.6935 93.0229 23.6419C93.0229 24.5753 93.2262 25.2828 93.6326 25.7645C94.0391 26.2312 94.6262 26.4645 95.3939 26.4645C95.6649 26.4645 95.9057 26.4269 96.1165 26.3516C96.3423 26.2613 96.5154 26.1634 96.6358 26.0581V21.0903C96.3348 20.9097 95.9735 20.8194 95.552 20.8194ZM104.56 26.329C104.395 25.9527 104.214 25.5312 104.018 25.0645C103.838 24.5978 103.642 24.0634 103.431 23.4613C103.236 22.8591 103.025 22.1742 102.799 21.4064C102.588 20.6237 102.362 19.728 102.122 18.7194C102.332 18.5086 102.611 18.328 102.957 18.1774C103.318 18.0118 103.71 17.929 104.131 17.929C104.658 17.929 105.095 18.0419 105.441 18.2677C105.787 18.4785 106.043 18.8849 106.209 19.4871L107.992 25.6968H108.083C108.263 25.1849 108.437 24.628 108.602 24.0258C108.783 23.4237 108.956 22.8064 109.122 22.1742C109.287 21.5269 109.438 20.8871 109.573 20.2548C109.724 19.6075 109.852 18.9753 109.957 18.3581C110.499 18.072 111.094 17.929 111.741 17.929C112.268 17.929 112.704 18.0419 113.051 18.2677C113.397 18.4935 113.57 18.8849 113.57 19.4419C113.57 19.8484 113.517 20.3226 113.412 20.8645C113.306 21.3914 113.163 21.9559 112.983 22.5581C112.817 23.1602 112.614 23.7849 112.373 24.4323C112.147 25.0645 111.906 25.6892 111.651 26.3064C111.395 26.9237 111.131 27.5107 110.86 28.0677C110.589 28.6097 110.326 29.0989 110.07 29.5355C109.648 30.2731 109.257 30.8753 108.896 31.3419C108.534 31.8086 108.188 32.1699 107.857 32.4258C107.526 32.6968 107.195 32.8774 106.863 32.9677C106.532 33.0731 106.186 33.1258 105.825 33.1258C105.192 33.1258 104.681 32.9376 104.289 32.5613C103.898 32.1849 103.665 31.6957 103.589 31.0935C104.071 30.7172 104.553 30.2957 105.034 29.829C105.516 29.3774 105.953 28.9107 106.344 28.429C106.088 28.3538 105.81 28.1806 105.509 27.9097C105.223 27.6237 104.906 27.0968 104.56 26.329Z" fill="url(#paint11_linear_411_2263)"/>
<path d="M53.902 52.229C53.2547 52.229 52.7428 52.0408 52.3665 51.6645C51.9901 51.2881 51.802 50.7763 51.802 50.129V38.4548C51.9676 38.4247 52.231 38.3871 52.5923 38.3419C52.9536 38.2817 53.2998 38.2516 53.631 38.2516C53.9772 38.2516 54.2783 38.2817 54.5342 38.3419C54.8052 38.3871 55.031 38.4774 55.2116 38.6129C55.3923 38.7484 55.5278 38.9365 55.6181 39.1774C55.7084 39.4182 55.7536 39.7344 55.7536 40.1258V49.0451H60.9246C61.0299 49.2107 61.1278 49.4365 61.2181 49.7225C61.3084 49.9935 61.3536 50.2795 61.3536 50.5806C61.3536 51.1828 61.2256 51.6118 60.9697 51.8677C60.7138 52.1086 60.3751 52.229 59.9536 52.229H53.902ZM67.7822 49.7225C68.0381 49.7225 68.3166 49.7 68.6177 49.6548C68.9338 49.5946 69.1671 49.5193 69.3177 49.429V47.6225L67.6919 47.758C67.2704 47.7881 66.9241 47.8785 66.6532 48.029C66.3822 48.1795 66.2467 48.4053 66.2467 48.7064C66.2467 49.0075 66.3596 49.2559 66.5854 49.4516C66.8263 49.6322 67.2252 49.7225 67.7822 49.7225ZM67.6015 40.8484C68.4144 40.8484 69.1521 40.9311 69.8144 41.0967C70.4919 41.2623 71.0639 41.5182 71.5306 41.8645C72.0123 42.1957 72.3811 42.6247 72.637 43.1516C72.8929 43.6634 73.0209 44.2731 73.0209 44.9806V50.0387C73.0209 50.4301 72.908 50.7537 72.6822 51.0096C72.4714 51.2505 72.2155 51.4613 71.9144 51.6419C70.936 52.229 69.5585 52.5225 67.7822 52.5225C66.9843 52.5225 66.2618 52.4473 65.6144 52.2967C64.9822 52.1462 64.4327 51.9204 63.9661 51.6193C63.5144 51.3182 63.1607 50.9344 62.9048 50.4677C62.6639 50.001 62.5435 49.4591 62.5435 48.8419C62.5435 47.8032 62.8521 47.0053 63.4693 46.4484C64.0865 45.8914 65.0424 45.5451 66.337 45.4096L69.2951 45.0935V44.9354C69.2951 44.4989 69.0994 44.1903 68.708 44.0096C68.3317 43.8139 67.7822 43.7161 67.0596 43.7161C66.4876 43.7161 65.9306 43.7763 65.3886 43.8967C64.8467 44.0172 64.3575 44.1677 63.9209 44.3484C63.7252 44.2129 63.5596 44.0096 63.4241 43.7387C63.2886 43.4527 63.2209 43.1591 63.2209 42.858C63.2209 42.4666 63.3112 42.158 63.4919 41.9322C63.6876 41.6914 63.9811 41.4881 64.3725 41.3225C64.8091 41.157 65.3209 41.0365 65.908 40.9613C66.5101 40.886 67.0747 40.8484 67.6015 40.8484ZM75.368 41.3451C75.5186 41.3 75.7519 41.2548 76.068 41.2096C76.3992 41.1645 76.7379 41.1419 77.0842 41.1419C77.4154 41.1419 77.7089 41.1645 77.9648 41.2096C78.2358 41.2548 78.4616 41.3451 78.6422 41.4806C78.8229 41.6161 78.9584 41.8043 79.0487 42.0451C79.1541 42.2709 79.2068 42.572 79.2068 42.9484V47.8032C79.2068 48.4204 79.3573 48.8645 79.6584 49.1354C79.9594 49.3914 80.396 49.5193 80.968 49.5193C81.3143 49.5193 81.5928 49.4892 81.8035 49.429C82.0293 49.3688 82.2025 49.3086 82.3229 49.2484V41.3451C82.4734 41.3 82.7068 41.2548 83.0229 41.2096C83.3541 41.1645 83.6928 41.1419 84.039 41.1419C84.3702 41.1419 84.6637 41.1645 84.9197 41.2096C85.1906 41.2548 85.4164 41.3451 85.5971 41.4806C85.7777 41.6161 85.9132 41.8043 86.0035 42.0451C86.1089 42.2709 86.1616 42.572 86.1616 42.9484V49.8129C86.1616 50.5656 85.8455 51.1301 85.2132 51.5064C84.6863 51.8376 84.0541 52.086 83.3164 52.2516C82.5939 52.4322 81.8035 52.5225 80.9455 52.5225C80.1326 52.5225 79.3799 52.4322 78.6874 52.2516C78.01 52.0709 77.4229 51.7924 76.9261 51.4161C76.4293 51.0397 76.0455 50.558 75.7745 49.9709C75.5035 49.3688 75.368 48.6462 75.368 47.8032V41.3451ZM95.4655 45.2064C95.4655 44.7397 95.33 44.401 95.0591 44.1903C94.8032 43.9645 94.4494 43.8516 93.9978 43.8516C93.6967 43.8516 93.3956 43.8892 93.0946 43.9645C92.8085 44.0397 92.5602 44.1527 92.3494 44.3032V52.1387C92.1989 52.1838 91.958 52.229 91.6268 52.2742C91.3107 52.3193 90.9795 52.3419 90.6333 52.3419C90.3021 52.3419 90.001 52.3193 89.73 52.2742C89.4741 52.229 89.2558 52.1387 89.0752 52.0032C88.8946 51.8677 88.7515 51.6871 88.6462 51.4613C88.5558 51.2204 88.5107 50.9118 88.5107 50.5354V43.7613C88.5107 43.3548 88.5935 43.0236 88.7591 42.7677C88.9397 42.5118 89.1806 42.2785 89.4817 42.0677C89.9935 41.7064 90.6333 41.4129 91.401 41.1871C92.1838 40.9613 93.0494 40.8484 93.9978 40.8484C95.6989 40.8484 97.0085 41.2247 97.9268 41.9774C98.8451 42.715 99.3042 43.7462 99.3042 45.0709V52.1387C99.1537 52.1838 98.9128 52.229 98.5817 52.2742C98.2655 52.3193 97.9343 52.3419 97.5881 52.3419C97.2569 52.3419 96.9558 52.3193 96.6849 52.2742C96.429 52.229 96.2107 52.1387 96.03 52.0032C95.8494 51.8677 95.7064 51.6871 95.601 51.4613C95.5107 51.2204 95.4655 50.9118 95.4655 50.5354V45.2064ZM101.201 46.6742C101.201 45.6806 101.352 44.8225 101.653 44.1C101.954 43.3623 102.368 42.7527 102.895 42.2709C103.437 41.7892 104.061 41.4354 104.769 41.2096C105.492 40.9688 106.267 40.8484 107.095 40.8484C107.396 40.8484 107.689 40.8785 107.975 40.9387C108.261 40.9838 108.495 41.0441 108.675 41.1193V37.4613C108.826 37.4161 109.067 37.3709 109.398 37.3258C109.729 37.2656 110.068 37.2354 110.414 37.2354C110.745 37.2354 111.039 37.258 111.295 37.3032C111.566 37.3484 111.792 37.4387 111.972 37.5742C112.153 37.7096 112.288 37.8978 112.379 38.1387C112.469 38.3645 112.514 38.6656 112.514 39.0419V49.7451C112.514 50.4527 112.183 51.0172 111.521 51.4387C111.084 51.7247 110.519 51.9731 109.827 52.1838C109.135 52.4096 108.337 52.5225 107.433 52.5225C106.455 52.5225 105.574 52.3871 104.792 52.1161C104.024 51.8451 103.369 51.4537 102.827 50.9419C102.3 50.4301 101.894 49.8204 101.608 49.1129C101.337 48.3903 101.201 47.5774 101.201 46.6742ZM107.614 43.8516C106.801 43.8516 106.176 44.0849 105.74 44.5516C105.303 45.0182 105.085 45.7258 105.085 46.6742C105.085 47.6075 105.288 48.315 105.695 48.7967C106.101 49.2634 106.688 49.4967 107.456 49.4967C107.727 49.4967 107.968 49.4591 108.179 49.3838C108.404 49.2935 108.578 49.1957 108.698 49.0903V44.1225C108.397 43.9419 108.036 43.8516 107.614 43.8516ZM118.745 52.1387C118.594 52.1838 118.354 52.229 118.022 52.2742C117.706 52.3193 117.375 52.3419 117.029 52.3419C116.698 52.3419 116.397 52.3193 116.126 52.2742C115.87 52.229 115.651 52.1387 115.471 52.0032C115.29 51.8677 115.147 51.6871 115.042 51.4613C114.951 51.2204 114.906 50.9118 114.906 50.5354V43.7613C114.906 43.415 114.966 43.1215 115.087 42.8806C115.222 42.6247 115.411 42.3989 115.651 42.2032C115.892 42.0075 116.186 41.8344 116.532 41.6838C116.893 41.5182 117.277 41.3752 117.684 41.2548C118.09 41.1344 118.512 41.0441 118.948 40.9838C119.385 40.9086 119.821 40.8709 120.258 40.8709C120.98 40.8709 121.552 41.0139 121.974 41.3C122.395 41.5709 122.606 42.0225 122.606 42.6548C122.606 42.8656 122.576 43.0763 122.516 43.2871C122.456 43.4828 122.38 43.6634 122.29 43.829C121.974 43.829 121.65 43.8441 121.319 43.8742C120.988 43.9043 120.664 43.9494 120.348 44.0096C120.032 44.0699 119.731 44.1376 119.445 44.2129C119.174 44.2731 118.941 44.3484 118.745 44.4387V52.1387ZM126.259 49.3613C126.093 48.9849 125.913 48.5634 125.717 48.0967C125.536 47.6301 125.341 47.0957 125.13 46.4935C124.934 45.8914 124.723 45.2064 124.498 44.4387C124.287 43.6559 124.061 42.7602 123.82 41.7516C124.031 41.5408 124.309 41.3602 124.656 41.2096C125.017 41.0441 125.408 40.9613 125.83 40.9613C126.357 40.9613 126.793 41.0742 127.139 41.3C127.486 41.5107 127.742 41.9172 127.907 42.5193L129.691 48.729H129.781C129.962 48.2172 130.135 47.6602 130.301 47.058C130.481 46.4559 130.655 45.8387 130.82 45.2064C130.986 44.5591 131.136 43.9193 131.272 43.2871C131.422 42.6397 131.55 42.0075 131.656 41.3903C132.198 41.1043 132.792 40.9613 133.439 40.9613C133.966 40.9613 134.403 41.0742 134.749 41.3C135.095 41.5258 135.268 41.9172 135.268 42.4742C135.268 42.8806 135.216 43.3548 135.11 43.8967C135.005 44.4236 134.862 44.9881 134.681 45.5903C134.516 46.1924 134.313 46.8172 134.072 47.4645C133.846 48.0967 133.605 48.7215 133.349 49.3387C133.093 49.9559 132.83 50.543 132.559 51.1C132.288 51.6419 132.024 52.1311 131.768 52.5677C131.347 53.3053 130.956 53.9075 130.594 54.3742C130.233 54.8408 129.887 55.2021 129.556 55.458C129.224 55.729 128.893 55.9096 128.562 56C128.231 56.1053 127.885 56.158 127.523 56.158C126.891 56.158 126.379 55.9699 125.988 55.5935C125.596 55.2172 125.363 54.7279 125.288 54.1258C125.77 53.7494 126.251 53.3279 126.733 52.8613C127.215 52.4096 127.651 51.943 128.043 51.4613C127.787 51.386 127.508 51.2129 127.207 50.9419C126.921 50.6559 126.605 50.129 126.259 49.3613Z" fill="#17181D"/>
<defs>
<linearGradient id="paint0_linear_411_2263" x1="16.3074" y1="21.0578" x2="16.3074" y2="56" gradientUnits="userSpaceOnUse">
<stop stop-color="#32D3A0"/>
<stop offset="1" stop-color="#039265"/>
</linearGradient>
<linearGradient id="paint1_linear_411_2263" x1="24.61" y1="12.5738" x2="24.61" y2="19.7344" gradientUnits="userSpaceOnUse">
<stop stop-color="#32D3A0"/>
<stop offset="1" stop-color="#039265"/>
</linearGradient>
<linearGradient id="paint2_linear_411_2263" x1="5.82686" y1="12.5754" x2="5.82686" y2="19.7471" gradientUnits="userSpaceOnUse">
<stop stop-color="#32D3A0"/>
<stop offset="1" stop-color="#039265"/>
</linearGradient>
<linearGradient id="paint3_linear_411_2263" x1="15.9927" y1="26.9758" x2="15.9927" y2="46.4905" gradientUnits="userSpaceOnUse">
<stop stop-color="#32D3A0"/>
<stop offset="1" stop-color="#039265"/>
</linearGradient>
<linearGradient id="paint4_linear_411_2263" x1="18.255" y1="52.6508" x2="18.255" y2="52.79" gradientUnits="userSpaceOnUse">
<stop stop-color="#32D3A0"/>
<stop offset="1" stop-color="#039265"/>
</linearGradient>
<linearGradient id="paint5_linear_411_2263" x1="39.5902" y1="0" x2="39.5902" y2="6.31227" gradientUnits="userSpaceOnUse">
<stop stop-color="#32D3A0"/>
<stop offset="1" stop-color="#039265"/>
</linearGradient>
<linearGradient id="paint6_linear_411_2263" x1="37.3937" y1="8.69284" x2="37.3937" y2="11.4469" gradientUnits="userSpaceOnUse">
<stop stop-color="#32D3A0"/>
<stop offset="1" stop-color="#039265"/>
</linearGradient>
<linearGradient id="paint7_linear_411_2263" x1="43.0094" y1="6.7175" x2="43.0094" y2="9.4716" gradientUnits="userSpaceOnUse">
<stop stop-color="#32D3A0"/>
<stop offset="1" stop-color="#039265"/>
</linearGradient>
<linearGradient id="paint8_linear_411_2263" x1="28.8927" y1="8.0029" x2="28.8927" y2="43.2934" gradientUnits="userSpaceOnUse">
<stop stop-color="#32D3A0"/>
<stop offset="1" stop-color="#039265"/>
</linearGradient>
<linearGradient id="paint9_linear_411_2263" x1="31.2064" y1="15.4419" x2="31.2064" y2="53.4738" gradientUnits="userSpaceOnUse">
<stop stop-color="#32D3A0"/>
<stop offset="1" stop-color="#039265"/>
</linearGradient>
<linearGradient id="paint10_linear_411_2263" x1="31.2148" y1="35.9553" x2="31.2148" y2="55.9115" gradientUnits="userSpaceOnUse">
<stop stop-color="#32D3A0"/>
<stop offset="1" stop-color="#039265"/>
</linearGradient>
<linearGradient id="paint11_linear_411_2263" x1="82.3342" y1="15.129" x2="82.3342" y2="29.129" gradientUnits="userSpaceOnUse">
<stop stop-color="#32D3A0"/>
<stop offset="1" stop-color="#039265"/>
</linearGradient>
</defs>
</svg>
