<?xml version="1.0" encoding="utf-8"?>
<!-- Generator: Adobe Illustrator 27.9.0, SVG Export Plug-In . SVG Version: 6.00 Build 0)  -->
<svg version="1.1" id="Layer_1" xmlns="http://www.w3.org/2000/svg" xmlns:xlink="http://www.w3.org/1999/xlink" x="0px" y="0px"
	 viewBox="0 0 84 44" style="enable-background:new 0 0 84 44;" xml:space="preserve">
<style type="text/css">
	.st0{fill:#39D8D8;}
</style>
<g>
	<path class="st0" d="M64.9,42.8c-0.1-0.2-0.2-0.4-0.3-0.7c-0.1-0.3-0.2-0.6-0.4-0.9c-0.1-0.3-0.3-0.6-0.4-1
		c-0.2-0.3-0.3-0.6-0.4-0.9c-0.1-0.3-0.3-0.6-0.4-0.8c-0.1-0.2-0.2-0.4-0.3-0.5c-0.1,0.9-0.1,1.8-0.2,2.8c-0.1,1-0.1,2-0.1,3h-1
		c0-0.7,0.1-1.3,0.1-2c0-0.7,0.1-1.3,0.1-2c0-0.6,0.1-1.3,0.2-1.9c0.1-0.6,0.1-1.2,0.2-1.7h0.9c0.2,0.3,0.4,0.7,0.6,1.1
		c0.2,0.4,0.4,0.9,0.7,1.4c0.2,0.5,0.4,0.9,0.6,1.4s0.4,0.9,0.6,1.3c0.2-0.4,0.4-0.8,0.6-1.3c0.2-0.5,0.4-0.9,0.6-1.4
		c0.2-0.5,0.4-0.9,0.7-1.4c0.2-0.4,0.4-0.8,0.6-1.1h0.9c0.2,2.4,0.4,4.9,0.6,7.5h-1c0-1-0.1-2-0.1-3c-0.1-1-0.1-1.9-0.2-2.8
		c-0.1,0.1-0.2,0.3-0.3,0.5c-0.1,0.2-0.2,0.5-0.4,0.8c-0.1,0.3-0.3,0.6-0.4,0.9c-0.2,0.3-0.3,0.7-0.4,1c-0.1,0.3-0.3,0.6-0.4,0.9
		s-0.2,0.5-0.3,0.7L64.9,42.8L64.9,42.8z"/>
	<path class="st0" d="M72.7,38.1c0.4,0,0.7,0.1,1,0.2c0.3,0.1,0.5,0.3,0.7,0.4c0.2,0.2,0.3,0.4,0.4,0.7c0.1,0.3,0.1,0.6,0.1,0.9v3.5
		c-0.1,0-0.2,0-0.4,0.1c-0.2,0-0.3,0.1-0.5,0.1c-0.2,0-0.4,0-0.6,0.1c-0.2,0-0.5,0-0.7,0c-0.3,0-0.6,0-0.9-0.1
		c-0.3-0.1-0.5-0.2-0.7-0.3c-0.2-0.1-0.3-0.3-0.5-0.6c-0.1-0.2-0.2-0.5-0.2-0.8c0-0.3,0.1-0.6,0.2-0.8c0.1-0.2,0.3-0.4,0.5-0.5
		c0.2-0.1,0.5-0.2,0.8-0.3c0.3-0.1,0.6-0.1,0.9-0.1c0.1,0,0.2,0,0.3,0c0.1,0,0.2,0,0.3,0c0.1,0,0.2,0,0.3,0.1c0.1,0,0.1,0,0.2,0
		v-0.3c0-0.2,0-0.3-0.1-0.5s-0.1-0.3-0.2-0.4c-0.1-0.1-0.2-0.2-0.4-0.3c-0.2-0.1-0.4-0.1-0.6-0.1c-0.3,0-0.6,0-0.9,0.1
		c-0.2,0-0.4,0.1-0.6,0.1l-0.1-0.8c0.1-0.1,0.3-0.1,0.6-0.2C72,38.1,72.3,38.1,72.7,38.1L72.7,38.1z M72.8,43.1c0.2,0,0.4,0,0.6,0
		c0.2,0,0.3,0,0.5-0.1v-1.7c-0.1,0-0.2-0.1-0.4-0.1c-0.2,0-0.4,0-0.6,0c-0.2,0-0.3,0-0.5,0c-0.2,0-0.3,0.1-0.5,0.1
		c-0.1,0.1-0.3,0.2-0.4,0.3s-0.1,0.3-0.1,0.5c0,0.4,0.1,0.6,0.3,0.8C72.1,43.1,72.4,43.1,72.8,43.1z"/>
	<path class="st0" d="M78.6,38.1c0.1,0,0.2,0,0.3,0c0.1,0,0.2,0,0.3,0c0.1,0,0.2,0,0.3,0.1c0.1,0,0.2,0,0.2,0.1l-0.2,0.9
		c-0.1,0-0.2-0.1-0.4-0.1C79,39,78.7,39,78.5,39c-0.2,0-0.4,0-0.6,0.1c-0.2,0-0.3,0.1-0.4,0.1v4.8h-1v-5.4c0.2-0.1,0.5-0.2,0.9-0.2
		C77.8,38.1,78.2,38.1,78.6,38.1z"/>
	<path class="st0" d="M81.7,38.2h2.1v0.8h-2.1v2.6c0,0.3,0,0.5,0.1,0.7c0,0.2,0.1,0.3,0.2,0.4c0.1,0.1,0.2,0.2,0.3,0.2
		c0.1,0,0.3,0.1,0.5,0.1c0.3,0,0.5,0,0.7-0.1c0.2-0.1,0.3-0.1,0.4-0.1l0.2,0.8c-0.1,0.1-0.3,0.1-0.5,0.2C83.2,44,82.9,44,82.6,44
		c-0.4,0-0.7-0.1-0.9-0.1c-0.2-0.1-0.4-0.2-0.6-0.4c-0.2-0.2-0.3-0.4-0.3-0.7c-0.1-0.3-0.1-0.6-0.1-1v-5.1l1-0.2L81.7,38.2
		L81.7,38.2z"/>
	<path class="st0" d="M9.8,43.9H6.6v-17H1.6c-0.7,0-1.3-0.5-1.5-1.1c-0.2-0.7,0.1-1.4,0.7-1.8l16.7-10.8l1.7,2.7L6.9,23.7h1.3
		c0.9,0,1.6,0.7,1.6,1.6V43.9z"/>
	<path class="st0" d="M23.2,11.1V9.4c1.9-0.7,3.2-2.4,3.2-4.6c0-2.7-2.1-4.8-4.8-4.8s-4.8,2.2-4.8,4.8c0,0.9,0.7,1.6,1.6,1.6
		c0.9,0,1.6-0.7,1.6-1.6c0-0.9,0.7-1.7,1.7-1.7s1.7,0.7,1.7,1.7s-0.7,1.7-1.7,1.7s-1.6,0.7-1.6,1.6V12c0,0.5,0.3,1,0.7,1.3l8,5.3
		h5.7L23.2,11.1L23.2,11.1z"/>
	<g>
		<path d="M23.3,30.1l-0.6,2.4h-8.4l3-12.5h2.8l-2.4,10.1H23.3z"/>
		<path d="M33,28.4c-0.2,0.7-0.2,1.4-0.1,2.1c0.1,0.7,0.2,1.3,0.4,1.9l-2.4,0.3c-0.1-0.1-0.1-0.3-0.2-0.4c-0.1-0.1-0.1-0.3-0.2-0.5
			c-0.3,0.3-0.7,0.5-1.1,0.7c-0.4,0.2-0.9,0.3-1.4,0.3c-0.6,0-1.1-0.1-1.5-0.3c-0.4-0.2-0.8-0.5-1-0.8c-0.3-0.4-0.5-0.8-0.6-1.2
			c-0.1-0.5-0.2-1-0.2-1.5c0-0.8,0.1-1.6,0.4-2.4c0.3-0.7,0.7-1.4,1.2-1.9c0.5-0.5,1.1-1,1.9-1.3c0.7-0.3,1.5-0.5,2.3-0.5
			c0.1,0,0.3,0,0.6,0c0.3,0,0.6,0,0.9,0.1c0.3,0,0.7,0.1,1.1,0.2c0.4,0.1,0.8,0.2,1.1,0.4L33,28.4z M31.1,25.1c-0.2,0-0.3,0-0.4-0.1
			c-0.1,0-0.3,0-0.5,0c-0.4,0-0.8,0.1-1.1,0.3c-0.4,0.2-0.7,0.5-0.9,0.8c-0.3,0.3-0.5,0.7-0.6,1.1c-0.2,0.4-0.2,0.9-0.2,1.4
			c0,0.6,0.1,1,0.3,1.4c0.2,0.3,0.5,0.5,1.1,0.5c0.3,0,0.5-0.1,0.8-0.2c0.2-0.1,0.5-0.3,0.7-0.5c0-0.3,0.1-0.6,0.1-0.9
			c0.1-0.3,0.1-0.6,0.2-0.9L31.1,25.1z"/>
		<path d="M44.7,23l-1.3,5.4c-0.2,0.7-0.2,1.4-0.1,2.1c0.1,0.7,0.2,1.3,0.4,1.9l-2.4,0.3c-0.1-0.3-0.3-0.6-0.4-0.9
			c-0.3,0.3-0.7,0.5-1.1,0.7s-0.9,0.3-1.4,0.3c-0.7,0-1.3-0.1-1.7-0.4c-0.4-0.3-0.8-0.6-1-1c-0.2-0.4-0.3-0.9-0.4-1.5
			c0-0.6,0-1.1,0.2-1.7l1.2-5.1h2.7l-1.2,5.1c-0.1,0.3-0.1,0.5-0.2,0.8c0,0.3,0,0.5,0,0.8c0,0.2,0.1,0.4,0.3,0.6
			c0.2,0.2,0.4,0.2,0.7,0.2c0.3,0,0.5-0.1,0.8-0.2s0.5-0.3,0.8-0.5c0-0.3,0.1-0.6,0.1-0.9c0.1-0.3,0.1-0.6,0.2-0.9L42,23H44.7z"/>
		<path d="M47.4,23.4c0.2-0.1,0.4-0.1,0.7-0.2c0.2-0.1,0.5-0.2,0.8-0.2c0.3-0.1,0.7-0.1,1-0.2c0.4,0,0.8-0.1,1.3-0.1
			c1.4,0,2.4,0.4,2.9,1.2c0.5,0.8,0.6,1.9,0.3,3.4l-1.2,5.1h-2.7l1.2-5c0.1-0.3,0.1-0.6,0.2-0.9c0-0.3,0-0.6,0-0.8
			c0-0.2-0.2-0.4-0.3-0.5c-0.2-0.1-0.4-0.2-0.8-0.2c-0.4,0-0.7,0-1.1,0.1l-1.8,7.4h-2.7L47.4,23.4z"/>
		<path d="M59.4,32.7c-0.6,0-1.1-0.1-1.5-0.3c-0.4-0.2-0.8-0.5-1-0.8c-0.3-0.4-0.5-0.8-0.6-1.2c-0.1-0.5-0.2-1-0.2-1.5
			c0-0.8,0.1-1.6,0.4-2.3c0.3-0.7,0.7-1.4,1.2-1.9c0.5-0.5,1.1-1,1.8-1.3s1.5-0.5,2.3-0.5c0.2,0,0.4,0,0.6,0c0.2,0,0.4,0.1,0.6,0.1
			l1-4.1l2.8-0.4l-2.4,9.9c-0.2,0.7-0.2,1.4-0.1,2.1c0.1,0.7,0.2,1.3,0.4,1.9l-2.4,0.3c-0.1-0.1-0.1-0.3-0.2-0.4
			c-0.1-0.1-0.1-0.3-0.2-0.5c-0.3,0.3-0.7,0.5-1.1,0.7C60.4,32.6,59.9,32.7,59.4,32.7z M62.5,25.1c-0.1,0-0.1,0-0.2,0
			c-0.1,0-0.1,0-0.2,0c-0.1,0-0.1,0-0.2,0c-0.1,0-0.2,0-0.3,0c-0.4,0-0.8,0.1-1.2,0.3c-0.4,0.2-0.7,0.5-0.9,0.8
			c-0.3,0.3-0.5,0.7-0.6,1.1s-0.2,0.9-0.2,1.3c0,0.6,0.1,1,0.3,1.4c0.2,0.3,0.6,0.5,1.1,0.5c0.3,0,0.5-0.1,0.8-0.2
			c0.2-0.1,0.5-0.3,0.7-0.5c0-0.3,0.1-0.6,0.1-0.9c0.1-0.3,0.1-0.6,0.2-0.9L62.5,25.1z"/>
		<path d="M73.4,25.3c-0.2-0.1-0.5-0.1-0.7-0.2c-0.2-0.1-0.6-0.1-1-0.1c-0.2,0-0.4,0-0.6,0c-0.2,0-0.4,0.1-0.5,0.1l-1.8,7.3h-2.7
			l2.2-9c0.5-0.2,1.1-0.3,1.7-0.5c0.6-0.2,1.4-0.2,2.2-0.2c0.3,0,0.6,0,1,0.1c0.4,0.1,0.7,0.1,1,0.3L73.4,25.3z"/>
		<path d="M84,23c-0.3,0.9-0.7,1.8-1,2.6c-0.3,0.8-0.7,1.6-1.1,2.3s-0.8,1.4-1.2,2.1c-0.4,0.7-0.8,1.3-1.3,1.9
			c-0.3,0.5-0.7,0.9-1,1.4c-0.3,0.5-0.7,0.9-1.2,1.3c-0.4,0.4-0.9,0.7-1.4,0.9c-0.5,0.2-1.1,0.4-1.8,0.4c-0.4,0-0.8,0-1.1-0.1
			c-0.3-0.1-0.6-0.2-0.8-0.3l0.8-2.1c0.2,0.1,0.5,0.2,0.7,0.2c0.2,0.1,0.4,0.1,0.7,0.1c0.4,0,0.8-0.1,1.2-0.4s0.7-0.6,0.9-1.1
			c-0.3-1.2-0.6-2.6-0.9-4c-0.3-1.5-0.4-3.2-0.5-5.1h2.8c0,0.5,0,1,0.1,1.6c0,0.6,0.1,1.1,0.1,1.7c0,0.6,0.1,1.1,0.2,1.7
			c0.1,0.5,0.1,1,0.2,1.5c0.6-0.9,1.1-1.8,1.5-2.9c0.4-1.1,0.9-2.2,1.2-3.5H84z"/>
	</g>
</g>
</svg>
