<svg width="34" height="34" viewBox="0 0 34 34" fill="none" xmlns="http://www.w3.org/2000/svg">
<path d="M16.603 15.7974C17.8788 16.1357 20.6548 16.8716 21.1387 14.9419C21.6323 12.9676 18.9353 12.3713 17.6148 12.0794C17.4651 12.0463 17.3331 12.0171 17.2255 11.9903L16.2928 15.7168C16.3816 15.7387 16.486 15.7664 16.603 15.7974Z" fill="#F7931A"/>
<path d="M15.1576 21.7973C16.6856 22.1998 20.0274 23.08 20.5592 20.9537C21.1034 18.7795 17.8631 18.0553 16.2822 17.702C16.1056 17.6625 15.9497 17.6277 15.8222 17.596L14.7935 21.703C14.898 21.7289 15.0205 21.7612 15.1576 21.7973Z" fill="#F7931A"/>
<path fill-rule="evenodd" clip-rule="evenodd" d="M34 17C34 26.3888 26.3888 34 17 34C7.61116 34 0 26.3888 0 17C0 7.61116 7.61116 0 17 0C26.3888 0 34 7.61116 34 17ZM21.0842 10.6839C23.449 11.496 25.1788 12.7119 24.8394 14.9748C24.5929 16.6319 23.6709 17.4333 22.4459 17.7139C24.1266 18.5855 24.6994 20.2396 24.1671 22.2397C23.1566 25.1181 20.7545 25.3604 17.5595 24.7588L16.7837 27.8529L14.9108 27.3874L15.676 24.3347C15.1904 24.2146 14.6942 24.086 14.1831 23.9489L13.4147 27.0164L11.544 26.5509L12.3188 23.4504L8.54647 22.5023L9.47701 20.3659C9.47701 20.3659 10.8579 20.7304 10.8387 20.7039C11.369 20.8346 11.6049 20.4902 11.6977 20.2617L13.8 11.8637C13.8234 11.4673 13.6858 10.9677 12.927 10.7785C12.9559 10.7583 11.5665 10.4416 11.5665 10.4416L12.0648 8.44863L15.8424 9.38079L16.6108 6.31539L18.4825 6.78094L17.7302 9.78575C18.2339 9.89948 18.7397 10.0153 19.2317 10.1376L19.9786 7.15189L21.8515 7.61744L21.0842 10.6839Z" fill="#F7931A"/>
</svg>
