<svg width="80" height="33" viewBox="0 0 80 33" fill="none" xmlns="http://www.w3.org/2000/svg">
<path d="M55.2383 6.51294C54.4862 6.50864 53.7407 6.65109 53.0445 6.93211C52.3483 7.21314 51.7151 7.62721 51.1811 8.15059L50.9145 6.85176H46.3621V31.1718L51.543 30.0612V24.1694C52.5735 25.0222 53.8752 25.4888 55.2192 25.4871C58.9145 25.4871 62.305 22.4941 62.305 15.8682C62.305 9.80706 58.8764 6.51294 55.2383 6.51294ZM54.0002 20.8753C53.5458 20.9012 53.0912 20.8268 52.6695 20.6575C52.2478 20.4882 51.8695 20.2282 51.5621 19.8965V12.16C51.8708 11.8161 52.2533 11.5447 52.6817 11.3656C53.1101 11.1865 53.5736 11.1042 54.0383 11.1247C55.9431 11.1247 57.2383 13.2518 57.2383 15.9812C57.2383 18.7106 55.924 20.8753 54.0002 20.8753Z" fill="#635BFF"/>
<path d="M71.8669 6.51294C66.8764 6.51294 63.8478 10.7671 63.8478 16.1318C63.8478 22.4753 67.4288 25.6941 72.5335 25.6941C74.5258 25.7262 76.4932 25.2531 78.2478 24.32V20.0847C76.6544 20.8792 74.8896 21.2797 73.105 21.2518C71.0478 21.2518 69.2955 20.5176 69.0288 18.0518H79.2764C79.2764 17.7694 79.2764 16.6588 79.2764 16.1694C79.4478 10.7671 76.8573 6.51294 71.8669 6.51294ZM69.0669 14.1741C69.0669 11.8024 70.5335 10.8047 71.8288 10.8047C73.124 10.8047 74.4954 11.8024 74.4954 14.1741H69.0669Z" fill="#635BFF"/>
<path d="M32.3812 8.26353L32.0573 6.72H27.6383V24.9976H32.7431V12.6118C33.2041 12.0586 33.825 11.6577 34.5227 11.4626C35.2205 11.2675 35.9619 11.2875 36.6478 11.52V6.72C35.8685 6.41831 35.0045 6.40873 34.2186 6.69305C33.4327 6.97737 32.7792 7.53595 32.3812 8.26353Z" fill="#635BFF"/>
<path d="M6.59063 12.2165C6.59063 11.3882 7.27635 11.0682 8.36206 11.0682C10.1614 11.1065 11.9252 11.5713 13.5049 12.4235V7.47294C11.8716 6.82032 10.1237 6.49404 8.36206 6.51294C4.15254 6.51294 1.35254 8.73412 1.35254 12.4612C1.35254 18.2965 9.23825 17.3553 9.23825 19.8588C9.23825 20.8377 8.40016 21.1576 7.33349 21.1576C5.32104 21.0414 3.36406 20.4612 1.6192 19.4635V24.5271C3.41756 25.3197 5.36437 25.7302 7.33349 25.7318C11.6383 25.7318 14.6097 23.5671 14.6097 19.7835C14.5144 13.4588 6.59063 14.5882 6.59063 12.2165Z" fill="#635BFF"/>
<path d="M21.4859 2.39058L16.4383 3.48235V20.2918C16.4122 21.0002 16.5327 21.7064 16.7922 22.3672C17.0517 23.0281 17.4448 23.6297 17.9475 24.1353C18.4503 24.6409 19.052 25.04 19.7161 25.308C20.3801 25.576 21.0925 25.7074 21.8097 25.6941C23.0611 25.7494 24.3078 25.5107 25.4478 24.9976V20.7624C24.7811 21.0447 21.524 22.0047 21.524 18.88V11.3506H25.4478V6.94588H21.524L21.4859 2.39058Z" fill="#635BFF"/>
<path d="M38.5716 5.13882L43.7716 4.06588V0L38.5716 1.07294V5.13882Z" fill="#635BFF"/>
<path d="M43.7716 6.85177H38.5716V24.9977H43.7716V6.85177Z" fill="#635BFF"/>
</svg>
