<svg width="26" height="30" viewBox="0 0 26 30" fill="none" xmlns="http://www.w3.org/2000/svg">
<path fill-rule="evenodd" clip-rule="evenodd" d="M22.8211 7.62207C22.7936 7.80001 22.7617 7.98185 22.7262 8.1687C21.5015 14.4826 17.3111 16.6638 11.9596 16.6638H9.23468C8.58015 16.6638 8.02852 17.1408 7.92674 17.7891L6.1365 29.1908C6.07021 29.6166 6.39692 30 6.82458 30H11.6575C12.2297 30 12.7159 29.5826 12.806 29.016L12.8534 28.7695L13.7634 22.9716L13.8219 22.6536C13.9109 22.085 14.3982 21.6673 14.9704 21.6673H15.6931C20.3755 21.6673 24.0411 19.7587 25.1125 14.235C25.5598 11.9277 25.3282 10.001 24.144 8.64598C23.7857 8.23748 23.3411 7.89831 22.8211 7.62207Z" fill="#298FC2"/>
<path fill-rule="evenodd" clip-rule="evenodd" d="M21.5391 7.10921C21.3519 7.05436 21.1588 7.00479 20.9608 6.95996C20.7617 6.91624 20.5578 6.87753 20.3479 6.84356C19.6132 6.72438 18.8081 6.66785 17.9458 6.66785H10.6665C10.487 6.66785 10.3167 6.7085 10.1645 6.78202C9.82862 6.94408 9.57929 7.2632 9.51883 7.65389L7.97016 17.5021L7.92578 17.7892C8.02757 17.1409 8.5792 16.6639 9.23372 16.6639H11.9586C17.3102 16.6639 21.5005 14.4816 22.7253 8.16877C22.7619 7.98192 22.7927 7.80008 22.8201 7.62215C22.5103 7.45702 22.1747 7.31583 21.8134 7.19554C21.7241 7.16574 21.632 7.13706 21.5391 7.10921Z" fill="#22284F"/>
<path fill-rule="evenodd" clip-rule="evenodd" d="M9.51909 7.65388C9.57955 7.26319 9.82888 6.94407 10.1647 6.78312C10.3181 6.70933 10.4873 6.66867 10.6667 6.66867H17.9461C18.8083 6.66867 19.6135 6.72548 20.3481 6.84466C20.5581 6.87836 20.7619 6.91734 20.9611 6.96106C21.1591 7.00561 21.3521 7.05546 21.5393 7.11004C21.6322 7.13789 21.7243 7.16685 21.8144 7.19553C22.1758 7.31582 22.5117 7.45812 22.8215 7.62214C23.1859 5.28888 22.8184 3.70024 21.5621 2.26169C20.1768 0.677783 17.6768 0 14.4777 0H5.19007C4.53666 0 3.9792 0.47701 3.87825 1.12639L0.00990002 25.7463C-0.0663688 26.2333 0.307764 26.6727 0.796994 26.6727H6.53074L9.51909 7.65388Z" fill="#28356A"/>
</svg>
