<svg width="48" height="30" viewBox="0 0 48 30" fill="none" xmlns="http://www.w3.org/2000/svg">
<g clip-path="url(#clip0_128_1353)">
<path d="M47.5001 15C47.5001 23.2917 40.9357 30 32.822 30C29.3971 30 26.2576 28.7917 23.7705 26.7917C27.1954 24.0417 29.3563 19.7917 29.3563 15C29.3563 10.2083 27.1546 5.95834 23.7705 3.20834C26.2576 1.20834 29.3971 0 32.822 0C40.9357 0 47.5001 6.75 47.5001 15Z" fill="#F79E1B"/>
<path d="M23.7702 3.20837C23.7702 3.20838 23.7702 3.20837 23.7702 3.20837C27.1543 5.95837 29.356 10.2084 29.356 15C29.356 19.7917 27.1951 24.0417 23.7702 26.7917L23.7293 26.7917C20.3452 24.0834 18.1436 19.7917 18.1436 15.0001C18.1436 10.2085 20.3453 5.95847 23.7294 3.20847C23.7293 3.20844 23.7294 3.2085 23.7294 3.20847L23.7702 3.20837Z" fill="#FF5F00"/>
<path d="M18.1438 15.0001C18.1438 10.2085 20.3455 5.95846 23.7296 3.20846C21.2425 1.20846 18.103 0.00012207 14.6781 0.00012207C6.56438 0.00012207 0 6.70845 0 15.0001C0 23.2918 6.56438 30.0001 14.6781 30.0001C18.103 30.0001 21.2425 28.7918 23.7296 26.7918C20.3455 24.0835 18.1438 19.7918 18.1438 15.0001Z" fill="#EB001B"/>
</g>
<defs>
<clipPath id="clip0_128_1353">
<rect width="47.5" height="30" fill="white"/>
</clipPath>
</defs>
</svg>
