<svg width="81" height="26" viewBox="0 0 81 26" fill="none" xmlns="http://www.w3.org/2000/svg">
<g clip-path="url(#clip0_128_1365)">
<path d="M58.2804 1.07153C56.9995 0.562278 54.9678 0 52.4557 0C46.0426 0 41.5266 3.42705 41.4989 8.3267C41.4456 11.9416 44.7322 13.9495 47.1904 15.1548C49.7028 16.3865 50.5569 17.1904 50.5569 18.2883C50.5313 19.9744 48.5267 20.7516 46.657 20.7516C44.0642 20.7516 42.675 20.3509 40.5638 19.4128L39.7087 19.0107L38.7999 24.6605C40.3231 25.3559 43.1292 25.973 46.0426 26C52.8566 26 57.2928 22.626 57.3454 17.4046C57.3713 14.5395 55.6358 12.3441 51.8943 10.5502C49.6229 9.39858 48.2319 8.62207 48.2319 7.44378C48.2586 6.3726 49.4084 5.27545 51.9724 5.27545C54.0836 5.22171 55.6348 5.73025 56.8098 6.23915L57.3972 6.50641L58.2804 1.07153Z" fill="url(#paint0_linear_128_1365)"/>
<path d="M34.7388 25.6249H28.2447L32.3066 0.456227H38.8003L34.7388 25.6249Z" fill="url(#paint1_linear_128_1365)"/>
<path fill-rule="evenodd" clip-rule="evenodd" d="M74.9276 0.456227H69.9044C68.3554 0.456227 67.1786 0.911031 66.5102 2.54448L56.8641 25.6246H63.6782C63.6782 25.6246 64.8 22.5181 65.0411 21.8491H73.3789C73.5653 22.7327 74.1538 25.6246 74.1538 25.6246H80.1666L74.9276 0.456227ZM66.9115 16.7085C67.4463 15.2626 69.5042 9.66655 69.5042 9.66655C69.4934 9.68809 69.5771 9.45559 69.7019 9.1089L69.7034 9.10466L69.7044 9.10187C69.8908 8.58402 70.1675 7.81536 70.3586 7.25694L70.8125 9.42562C70.8125 9.42562 72.0423 15.4502 72.3093 16.7085H66.9115Z" fill="url(#paint2_linear_128_1365)"/>
<path d="M22.8207 0.456227L16.4608 17.6189L15.7659 14.1381L15.7652 14.1359L13.4945 2.57189C13.1206 0.964412 11.9714 0.509252 10.5552 0.456227H0.10689L0 0.964768C2.5483 1.6178 4.82753 2.55882 6.8246 3.72885L12.6128 25.5982H19.4801L29.6876 0.456227H22.8207Z" fill="url(#paint3_linear_128_1365)"/>
</g>
<defs>
<linearGradient id="paint0_linear_128_1365" x1="-5.15357e-08" y1="13.0547" x2="80.1667" y2="13.0547" gradientUnits="userSpaceOnUse">
<stop stop-color="#222357"/>
<stop offset="1" stop-color="#254AA5"/>
</linearGradient>
<linearGradient id="paint1_linear_128_1365" x1="-5.15357e-08" y1="13.0547" x2="80.1667" y2="13.0547" gradientUnits="userSpaceOnUse">
<stop stop-color="#222357"/>
<stop offset="1" stop-color="#254AA5"/>
</linearGradient>
<linearGradient id="paint2_linear_128_1365" x1="-5.15357e-08" y1="13.0547" x2="80.1667" y2="13.0547" gradientUnits="userSpaceOnUse">
<stop stop-color="#222357"/>
<stop offset="1" stop-color="#254AA5"/>
</linearGradient>
<linearGradient id="paint3_linear_128_1365" x1="-5.15357e-08" y1="13.0547" x2="80.1667" y2="13.0547" gradientUnits="userSpaceOnUse">
<stop stop-color="#222357"/>
<stop offset="1" stop-color="#254AA5"/>
</linearGradient>
<clipPath id="clip0_128_1365">
<rect width="80.1667" height="26" fill="white"/>
</clipPath>
</defs>
</svg>
