<?xml version="1.0" encoding="UTF-8"?>
<svg xmlns="http://www.w3.org/2000/svg" xmlns:xlink="http://www.w3.org/1999/xlink" viewBox="0 0 2000 1686.43">
  <defs>
    <style>
      .cls-1 {
        fill: #fff8ed;
      }

      .cls-2 {
        fill: #231f20;
        opacity: .3;
      }

      .cls-3 {
        fill: url(#linear-gradient-15);
      }

      .cls-4 {
        fill: url(#linear-gradient-13);
      }

      .cls-5 {
        fill: url(#linear-gradient-28);
      }

      .cls-6 {
        fill: #73345f;
      }

      .cls-7 {
        fill: #8b99ca;
      }

      .cls-8 {
        fill: url(#_åðíî-áåëûé);
      }

      .cls-8, .cls-9, .cls-10 {
        mix-blend-mode: color-burn;
      }

      .cls-11, .cls-12 {
        fill: #5acaff;
      }

      .cls-13 {
        fill: url(#linear-gradient-2);
      }

      .cls-14 {
        mask: url(#mask-1);
      }

      .cls-15 {
        fill: url(#linear-gradient-25);
      }

      .cls-16 {
        fill: url(#linear-gradient-10);
      }

      .cls-17 {
        fill: url(#linear-gradient-12);
      }

      .cls-18 {
        fill: url(#linear-gradient-27);
      }

      .cls-19 {
        fill: #d38753;
      }

      .cls-20 {
        fill: #b3b3bc;
      }

      .cls-21, .cls-22, .cls-23 {
        fill: #fff;
      }

      .cls-24 {
        fill: url(#linear-gradient-16);
        mix-blend-mode: multiply;
      }

      .cls-25 {
        mask: url(#mask);
      }

      .cls-22 {
        opacity: .08;
      }

      .cls-26 {
        fill: #cbd5ef;
      }

      .cls-27 {
        fill: #fbf393;
      }

      .cls-28 {
        fill: #0372ce;
      }

      .cls-9 {
        fill: url(#_åðíî-áåëûé-2);
      }

      .cls-29 {
        fill: url(#linear-gradient-26);
      }

      .cls-30 {
        fill: #e3e2e8;
      }

      .cls-31 {
        fill: url(#linear-gradient-4);
      }

      .cls-32 {
        fill: #065172;
      }

      .cls-33 {
        fill: #096c50;
      }

      .cls-34 {
        fill: #4f4f70;
      }

      .cls-35 {
        fill: #49476c;
      }

      .cls-36 {
        fill: #f48e8e;
      }

      .cls-23 {
        stroke: #b2b2b2;
        stroke-miterlimit: 10;
        stroke-width: .33px;
      }

      .cls-37 {
        fill: #3c3c51;
      }

      .cls-38 {
        fill: url(#linear-gradient-3);
      }

      .cls-39 {
        fill: #f2f2f2;
      }

      .cls-40 {
        fill: #f7f081;
      }

      .cls-41 {
        fill: url(#linear-gradient-5);
      }

      .cls-42 {
        fill: url(#linear-gradient-22);
      }

      .cls-43 {
        fill: url(#linear-gradient-24);
      }

      .cls-44 {
        isolation: isolate;
      }

      .cls-45 {
        fill: #bebee2;
      }

      .cls-46 {
        fill: #2bb99b;
      }

      .cls-12 {
        opacity: .5;
      }

      .cls-47, .cls-48 {
        fill: #667da7;
      }

      .cls-49 {
        fill: #9d79b5;
      }

      .cls-50 {
        fill: url(#linear-gradient-8);
      }

      .cls-51 {
        fill: #feb48c;
      }

      .cls-52 {
        fill: url(#linear-gradient-14);
      }

      .cls-53 {
        fill: url(#linear-gradient-29);
      }

      .cls-54 {
        fill: url(#linear-gradient-20);
      }

      .cls-55 {
        fill: url(#linear-gradient-17);
      }

      .cls-56 {
        fill: url(#linear-gradient-7);
      }

      .cls-57 {
        fill: #efefef;
      }

      .cls-58 {
        fill: #f9c5af;
      }

      .cls-59 {
        fill: url(#linear-gradient-9);
      }

      .cls-60 {
        fill: url(#linear-gradient-11);
      }

      .cls-61 {
        fill: #27244f;
      }

      .cls-62 {
        fill: url(#linear-gradient-19);
      }

      .cls-63 {
        fill: url(#linear-gradient-6);
      }

      .cls-64 {
        fill: #545477;
      }

      .cls-65 {
        fill: #54547a;
      }

      .cls-66 {
        fill: #37365e;
      }

      .cls-67 {
        fill: url(#linear-gradient-21);
      }

      .cls-68 {
        fill: #c7cbe2;
      }

      .cls-69 {
        fill: #1d9bc2;
      }

      .cls-70 {
        fill: #e2a36a;
      }

      .cls-71 {
        fill: #29478c;
      }

      .cls-72 {
        fill: #9292c6;
      }

      .cls-48 {
        opacity: .4;
      }

      .cls-73 {
        fill: url(#linear-gradient);
      }

      .cls-74 {
        fill: url(#linear-gradient-23);
      }

      .cls-75 {
        fill: url(#linear-gradient-18);
      }

      .cls-76 {
        filter: url(#luminosity-noclip);
      }

      .cls-10 {
        opacity: .15;
      }
    </style>
    <linearGradient id="linear-gradient" x1="534.38" y1="1289.49" x2="700.45" y2="1289.49" gradientUnits="userSpaceOnUse">
      <stop offset="0" stop-color="#fafaf8"/>
      <stop offset=".98" stop-color="#d7d4cf"/>
    </linearGradient>
    <linearGradient id="linear-gradient-2" x1="1612.73" x2="1778.8" xlink:href="#linear-gradient"/>
    <linearGradient id="linear-gradient-3" x1="534.38" y1="966.36" x2="1778.8" y2="966.36" xlink:href="#linear-gradient"/>
    <linearGradient id="linear-gradient-4" x1="166.52" y1="1306.35" x2="390.84" y2="1306.35" gradientUnits="userSpaceOnUse">
      <stop offset="0" stop-color="#29aae1"/>
      <stop offset="1" stop-color="#5000ff"/>
    </linearGradient>
    <linearGradient id="linear-gradient-5" x1="203.15" y1="1394.3" x2="390.84" y2="1394.3" xlink:href="#linear-gradient-4"/>
    <linearGradient id="linear-gradient-6" x1="357.26" y1="1348.75" x2="544.19" y2="1348.75" xlink:href="#linear-gradient-4"/>
    <linearGradient id="linear-gradient-7" x1="357.26" y1="1381.29" x2="437.94" y2="1381.29" xlink:href="#linear-gradient-4"/>
    <linearGradient id="linear-gradient-8" x1="1621.73" y1="517.27" x2="1833.48" y2="517.27" xlink:href="#linear-gradient-4"/>
    <linearGradient id="linear-gradient-9" x1="372.71" y1="671.65" x2="574.81" y2="671.65" xlink:href="#linear-gradient-4"/>
    <linearGradient id="linear-gradient-10" x1="1210.17" y1="150.22" x2="1400.42" y2="150.22" xlink:href="#linear-gradient-4"/>
    <linearGradient id="linear-gradient-11" x1="823.46" y1="287.31" x2="1011.65" y2="287.31" xlink:href="#linear-gradient-4"/>
    <linearGradient id="linear-gradient-12" x1="399.24" y1="350.77" x2="575.97" y2="350.77" xlink:href="#linear-gradient-4"/>
    <linearGradient id="linear-gradient-13" x1="1114.66" y1="859.15" x2="1557.58" y2="859.15" xlink:href="#linear-gradient-4"/>
    <linearGradient id="_åðíî-áåëûé" data-name="×åðíî-áåëûé" x1="1198.48" y1="1930.2" x2="1263.83" y2="-1170.2" gradientUnits="userSpaceOnUse">
      <stop offset="0" stop-color="#fff"/>
      <stop offset="1" stop-color="#000"/>
    </linearGradient>
    <linearGradient id="_åðíî-áåëûé-2" data-name="×åðíî-áåëûé" x1="1439.94" y1="1921.4" x2="1503.26" y2="-1082.77" xlink:href="#_åðíî-áåëûé"/>
    <linearGradient id="linear-gradient-14" x1="1578.21" y1="753.06" x2="1582.27" y2="919.22" gradientTransform="translate(2289.1) rotate(-180) scale(1 -1)" gradientUnits="userSpaceOnUse">
      <stop offset="0" stop-color="#ffd6a9"/>
      <stop offset="1" stop-color="#e2973d"/>
    </linearGradient>
    <linearGradient id="linear-gradient-15" x1="1632.72" y1="326.84" x2="1704.61" y2="326.84" gradientUnits="userSpaceOnUse">
      <stop offset="0" stop-color="#3060ab"/>
      <stop offset="1" stop-color="#0c5c93"/>
    </linearGradient>
    <filter id="luminosity-noclip" x="1588.73" y="112.76" width="159.86" height="202.03" color-interpolation-filters="sRGB" filterUnits="userSpaceOnUse">
      <feFlood flood-color="#fff" result="bg"/>
      <feBlend in="SourceGraphic" in2="bg"/>
    </filter>
    <filter id="luminosity-noclip-2" x="1588.73" y="-9030.27" width="159.86" height="32766" color-interpolation-filters="sRGB" filterUnits="userSpaceOnUse">
      <feFlood flood-color="#fff" result="bg"/>
      <feBlend in="SourceGraphic" in2="bg"/>
    </filter>
    <mask id="mask-1" x="1588.73" y="-9030.27" width="159.86" height="32766" maskUnits="userSpaceOnUse"/>
    <linearGradient id="linear-gradient-16" x1="1588.73" y1="213.78" x2="1748.59" y2="213.78" gradientUnits="userSpaceOnUse">
      <stop offset="0" stop-color="#fff"/>
      <stop offset="1" stop-color="#333"/>
    </linearGradient>
    <mask id="mask" x="1588.73" y="112.76" width="159.86" height="202.03" maskUnits="userSpaceOnUse">
      <g class="cls-76">
        <g class="cls-14">
          <path class="cls-24" d="M1744.12,220.92h.09l-.34.77c-1.62,4.52-3.58,8.83-5.93,12.93l-33.23,72.4s-.04.04-.09.09c-.94.77-9.26,6.87-33.28,7.64-25.64.81-38.1-8.53-38.1-8.53l-.47-.98-35.88-77.14h.09c-5.21-10.8-8.23-22.83-8.23-35.58,0-44.58,35.8-80.29,79.95-79.74,44.11.56,79.91,37.16,79.91,81.79,0,9.26-1.62,18.13-4.48,26.37Z"/>
        </g>
      </g>
    </mask>
    <linearGradient id="linear-gradient-17" x1="1588.73" y1="213.78" x2="1748.59" y2="213.78" gradientUnits="userSpaceOnUse">
      <stop offset="0" stop-color="#f87d0b"/>
      <stop offset="1" stop-color="#e85656"/>
    </linearGradient>
    <linearGradient id="linear-gradient-18" x1="1774.38" y1="236.53" x2="1815.63" y2="236.53" gradientUnits="userSpaceOnUse">
      <stop offset="0" stop-color="#ea3f85"/>
      <stop offset="1" stop-color="#ff9494"/>
    </linearGradient>
    <linearGradient id="linear-gradient-19" x1="1781.59" y1="169.33" x2="1821.55" y2="169.33" gradientTransform="translate(50.94 -288.52) rotate(9.29)" xlink:href="#linear-gradient-18"/>
    <linearGradient id="linear-gradient-20" x1="1765.14" y1="109.02" x2="1800.62" y2="109.02" xlink:href="#linear-gradient-18"/>
    <linearGradient id="linear-gradient-21" x1="1731.69" y1="69.81" x2="1750.81" y2="69.81" xlink:href="#linear-gradient-18"/>
    <linearGradient id="linear-gradient-22" x1="1666.36" y1="58.93" x2="1671.03" y2="58.93" xlink:href="#linear-gradient-18"/>
    <linearGradient id="linear-gradient-23" x1="11324.75" x2="11366" gradientTransform="translate(12887.72) rotate(-180) scale(1 -1)" xlink:href="#linear-gradient-18"/>
    <linearGradient id="linear-gradient-24" x1="11331.96" y1="169.33" x2="11371.92" y2="169.33" gradientTransform="translate(3535.25 11345.08) rotate(-99.29) scale(1 -1)" xlink:href="#linear-gradient-18"/>
    <linearGradient id="linear-gradient-25" x1="11315.51" y1="109.02" x2="11350.98" y2="109.02" gradientTransform="translate(12887.72) rotate(-180) scale(1 -1)" xlink:href="#linear-gradient-18"/>
    <linearGradient id="linear-gradient-26" x1="11282.05" y1="69.81" x2="11301.17" y2="69.81" gradientTransform="translate(12887.72) rotate(-180) scale(1 -1)" xlink:href="#linear-gradient-18"/>
    <linearGradient id="linear-gradient-27" x1="11216.72" y1="58.93" x2="11221.4" y2="58.93" gradientTransform="translate(12887.72) rotate(-180) scale(1 -1)" xlink:href="#linear-gradient-18"/>
    <linearGradient id="linear-gradient-28" x1="603.38" y1="197.09" x2="779.08" y2="197.09" xlink:href="#linear-gradient-4"/>
    <linearGradient id="linear-gradient-29" x1="472.75" y1="149.98" x2="588.8" y2="149.98" xlink:href="#linear-gradient-4"/>
  </defs>
  <g class="cls-44">
    <g id="Layer_1" data-name="Layer 1">
      <g>
        <g>
          <ellipse class="cls-57" cx="1000" cy="1598.01" rx="965.01" ry="40.84"/>
          <g>
            <g>
              <g>
                <path class="cls-47" d="M911.33,818.96h171.78l-8.24,78.38h23.27c3.65,0,6.61,2.31,6.61,5.16h0c0,2.85-2.96,5.16-6.61,5.16h-182.25c-7.47,0-13.35-4.98-12.74-10.8l8.19-77.9Z"/>
                <polygon class="cls-7" points="1074.74 897.34 920.72 897.34 929.08 818.96 1083.1 818.96 1074.74 897.34"/>
                <polygon class="cls-48" points="921.71 888.04 1078.23 864.64 1082.43 825.26 926.35 844.58 921.71 888.04"/>
              </g>
              <polygon class="cls-10" points="1083.1 818.96 929.08 818.96 929.08 818.96 911.33 818.96 907.41 856.18 1081.78 831.6 1083.1 818.96 1083.1 818.96"/>
              <path class="cls-7" d="M703.71,425.57h652.38c16.39,0,29.68,10.48,29.68,23.4v350.43c0,12.93-13.29,23.4-29.68,23.4h-652.38c-16.39,0-29.67-10.48-29.67-23.4v-350.43c0-12.93,13.29-23.4,29.67-23.4Z"/>
              <rect class="cls-66" x="674.03" y="445.15" width="711.33" height="319.46"/>
              <path class="cls-48" d="M1356.09,425.57h-652.38c-10.08,0-18.97,3.96-24.34,10.02h701.05c-5.36-6.05-14.26-10.02-24.34-10.02Z"/>
              <path class="cls-48" d="M703.71,822.8h652.38c11.92,0,22.19-5.55,26.91-13.54h-706.2c4.72,8,14.99,13.54,26.91,13.54Z"/>
              <path class="cls-71" d="M1008.33,784.6c0,5.92-5.15,10.72-11.51,10.72s-11.51-4.8-11.51-10.72,5.15-10.72,11.51-10.72,11.51,4.8,11.51,10.72Z"/>
            </g>
            <path class="cls-22" d="M718.89,462.56h86.08c2.16,0,3.91,1.75,3.91,3.91v277.07c0,2.16-1.75,3.91-3.91,3.91h-86.07c-2.16,0-3.91-1.75-3.91-3.91v-277.07c0-2.16,1.75-3.91,3.91-3.91Z"/>
            <g>
              <path class="cls-21" d="M728.17,481.58h37.62c.73,0,1.32.59,1.32,1.32v4.28c0,.73-.59,1.32-1.32,1.32h-37.62c-.73,0-1.32-.59-1.32-1.32v-4.28c0-.73.59-1.32,1.32-1.32Z"/>
              <path class="cls-21" d="M728.17,497.31h57.63c.73,0,1.32.59,1.32,1.32v4.28c0,.73-.59,1.32-1.32,1.32h-57.63c-.73,0-1.32-.59-1.32-1.32v-4.28c0-.73.59-1.32,1.32-1.32Z"/>
              <path class="cls-21" d="M728.17,513.05h47.25c.73,0,1.32.59,1.32,1.32v4.28c0,.73-.59,1.32-1.32,1.32h-47.25c-.73,0-1.32-.59-1.32-1.32v-4.28c0-.73.59-1.32,1.32-1.32Z"/>
              <rect class="cls-21" x="726.84" y="528.78" width="24.95" height="6.93" rx="1.32" ry="1.32"/>
              <path class="cls-21" d="M728.17,544.51h30.53c.73,0,1.32.59,1.32,1.32v4.28c0,.73-.59,1.32-1.32,1.32h-30.53c-.73,0-1.32-.59-1.32-1.32v-4.28c0-.73.59-1.32,1.32-1.32Z"/>
              <path class="cls-21" d="M728.17,560.25h44.21c.73,0,1.32.59,1.32,1.32v4.28c0,.73-.59,1.32-1.32,1.32h-44.21c-.73,0-1.32-.59-1.32-1.32v-4.28c0-.73.59-1.32,1.32-1.32Z"/>
              <path class="cls-21" d="M728.17,575.98h30.53c.73,0,1.32.59,1.32,1.32v4.28c0,.73-.59,1.32-1.32,1.32h-30.53c-.73,0-1.32-.59-1.32-1.32v-4.28c0-.73.59-1.32,1.32-1.32Z"/>
              <path class="cls-21" d="M728.17,591.72h59.41c.73,0,1.32.59,1.32,1.32v4.28c0,.73-.59,1.32-1.32,1.32h-59.41c-.73,0-1.32-.59-1.32-1.32v-4.28c0-.73.59-1.32,1.32-1.32Z"/>
              <path class="cls-21" d="M728.17,607.45h37.88c.73,0,1.32.59,1.32,1.32v4.28c0,.73-.59,1.32-1.32,1.32h-37.88c-.73,0-1.32-.59-1.32-1.32v-4.28c0-.73.59-1.32,1.32-1.32Z"/>
              <path class="cls-21" d="M728.17,623.18h60.93c.73,0,1.32.59,1.32,1.32v4.28c0,.73-.59,1.32-1.32,1.32h-60.93c-.73,0-1.32-.59-1.32-1.32v-4.28c0-.73.59-1.32,1.32-1.32Z"/>
              <path class="cls-21" d="M728.17,638.92h41.68c.73,0,1.32.59,1.32,1.32v4.28c0,.73-.59,1.32-1.32,1.32h-41.68c-.73,0-1.32-.59-1.32-1.32v-4.28c0-.73.59-1.32,1.32-1.32Z"/>
              <path class="cls-21" d="M728.17,654.65h23.69c.73,0,1.32.59,1.32,1.32v4.28c0,.73-.59,1.32-1.32,1.32h-23.69c-.73,0-1.32-.59-1.32-1.32v-4.28c0-.73.59-1.32,1.32-1.32Z"/>
            </g>
            <g>
              <path class="cls-21" d="M848.75,476.5h106.36c.68,0,1.23.55,1.23,1.23v3.97c0,.68-.55,1.23-1.23,1.23h-106.36c-.68,0-1.23-.55-1.23-1.23v-3.97c0-.68.55-1.23,1.23-1.23Z"/>
              <rect class="cls-21" x="845.49" y="489.1" width="70.65" height="6.42" rx="1.23" ry="1.23"/>
              <rect class="cls-21" x="877.57" y="503.19" width="70.65" height="6.42" rx="1.23" ry="1.23"/>
              <path class="cls-21" d="M911.28,516.04h89.71c.68,0,1.23.55,1.23,1.23v3.97c0,.68-.55,1.23-1.23,1.23h-89.71c-.68,0-1.23-.55-1.23-1.23v-3.97c0-.68.55-1.23,1.23-1.23Z"/>
              <rect class="cls-21" x="908.83" y="528.89" width="73.89" height="6.42" rx="1.23" ry="1.23"/>
              <rect class="cls-21" x="875.94" y="568.18" width="80.19" height="6.42" rx="1.23" ry="1.23"/>
              <path class="cls-21" d="M943.76,594.87h64.74c.68,0,1.23.55,1.23,1.23v3.97c0,.68-.55,1.23-1.23,1.23h-64.74c-.68,0-1.23-.55-1.23-1.23v-3.97c0-.68.55-1.23,1.23-1.23Z"/>
              <rect class="cls-49" x="973.12" y="608.21" width="74.44" height="6.42" rx="1.23" ry="1.23"/>
              <rect class="cls-21" x="941.45" y="634.9" width="74.44" height="6.42" rx="1.23" ry="1.23"/>
              <path class="cls-21" d="M912.22,661.58h84.7c.68,0,1.23.55,1.23,1.23v3.97c0,.68-.55,1.23-1.23,1.23h-84.7c-.68,0-1.23-.55-1.23-1.23v-3.97c0-.68.55-1.23,1.23-1.23Z"/>
              <rect class="cls-36" x="1010.88" y="661.58" width="87.16" height="6.42" rx="1.23" ry="1.23"/>
              <rect class="cls-49" x="1110.75" y="661.58" width="108.68" height="6.42" rx="1.23" ry="1.23"/>
              <rect class="cls-21" x="972.51" y="621.55" width="95.68" height="6.42" rx="1.23" ry="1.23"/>
              <path class="cls-21" d="M1317.53,627.98h-192.2c-2.33,0-4.22-1.44-4.22-3.21h0c0-1.77,1.89-3.21,4.22-3.21h192.2c2.33,0,4.22,1.44,4.22,3.21h0c0,1.77-1.89,3.21-4.22,3.21Z"/>
              <rect class="cls-49" x="1171.25" y="608.21" width="74.44" height="6.42" rx="1.23" ry="1.23"/>
              <rect class="cls-36" x="1059.15" y="608.21" width="106.41" height="6.42" rx="1.23" ry="1.23"/>
              <rect class="cls-21" x="1117.93" y="594.87" width="67.2" height="6.42" rx="1.23" ry="1.23"/>
              <rect class="cls-36" x="1024.14" y="594.87" width="76.33" height="6.42" rx="1.23" ry="1.23"/>
              <rect class="cls-21" x="909.24" y="581.52" width="124.65" height="6.42" rx="1.23" ry="1.23"/>
              <rect class="cls-69" x="1049.31" y="581.52" width="35.32" height="6.42" rx="1.23" ry="1.23"/>
              <rect class="cls-21" x="911.27" y="648.24" width="48.72" height="6.42" rx="1.23" ry="1.23"/>
              <rect class="cls-21" x="941.45" y="673.2" width="56.71" height="6.42" rx="1.23" ry="1.23"/>
              <rect class="cls-21" x="911" y="686.54" width="53.86" height="6.42" rx="1.23" ry="1.23"/>
              <rect class="cls-21" x="908.69" y="699.89" width="53.86" height="6.42" rx="1.23" ry="1.23"/>
              <path class="cls-21" d="M942.67,712.98h74.55c.68,0,1.23.55,1.23,1.23v3.97c0,.68-.55,1.23-1.23,1.23h-74.55c-.68,0-1.23-.55-1.23-1.23v-3.97c0-.68.55-1.23,1.23-1.23Z"/>
              <path class="cls-21" d="M1136.85,732.5h-191.19c-2.33,0-4.22-1.44-4.22-3.21h0c0-1.77,1.89-3.21,4.22-3.21h191.19c2.33,0,4.22,1.44,4.22,3.21h0c0,1.77-1.89,3.21-4.22,3.21Z"/>
              <rect class="cls-36" x="1034.29" y="712.98" width="99.88" height="6.42" rx="1.23" ry="1.23" transform="translate(2168.46 1432.39) rotate(180)"/>
              <path class="cls-21" d="M1185.32,732.5h133.21c1.77,0,3.21-1.44,3.21-3.21h0c0-1.77-1.44-3.21-3.21-3.21h-133.21c-1.77,0-3.21,1.44-3.21,3.21h0c0,1.77,1.44,3.21,3.21,3.21Z"/>
              <path class="cls-27" d="M1147.98,712.98h54.79c.68,0,1.23.55,1.23,1.23v3.97c0,.68-.55,1.23-1.23,1.23h-54.79c-.68,0-1.23-.55-1.23-1.23v-3.97c0-.68.55-1.23,1.23-1.23Z" transform="translate(2350.75 1432.39) rotate(180)"/>
              <rect class="cls-36" x="978.66" y="699.89" width="89.73" height="6.42" rx="1.23" ry="1.23"/>
              <path class="cls-46" d="M1080.58,699.89h64.94c.68,0,1.23.55,1.23,1.23v3.97c0,.68-.55,1.23-1.23,1.23h-64.94c-.68,0-1.23-.55-1.23-1.23v-3.97c0-.68.55-1.23,1.23-1.23Z"/>
              <rect class="cls-69" x="1166.31" y="699.89" width="31.6" height="6.42" rx="1.23" ry="1.23"/>
              <path class="cls-21" d="M1316.47,679.62h-300.31c-2.92,0-5.28-1.44-5.28-3.21h0c0-1.77,2.36-3.21,5.28-3.21h300.31c2.92,0,5.28,1.44,5.28,3.21h0c0,1.77-2.36,3.21-5.28,3.21Z"/>
              <path class="cls-69" d="M1225.56,601.29h-25.24c-1.77,0-3.21-1.44-3.21-3.21h0c0-1.77,1.44-3.21,3.21-3.21h25.24c1.77,0,3.21,1.44,3.21,3.21h0c0,1.77-1.44,3.21-3.21,3.21Z"/>
              <path class="cls-21" d="M1107.41,627.98h-25.24c-1.77,0-3.21-1.44-3.21-3.21h0c0-1.77,1.44-3.21,3.21-3.21h25.24c1.77,0,3.21,1.44,3.21,3.21h0c0,1.77-1.44,3.21-3.21,3.21Z"/>
              <path class="cls-69" d="M1286.59,614.63h-23.49c-1.77,0-3.21-1.44-3.21-3.21h0c0-1.77,1.44-3.21,3.21-3.21h23.49c1.77,0,3.21,1.44,3.21,3.21h0c0,1.77-1.44,3.21-3.21,3.21Z"/>
              <path class="cls-21" d="M1155.53,574.6h-174.68c-2.33,0-4.22-1.44-4.22-3.21h0c0-1.77,1.89-3.21,4.22-3.21h174.68c2.33,0,4.22,1.44,4.22,3.21h0c0,1.77-1.89,3.21-4.22,3.21Z"/>
              <rect class="cls-21" x="875.94" y="555.82" width="53.19" height="6.42" rx="1.23" ry="1.23"/>
              <rect class="cls-40" x="1197.51" y="528.89" width="34.51" height="6.42" rx="1.23" ry="1.23"/>
              <rect class="cls-46" x="1286.42" y="489.1" width="34.51" height="6.42" rx="1.23" ry="1.23"/>
              <path class="cls-36" d="M1240.15,528.89h82c.68,0,1.23.55,1.23,1.23v3.97c0,.68-.55,1.23-1.23,1.23h-82c-.68,0-1.23-.55-1.23-1.23v-3.97c0-.68.55-1.23,1.23-1.23Z"/>
              <path class="cls-36" d="M1179.08,535.31h-172.65c-2.33,0-4.22-1.44-4.22-3.21h0c0-1.77,1.89-3.21,4.22-3.21h172.65c2.33,0,4.22,1.44,4.22,3.21h0c0,1.77-1.89,3.21-4.22,3.21Z"/>
              <path class="cls-21" d="M1096.25,548.16h-182.8c-2.33,0-4.22-1.44-4.22-3.21h0c0-1.77,1.89-3.21,4.22-3.21h182.8c2.33,0,4.22,1.44,4.22,3.21h0c0,1.77-1.89,3.21-4.22,3.21Z"/>
              <rect class="cls-36" x="1016.83" y="516.04" width="66.18" height="6.43" rx="1.23" ry="1.23"/>
              <path class="cls-36" d="M1149.44,495.53h-202.69c-2.33,0-4.22-1.44-4.22-3.21h0c0-1.77,1.89-3.21,4.22-3.21h202.69c2.33,0,4.22,1.44,4.22,3.21h0c0,1.77-1.89,3.21-4.22,3.21Z"/>
              <path class="cls-21" d="M1174.78,489.1h66.57c.68,0,1.23.55,1.23,1.23v3.97c0,.68-.55,1.23-1.23,1.23h-66.57c-.68,0-1.23-.55-1.23-1.23v-3.97c0-.68.55-1.23,1.23-1.23Z"/>
            </g>
          </g>
          <g>
            <g>
              <path class="cls-73" d="M617.8,981.47l-83.25,602.71c-1.04,8.99,2.83,13.78,9.66,13.3h0c4.27-.3,8.66-3.43,9.85-8.86l146.38-607.16h-82.65Z"/>
              <polygon class="cls-20" points="612.95 1016.57 689.01 1028.92 700.45 981.47 617.8 981.47 612.95 1016.57"/>
              <path class="cls-20" d="M633.03,1081.79c-6.64.46-12.01,6.83-13.11,15.54l-73.75,466.41,102.7-456.69c2.39-13.05-5.7-25.96-15.83-25.26Z"/>
            </g>
            <g>
              <path class="cls-13" d="M1695.38,981.47l83.25,602.71c1.04,8.99-2.83,13.78-9.66,13.3h0c-4.27-.3-8.66-3.43-9.85-8.86l-146.38-607.16h82.65Z"/>
              <polygon class="cls-20" points="1700.22 1016.57 1624.17 1028.92 1612.73 981.47 1695.38 981.47 1700.22 1016.57"/>
              <path class="cls-20" d="M1693.26,1097.33c-1.1-8.71-6.47-15.08-13.11-15.54-10.13-.7-18.22,12.21-15.83,25.26l102.7,456.69-73.75-466.41Z"/>
            </g>
            <path class="cls-39" d="M1796.63,906.11H516.55c-9.75,0-17.66,7.9-17.66,17.66s7.9,17.66,17.66,17.66h1280.08c9.75,0,17.66-7.9,17.66-17.66s-7.9-17.66-17.66-17.66Z"/>
            <path class="cls-38" d="M534.38,941.42l30.17,49.88h1162.33c13.5,0,26.02-7.06,33.01-18.61l18.91-31.26H534.38Z"/>
            <polygon class="cls-20" points="534.38 941.42 1778.8 941.42 1769.13 957.4 544.05 957.4 534.38 941.42"/>
          </g>
          <g>
            <g>
              <path class="cls-31" d="M368.39,1473.69s-101.44-75.14-114.44-89.71l8.87-15.46-17.03,7.41s-43.04-42.88-42.64-54.67l22.25-22.43-24.72,3.77s-33.72-52.27-31.31-59.59l16.16-16.3-13.77,2.49s-13.15-81.16,2.22-90.15c0,0,74.83,10.28,111.67,59.95l-11.3,18.99,17.8-9.27s47.11,52.34,52.54,64.23l-12.93,13.04,16.74-2.77s31.96,39.4,34.14,50.22l-14.55,12.51,20,5.88s13.62,51.38-19.7,121.89Z"/>
              <path class="cls-41" d="M203.15,1321.25l6.27-6.32c71.12,72.43,120.37,79.38,120.37,79.38,1.64-30.17,33.19-55.68,47.05-72.55,3.05,4.88,5.28,9.09,5.79,11.66l-14.55,12.51,20,5.88s13.62,51.38-19.7,121.89c0,0-101.44-75.14-114.44-89.71l8.87-15.47-17.03,7.41s-43.04-42.88-42.64-54.67Z"/>
              <path class="cls-33" d="M368.39,1473.69s-119.66-220.77-151.5-248.31c0,0,154.53,177.23,151.5,248.31Z"/>
            </g>
            <g>
              <path class="cls-63" d="M360.03,1439.9s78.12-30.94,88.97-38.07l-3.07-11.44,9.7,7.66s35.02-20.18,36.78-27.82l-10.48-18.19,15.26,6.63s30.64-27.8,30.33-32.91l-7.62-13.22,8.43,3.94s22.33-49.84,13.97-58.23c0,0-49.91-6.15-82.11,19.45l4.03,14.11-9.87-8.98s-39.26,25.56-44.78,32.27l6.09,10.57-10.3-4.63s-27.3,19.84-30.55,26.41l7.23,10.51-13.87.37s-17.55,30.65-8.15,81.58Z"/>
              <path class="cls-56" d="M382.05,1357.96l-7.23-10.51c2.69-5.43,21.79-19.91,28.33-24.77-25.52,75.04,5.59,44.31.96,71.63-5.15,30.38,33.72,13.19,33.84,13.14-24.68,11.37-77.92,32.46-77.92,32.46-9.4-50.92,8.15-81.58,8.15-81.58l13.87-.37Z"/>
              <path class="cls-33" d="M360.03,1439.9s114.72-121.29,139.92-133.54c0,0-129.73,87.41-139.92,133.54Z"/>
            </g>
            <g>
              <path class="cls-34" d="M248.92,1423.94h225.49c2.93,0,5.3,2.38,5.3,5.3v40.41c0,2.93-2.38,5.3-5.3,5.3h-225.49c-2.93,0-5.3-2.38-5.3-5.3v-40.41c0-2.93,2.38-5.3,5.3-5.3Z" transform="translate(723.33 2898.9) rotate(180)"/>
              <polygon class="cls-34" points="424.37 1597.01 455.95 1474.96 267.38 1474.96 302.89 1597.01 424.37 1597.01"/>
              <path class="cls-65" d="M317.27,1589.01c17.51,3,104.54,8.5,104.54,8.5h-118.93l-35.51-122.05h147.93s-133.05,7-129.05,16.51c4,9.5,13.51,94.04,31.01,97.04Z"/>
            </g>
          </g>
          <g>
            <path class="cls-68" d="M1838.43,445.53h-184.49c-7.53,0-13.63,7.1-13.63,15.85v97.54c0,8.75,6.1,15.85,13.63,15.85h55.55v39.02l44.22-39.02h84.72c7.53,0,13.63-7.1,13.63-15.85v-97.54c0-8.75-6.1-15.85-13.63-15.85Z"/>
            <path class="cls-68" d="M580.38,615h-176.08c-7.18,0-13.01,5.82-13.01,13.01v80.04c0,7.18,5.82,13.01,13.01,13.01h80.86l42.2,32.01v-32.01h53.03c7.18,0,13.01-5.82,13.01-13.01v-80.04c0-7.18-5.83-13.01-13.01-13.01Z"/>
            <path class="cls-68" d="M1406.76,97.63h-165.76c-6.76,0-12.24,5.48-12.24,12.24v75.35c0,6.76,5.48,12.24,12.24,12.24h49.92v30.14l39.73-30.14h76.12c6.76,0,12.24-5.48,12.24-12.24v-75.35c0-6.76-5.48-12.24-12.24-12.24Z"/>
            <rect class="cls-68" x="842.04" y="230.62" width="188.19" height="138.17" rx="11.11" ry="11.11"/>
            <rect class="cls-68" x="417.83" y="298.98" width="176.73" height="128.36"/>
          </g>
          <g>
            <path class="cls-50" d="M1819.85,433.14h-184.49c-7.53,0-13.63,7.1-13.63,15.85v97.54c0,8.75,6.1,15.85,13.63,15.85h55.56v39.02l44.22-39.02h84.72c7.53,0,13.63-7.1,13.63-15.85v-97.54c0-8.75-6.1-15.85-13.63-15.85Z"/>
            <g>
              <path class="cls-21" d="M1709.04,515.82c-2.1,1.08-6.72,2.17-12.58,2.17-15.47,0-24.87-9.69-24.87-24.51,0-16.05,11.13-25.74,26.02-25.74,5.85,0,10.05,1.23,11.86,2.17l-1.95,7.08c-2.31-1.01-5.49-1.88-9.54-1.88-9.9,0-17.06,6.22-17.06,17.93,0,10.7,6.29,17.57,16.99,17.57,3.61,0,7.37-.72,9.69-1.81l1.44,7.01Z"/>
              <path class="cls-21" d="M1716.4,507.58c2.89,1.66,7.23,3.11,11.78,3.11,5.71,0,8.89-2.68,8.89-6.65,0-3.69-2.46-5.85-8.68-8.1-8.02-2.89-13.16-7.16-13.16-14.17,0-7.95,6.65-14.02,17.21-14.02,5.28,0,9.18,1.16,11.71,2.46l-2.17,7.16c-1.74-.94-5.13-2.31-9.69-2.31-5.64,0-8.09,3.04-8.09,5.85,0,3.76,2.82,5.5,9.33,8.03,8.46,3.18,12.58,7.45,12.58,14.46,0,7.81-5.93,14.6-18.51,14.6-5.13,0-10.48-1.45-13.16-3.04l1.95-7.37Z"/>
              <path class="cls-21" d="M1753.91,507.58c2.89,1.66,7.23,3.11,11.78,3.11,5.71,0,8.89-2.68,8.89-6.65,0-3.69-2.46-5.85-8.68-8.1-8.02-2.89-13.16-7.16-13.16-14.17,0-7.95,6.65-14.02,17.21-14.02,5.28,0,9.18,1.16,11.71,2.46l-2.17,7.16c-1.73-.94-5.13-2.31-9.69-2.31-5.64,0-8.09,3.04-8.09,5.85,0,3.76,2.82,5.5,9.32,8.03,8.46,3.18,12.58,7.45,12.58,14.46,0,7.81-5.93,14.6-18.51,14.6-5.13,0-10.48-1.45-13.16-3.04l1.95-7.37Z"/>
            </g>
          </g>
          <g>
            <path class="cls-59" d="M385.72,602.61h176.08c7.18,0,13.01,5.82,13.01,13.01v80.04c0,7.18-5.82,13.01-13.01,13.01h-53.03v32.01l-42.2-32.01h-80.86c-7.18,0-13.01-5.82-13.01-13.01v-80.04c0-7.18,5.82-13.01,13.01-13.01Z"/>
            <g>
              <path class="cls-21" d="M426.34,640.3c2.49-.42,5.76-.77,9.91-.77,5.1,0,8.84,1.19,11.21,3.32,2.2,1.9,3.5,4.8,3.5,8.36s-1.07,6.47-3.08,8.54c-2.73,2.91-7.18,4.39-12.22,4.39-1.54,0-2.97-.06-4.15-.36v16.02h-5.16v-39.51ZM431.5,659.57c1.13.3,2.55.42,4.27.42,6.23,0,10.03-3.03,10.03-8.54s-3.74-7.83-9.43-7.83c-2.25,0-3.97.18-4.86.42v15.54Z"/>
              <path class="cls-21" d="M463.05,639.82v16.73h19.34v-16.73h5.22v39.98h-5.22v-18.74h-19.34v18.74h-5.16v-39.98h5.16Z"/>
              <path class="cls-21" d="M496.56,640.3c2.49-.42,5.76-.77,9.91-.77,5.1,0,8.84,1.19,11.21,3.32,2.19,1.9,3.5,4.8,3.5,8.36s-1.07,6.47-3.08,8.54c-2.73,2.91-7.18,4.39-12.22,4.39-1.54,0-2.97-.06-4.15-.36v16.02h-5.16v-39.51ZM501.72,659.57c1.13.3,2.55.42,4.27.42,6.23,0,10.03-3.03,10.03-8.54s-3.74-7.83-9.43-7.83c-2.25,0-3.97.18-4.86.42v15.54Z"/>
            </g>
          </g>
          <g>
            <path class="cls-16" d="M1388.17,85.24h-165.76c-6.76,0-12.24,5.48-12.24,12.24v75.35c0,6.76,5.48,12.24,12.24,12.24h49.92v30.14l39.73-30.14h76.12c6.76,0,12.24-5.48,12.24-12.24v-75.35c0-6.76-5.48-12.24-12.24-12.24Z"/>
            <g>
              <path class="cls-21" d="M1245.17,112.59v15.75h18.2v-15.75h4.91v37.64h-4.91v-17.65h-18.2v17.65h-4.86v-37.64h4.86Z"/>
              <path class="cls-21" d="M1283.86,116.72h-11.45v-4.13h27.87v4.13h-11.5v33.51h-4.91v-33.51Z"/>
              <path class="cls-21" d="M1336.17,133.69c-.28-5.25-.61-11.56-.56-16.25h-.17c-1.28,4.41-2.85,9.1-4.74,14.3l-6.65,18.26h-3.68l-6.09-17.93c-1.79-5.31-3.3-10.16-4.36-14.63h-.11c-.11,4.69-.39,11-.73,16.64l-1,16.14h-4.63l2.62-37.64h6.2l6.42,18.2c1.56,4.63,2.85,8.77,3.8,12.68h.17c.95-3.8,2.29-7.93,3.97-12.68l6.7-18.2h6.2l2.34,37.64h-4.74l-.95-16.53Z"/>
              <path class="cls-21" d="M1349.34,112.59h4.86v33.56h16.08v4.08h-20.94v-37.64Z"/>
            </g>
          </g>
          <g>
            <rect class="cls-60" x="823.46" y="218.23" width="188.19" height="138.17" rx="11.11" ry="11.11"/>
            <g>
              <path class="cls-21" d="M879.04,283.92c7.19-.1,8.01-4.01,8.01-7.29,0-2.67-.31-5.44-.62-8.22-.41-2.88-.72-5.65-.72-8.32,0-9.66,6.17-13.76,15.31-13.76h2.98v7.4h-1.85c-5.34,0-7.19,2.98-7.19,8.01,0,2.05.31,4.21.72,6.47.21,2.26.62,4.72.62,7.4.1,7.19-2.98,10.27-8.22,11.51v.21c5.24,1.23,8.32,4.42,8.22,11.61,0,2.77-.41,5.24-.62,7.5-.41,2.26-.72,4.42-.72,6.47,0,5.13,2.05,8.12,7.19,8.12h1.85v7.29h-2.98c-8.94,0-15.31-3.7-15.31-14.07,0-2.57.31-5.44.72-8.22.31-2.78.62-5.44.62-8.12,0-2.98-.82-7.19-8.01-7.29v-6.68Z"/>
              <path class="cls-21" d="M956.07,290.6c-7.09.1-8.01,4.32-8.01,7.29,0,2.67.41,5.34.72,8.12.31,2.77.72,5.65.72,8.22,0,10.37-6.37,14.07-15.31,14.07h-2.98v-7.29h1.85c5.14-.1,7.09-2.98,7.09-8.12,0-2.06-.31-4.21-.62-6.47-.31-2.26-.62-4.73-.62-7.5-.1-7.19,2.98-10.38,8.11-11.61v-.21c-5.14-1.23-8.22-4.32-8.11-11.51,0-2.67.31-5.14.62-7.4.31-2.26.62-4.42.62-6.47,0-5.03-1.85-7.91-7.09-8.01h-1.85v-7.4h2.98c9.14,0,15.31,4.11,15.31,13.76,0,2.67-.41,5.44-.72,8.32-.31,2.78-.72,5.55-.72,8.22,0,3.29.92,7.19,8.01,7.29v6.68Z"/>
            </g>
          </g>
          <g>
            <rect class="cls-17" x="399.24" y="286.59" width="176.73" height="128.36"/>
            <g>
              <path class="cls-21" d="M427.85,352.51l40.27-19.54v7.64l-31.94,14.87v.17l31.94,14.95v7.56l-40.27-19.54v-6.12Z"/>
              <path class="cls-21" d="M473.97,381.57l20.73-61.59h7.31l-20.73,61.59h-7.31Z"/>
              <path class="cls-21" d="M547.37,358.8l-40.27,19.37v-7.56l32.46-14.95v-.17l-32.46-14.95v-7.56l40.27,19.37v6.46Z"/>
            </g>
          </g>
          <g>
            <g>
              <path class="cls-51" d="M1317.85,458.21c-5.3,24.65-13.05,30.19-11.5,35.2,1.56,5,17.76,9.01,17.76,9.01,0,0-4.13-36.45-6.26-44.21Z"/>
              <path class="cls-58" d="M1320.7,360.57s-11.59,4.88-11.44,50.1c.04,11.56,3.4,34.37,6.29,50.98,1.73,31.58-9.21,30.41,15.41,98.42,0,0,63.71,13.67,116.55-10.12l11.27-54.58-138.08-134.79Z"/>
              <path class="cls-51" d="M1456.28,615.02l-7.25-72.45,7.49-37.02-80.42-27.72c3.88,46.62-25.68,71.74-45.15,82.25,0,0,3.21,6.61,25.38,2.17l-7.04,46.01,106.98,6.77Z"/>
              <path class="cls-6" d="M1456.28,516.7s79.68-117.45,8.06-155.26c0,0-5.87-21.44-44.61-29.34-38.74-7.9-66.92,21.44-95.1,24.27-28.18,2.82-55.77-14.67-55.77-14.67,0,0,8.22,19.75,24.07,25.39,0,0-14.09,11.85-30.53-3.95,0,0,7.63,20.88,28.76,23.14,0,0-17.61,7.34-28.76-.56,0,0,5.28,33.86,30.53,45.71,24.81,11.65,43.44,9.59,48.14,50.22,0,0,6.46,5.64,7.63-2.82,1.17-8.46-.59-28.22,7.04-20.32,7.63,7.9,44.61,55.3,58.7,57.56,14.09,2.26,41.83.63,41.83.63Z"/>
            </g>
            <path class="cls-64" d="M1170.79,1525.57l-56.05,40.22s-31.7,3.25-30.61,23.66h136.64c9.24,0,15.89-8.85,13.27-17.68l-13.7-46.19h-49.56Z"/>
            <path class="cls-64" d="M1023.2,1525.57l-56.05,40.22s-31.7,3.25-30.61,23.66h136.64c9.24,0,15.89-8.85,13.27-17.68l-13.7-46.19h-49.56Z"/>
            <g id="wrist_left_pen" data-name="wrist left pen">
              <polygon class="cls-19" points="1129.04 869.56 1150.77 866.97 1158.58 880.51 1143.06 885.07 1131.1 883.64 1126.97 880.35 1129.04 869.56"/>
              <path class="cls-70" d="M1180.13,875.99s-24.58-13.01-30.15-13.8c-5.57-.79-22.2,4.75-23.63,7.25-1.44,2.5-3.58,13.82-1.58,14.92,2.01,1.1,4.5-1.25,6.73-11.21,0,0,11.2-1.4,14.08-.73,2.88.68,6.44,3.91,6.59,6.63.15,2.73,27.74,2.31,27.74,2.31l.22-5.38Z"/>
              <polygon class="cls-37" points="1124.98 890.02 1125.41 890.42 1127.06 888.95 1126.31 888.25 1124.98 890.02"/>
              <path class="cls-70" d="M1152.17,879.06c-.41,2.38-4.65,2.18-10.09,2.98-3.92.58-9.47,2.42-9.64,3.82-.36,3,5.21,3.54,10.55,2.73,6.82-1.03,6.54-1.81,10.78-1.51,8.47.6,20.75.92,26.16-4.22l.12-5.08s-27.48-1.05-27.88,1.27Z"/>
            </g>
            <path class="cls-58" d="M1394.07,859.49s-51.77-4.32-218.45,11.42v25.7s132.78,21.42,201.31,14.28c68.53-7.14,17.13-51.4,17.13-51.4Z"/>
            <path class="cls-35" d="M1159.4,1530.39c-19.09-241.99-52-469.54-16.99-502.31,51.33-48.05,268.43-44.04,268.43-44.04l-174.67,142.43s11.87,36.01,16.28,124.34c4.41,88.33-27.51,279.59-27.51,279.59h-65.54Z"/>
            <path class="cls-35" d="M1009.91,1530.39c-19.09-241.99-40.87-457-18.62-499.53,24.54-46.9,260.36-39.42,260.36-39.42l46.56-22.52,181.72,28.85s26.65,120.06-75.83,135.77c-102.48,15.7-314.82-7.07-314.82-7.07,0,0,18.61,32.28,23.03,120.61,4.41,88.33-36.79,283.31-36.79,283.31h-65.62Z"/>
            <path class="cls-61" d="M1075.52,1530.39s41.21-194.98,36.79-283.31c-4.41-88.33-23.03-120.61-23.03-120.61,0,0,212.34,22.77,314.82,7.07,31.39-4.81,50.58-19.45,62.22-37.4l-70.39-94.65c-106.28,101.2-321.23,58.13-332.48,100.71-2.97,11.25,1.95,52.84,14.8,159.86,11.42,95.1-16.77,237.69-23.2,268.33h20.48Z"/>
            <path class="cls-4" d="M1543.56,648.64c-9.67-35.38-89.57-55.81-127.76-53.8-32.96,1.73-109.4-2.68-140.79,31.86-.04.04-.09.06-.13.1-48.89,44.93-122.84,203.85-122.84,203.85l-34.97,22.53c-2.46,8.83-2.99,17.6-1.82,26,1.23,9.25,4.49,18.08,9.25,26.05,29.05-.16,72.31,1.93,74.77.37,5.73-3.5,42.18-43.49,64.49-99.28,4.37,48.35,7.96,92.68-.25,114.57-18.09,48.24-56.06,66.23-56.06,66.23,50.68,146.7,218.52,154.72,264.84,118.02,99.62-78.94,94.46-371.66,71.26-456.5Z"/>
            <path class="cls-1" d="M1460.85,571.73l16.07,31.7s-23.02,10.57-142.17-3.49l10.53-28.89s68.11,13.78,115.56.68Z"/>
            <path class="cls-58" d="M1004.02,874.77c19.07-2.81,36.02,8.42,36.02,8.42l79.3-30.01c-3.64,18.67-1.16,36.91,5.17,52.08-53.56.53-146.23.3-150.85.3,2.78-11.78,11.29-27.99,30.36-30.8Z"/>
            <g>
              <g>
                <g>
                  <polygon class="cls-72" points="1193.49 1173 1161.34 1597.51 1177.41 1597.51 1251.35 1180.79 1193.49 1173"/>
                  <polygon class="cls-8" points="1220.06 1180.44 1168.42 1597.51 1177.41 1597.51 1251.35 1180.79 1220.06 1180.44"/>
                </g>
                <polygon class="cls-2" points="1244.31 1220.51 1251.35 1180.79 1193.49 1173 1189.58 1224.55 1244.31 1220.51"/>
              </g>
              <g>
                <g>
                  <polygon class="cls-72" points="1466.96 1188.43 1499.11 1597.51 1483.03 1597.51 1409.09 1195.94 1466.96 1188.43"/>
                  <polygon class="cls-9" points="1438.89 1192.07 1492.91 1597.51 1483.03 1597.51 1409.09 1195.94 1438.89 1192.07"/>
                </g>
                <polygon class="cls-2" points="1466.96 1188.43 1438.89 1192.07 1409.09 1195.94 1416.02 1233.56 1469.81 1224.77 1466.96 1188.43"/>
              </g>
              <path class="cls-26" d="M1072.35,1126.16c5.18,53.94,249.85,105.34,425.29,64.31,77.77-18.14,119.68-90.01,121.5-310.4.44-54.49-13.57-94.15-35.91-121.5-67.84-83.34-212.73-53.55-262.48,14.23-66.07,90.07-51.79,295.07-96.46,314.21-44.67,19.19-142.9-21.07-151.84,34.53-.22,1.54-.28,3.09-.11,4.63Z"/>
              <path class="cls-45" d="M1072.35,1126.16c5.18,53.94,249.85,105.34,425.29,64.31,77.77-18.14,119.68-90.01,121.5-310.4.44-54.49-13.57-94.15-35.91-121.5-30.22-18.81-65.36-29.51-100.88-28.84-54.77,1.05-109.09,30.61-136.28,78.15-13.73,23.99-20.46,51.24-26.97,78.1-14.01,57.69-28.07,115.33-42.08,173.02-2.98,12.41-6.18,25.15-13.51,35.63-15.72,22.45-46.44,28.79-73.8,27.19-27.36-1.54-54.49-9.1-81.79-6.84-12.24,1.05-24.87,4.85-35.57,11.2Z"/>
            </g>
            <path class="cls-28" d="M1263.77,806.33c2.12,23.5,4.05,46.05,4.54,65.54,13.83-30.98,26.23-78.08,33.67-109.48-11.66,13.39-24.84,28.58-38.2,43.94Z"/>
          </g>
        </g>
        <g>
          <rect class="cls-23" x="615.27" y="618.85" width="191.66" height="201.29" rx="3.66" ry="3.66" transform="translate(1422.19 1438.99) rotate(180)"/>
          <g>
            <rect class="cls-30" x="707.48" y="650.19" width="78.87" height="5.99" rx="1" ry="1" transform="translate(1493.82 1306.37) rotate(180)"/>
            <rect class="cls-30" x="664.22" y="663.35" width="122.13" height="5.99" rx="1" ry="1" transform="translate(1450.57 1332.69) rotate(180)"/>
            <rect class="cls-30" x="682.29" y="676.51" width="104.05" height="5.99" rx="1" ry="1" transform="translate(1468.64 1359.01) rotate(180)"/>
            <rect class="cls-30" x="688" y="689.67" width="98.35" height="5.99" rx="1" ry="1" transform="translate(1474.35 1385.33) rotate(180)"/>
            <rect class="cls-30" x="723.58" y="702.83" width="62.77" height="5.99" rx="1" ry="1" transform="translate(1509.93 1411.65) rotate(180)"/>
          </g>
          <g>
            <rect class="cls-30" x="683.88" y="727.91" width="78.87" height="5.99" rx="1" ry="1" transform="translate(1446.63 1461.82) rotate(180)"/>
            <rect class="cls-30" x="640.62" y="741.07" width="122.13" height="5.99" rx="1.01" ry="1.01" transform="translate(1403.37 1488.14) rotate(180)"/>
            <rect class="cls-30" x="658.69" y="754.23" width="104.05" height="5.99" rx="1" ry="1" transform="translate(1421.44 1514.46) rotate(180)"/>
            <rect class="cls-30" x="664.4" y="767.39" width="98.35" height="5.99" rx="1.01" ry="1.01" transform="translate(1427.15 1540.78) rotate(180)"/>
            <rect class="cls-30" x="699.98" y="780.55" width="62.77" height="5.99" rx="1" ry="1" transform="translate(1462.73 1567.1) rotate(180)"/>
          </g>
          <path class="cls-52" d="M722.88,765.92l2.95-8.52c1.81-5.22,6.72-8.71,12.24-8.71h74.71c7.16,0,12.96,5.8,12.96,12.96v131.32c0,7.16-5.8,12.96-12.96,12.96h-208.06c-7.16,0-12.96-5.8-12.96-12.96v-105.37c0-7.16,5.8-12.96,12.96-12.96h105.91c5.52,0,10.43-3.5,12.24-8.71Z"/>
        </g>
        <g>
          <g>
            <ellipse class="cls-32" cx="1668.68" cy="345.21" rx="28.39" ry="13.9"/>
            <path class="cls-3" d="M1704.61,307.11l-2.13,28.41c-.26,3.54-2.35,6.78-5.59,8.28-4.65,2.18-12.63,4.65-24.87,4.65-14.46,0-25.3-3.93-30.89-6.57-2.69-1.24-4.48-3.84-4.82-6.74l-3.58-29.91h.04l.47.98s12.46,9.34,38.1,8.53c24.02-.77,32.34-6.87,33.28-7.64Z"/>
            <g class="cls-25">
              <path class="cls-55" d="M1744.12,220.92h.09l-.34.77c-1.62,4.52-3.58,8.83-5.93,12.93l-33.23,72.4s-.04.04-.09.09c-.94.77-9.26,6.87-33.28,7.64-25.64.81-38.1-8.53-38.1-8.53l-.47-.98-35.88-77.14h.09c-5.21-10.8-8.23-22.83-8.23-35.58,0-44.58,35.8-80.29,79.95-79.74,44.11.56,79.91,37.16,79.91,81.79,0,9.26-1.62,18.13-4.48,26.37Z"/>
            </g>
            <path class="cls-11" d="M1671.46,338.91c16.73-.51,26.18-3.36,30.93-5.45,1.8-.79,2.97-2.5,3.12-4.38l.45-5.75c.16-2.03-1.98-3.47-3.93-2.64-4.88,2.07-14.28,4.8-30.58,5.3-19.42.59-31.91-4.64-37.35-7.58-1.29-.7-2.86.33-2.68,1.73l.99,7.88c.26,2.07,1.57,3.88,3.54,4.78,5.88,2.71,17.63,6.65,35.5,6.11Z"/>
            <ellipse class="cls-12" cx="1668.66" cy="300.52" rx="39.2" ry="14.22"/>
            <path class="cls-21" d="M1682.9,300.6l-4.67-.16c.02-.56,1.92-55.9,4.9-89.82.07-.8.14-1.58.22-2.36-10.07,2.13-20.7,2.52-30.73,1.16,1.26,8.88,2.42,19.51,3.45,31.74,2.52,29.67,3.48,58.98,3.49,59.27l-4.67.15c0-.29-.97-29.5-3.48-59.04-1.09-12.83-2.31-23.86-3.63-32.92-.66-.13-1.32-.27-1.98-.42-17.25-3.85-21.56-11.81-22.59-16.21-1.22-5.22.81-10.89,5.2-14.43,4.02-3.25,8.97-3.99,13.26-1.98,2.55,1.2,5.92,4.95,9.29,23.42.32,1.76.64,3.62.95,5.59,11,1.66,22.32.94,32-1.29,2.45-19.82,7.15-30.84,14.01-32.79,4.45-1.27,9.12,1.31,13.89,7.67,3.46,4.61,3.65,9.81.55,14.62-3.87,5.98-12.61,11.14-24.17,14.3-.13,1.26-.26,2.57-.38,3.93-2.97,33.8-4.87,89.02-4.88,89.57ZM1636.71,179.15c-1.82,0-3.7.7-5.37,2.04-3,2.43-4.41,6.25-3.59,9.74,1.35,5.76,8.12,10.27,19.07,12.72.07.01.13.03.2.04-.22-1.34-.44-2.62-.67-3.85-3.21-17.58-6.13-19.77-6.68-20.03-.94-.44-1.94-.66-2.96-.66ZM1700.07,174.88c-.3,0-.6.04-.89.12-1.77.51-7.3,3.97-10.41,27.01,9.35-2.81,16.6-7.05,19.64-11.75,2.05-3.18,1.94-6.22-.36-9.28-1.78-2.37-5.04-6.1-7.98-6.1Z"/>
          </g>
          <g>
            <rect class="cls-75" x="1774.38" y="234.19" width="41.25" height="4.67"/>
            <rect class="cls-62" x="1781.71" y="167" width="39.73" height="4.67" transform="translate(-3.71 292.96) rotate(-9.29)"/>
            <path class="cls-54" d="M1766.2,126.98v-4.67c-.63,0-1.04.26-1.05.27,2.11-1.38,20.84-20.07,32.15-31.53l3.32,3.28c-.08.08-7.99,8.09-15.94,15.99-16.76,16.65-17.19,16.65-18.48,16.65Z"/>
            <path class="cls-67" d="M1733.42,90.96l-.77-4.61c-.64.11-.96.45-.96.46,1.8-2.01,8.89-20.97,14.7-38.13l4.42,1.5c-.03.1-3.34,9.85-6.89,19.52-7.64,20.79-8.84,20.99-10.5,21.27Z"/>
            <rect class="cls-42" x="1666.36" y="37.69" width="4.67" height="42.47"/>
            <rect class="cls-74" x="1521.72" y="234.19" width="41.25" height="4.67"/>
            <rect class="cls-43" x="1533.45" y="149.47" width="4.67" height="39.73" transform="translate(1120.78 1657.65) rotate(-80.71)"/>
            <path class="cls-15" d="M1571.16,126.98c-1.29,0-1.72,0-18.48-16.65-7.95-7.9-15.86-15.91-15.94-15.99l3.32-3.28c11.31,11.46,30.05,30.15,32.15,31.53-.02-.01-.42-.27-1.05-.27v4.67Z"/>
            <path class="cls-29" d="M1603.94,90.96c-1.66-.28-2.86-.48-10.5-21.27-3.56-9.67-6.86-19.42-6.89-19.52l4.42-1.5c5.81,17.17,12.89,36.13,14.7,38.13,0,0-.32-.35-.96-.46l-.77,4.61Z"/>
            <rect class="cls-18" x="1666.33" y="37.69" width="4.67" height="42.47"/>
          </g>
        </g>
        <g>
          <g>
            <path class="cls-68" d="M638.11,212.54c1.61,7.03,4.38,13.6,8.19,19.6l-15.1,15.1c5.88,8.53,13.26,15.91,21.79,21.9l15.1-15.1c6,3.8,12.68,6.57,19.71,8.19v21.33c4.96.92,10.14,1.38,15.45,1.38s10.49-.46,15.45-1.38v-21.33c7.03-1.61,13.72-4.38,19.71-8.19l15.1,15.1c8.53-5.99,15.91-13.37,21.79-21.9l-15.1-15.1c3.8-6,6.57-12.57,8.19-19.6h21.33c.92-4.96,1.38-10.15,1.38-15.45s-.46-10.49-1.38-15.45h-21.33c-1.61-7.03-4.38-13.72-8.19-19.71l15.1-14.99c-5.88-8.53-13.37-16.03-21.9-21.91l-15.1,15.1c-5.99-3.8-12.57-6.57-19.6-8.19v-21.33c-4.96-.92-10.15-1.38-15.45-1.38s-10.49.46-15.45,1.38v21.33c-7.03,1.61-13.6,4.38-19.6,8.19l-15.1-15.1c-8.53,5.88-16.03,13.37-21.91,21.91l15.1,14.99c-3.8,6-6.57,12.68-8.19,19.71h-21.33c-.92,4.96-1.38,10.15-1.38,15.45s.46,10.49,1.38,15.45h21.33ZM664.74,197.09c0-21.27,17.24-38.52,38.52-38.52s38.52,17.24,38.52,38.52-17.24,38.52-38.52,38.52-38.52-17.24-38.52-38.52Z"/>
            <path class="cls-68" d="M502.16,167.41c1.85,4.39,4.39,8.36,7.55,11.83l-8.12,11.54c4.79,4.89,10.43,8.85,16.66,11.79l8.12-11.54c4.33,1.8,9,2.84,13.76,3.09l2.42,13.88c3.33.04,6.76-.25,10.21-.85,3.45-.6,6.78-1.49,9.9-2.65l-2.42-13.88c4.39-1.85,8.43-4.41,11.9-7.56l11.54,8.12c4.87-4.87,8.84-10.51,11.7-16.72l-11.54-8.12c1.8-4.33,2.85-8.92,3.11-13.68l13.88-2.42c.04-3.33-.25-6.76-.85-10.21-.6-3.45-1.49-6.78-2.65-9.9l-13.88,2.42c-1.85-4.39-4.41-8.43-7.56-11.9l8.13-11.46c-4.79-4.89-10.52-8.91-16.74-11.77l-8.12,11.54c-4.33-1.8-8.92-2.85-13.68-3.11l-2.42-13.88c-3.33-.04-6.76.25-10.21.85-3.45.6-6.78,1.49-9.9,2.65l2.42,13.88c-4.39,1.85-8.36,4.39-11.83,7.55l-11.54-8.12c-4.89,4.79-8.91,10.52-11.77,16.74l11.53,8.04c-1.8,4.33-2.84,9-3.09,13.76l-13.88,2.42c-.04,3.33.25,6.76.85,10.21.6,3.45,1.49,6.78,2.65,9.9l13.88-2.42ZM517.73,154.34c-2.41-13.84,6.86-27.02,20.7-29.43,13.84-2.41,27.02,6.86,29.43,20.7,2.41,13.84-6.86,27.02-20.7,29.43-13.84,2.41-27.02-6.86-29.43-20.7Z"/>
          </g>
          <g>
            <path class="cls-5" d="M626.09,212.54c1.61,7.03,4.38,13.6,8.19,19.6l-15.1,15.1c5.88,8.53,13.26,15.91,21.79,21.9l15.1-15.1c6,3.8,12.68,6.57,19.71,8.19v21.33c4.96.92,10.14,1.38,15.45,1.38s10.49-.46,15.45-1.38v-21.33c7.03-1.61,13.72-4.38,19.71-8.19l15.1,15.1c8.53-5.99,15.91-13.37,21.79-21.9l-15.1-15.1c3.8-6,6.57-12.57,8.19-19.6h21.33c.92-4.96,1.38-10.15,1.38-15.45s-.46-10.49-1.38-15.45h-21.33c-1.61-7.03-4.38-13.72-8.19-19.71l15.1-14.99c-5.88-8.53-13.37-16.03-21.9-21.91l-15.1,15.1c-5.99-3.8-12.57-6.57-19.6-8.19v-21.33c-4.96-.92-10.15-1.38-15.45-1.38s-10.49.46-15.45,1.38v21.33c-7.03,1.61-13.6,4.38-19.6,8.19l-15.1-15.1c-8.53,5.88-16.03,13.37-21.91,21.91l15.1,14.99c-3.8,6-6.57,12.68-8.19,19.71h-21.33c-.92,4.96-1.38,10.15-1.38,15.45s.46,10.49,1.38,15.45h21.33ZM652.71,197.09c0-21.27,17.24-38.52,38.52-38.52s38.52,17.24,38.52,38.52-17.24,38.52-38.52,38.52-38.52-17.24-38.52-38.52Z"/>
            <path class="cls-53" d="M490.13,167.41c1.85,4.39,4.39,8.36,7.55,11.83l-8.12,11.54c4.79,4.89,10.43,8.85,16.66,11.79l8.12-11.54c4.33,1.8,9,2.84,13.76,3.09l2.42,13.88c3.33.04,6.76-.25,10.21-.85,3.45-.6,6.78-1.49,9.9-2.65l-2.42-13.88c4.39-1.85,8.43-4.41,11.9-7.56l11.54,8.12c4.87-4.87,8.84-10.51,11.7-16.72l-11.54-8.12c1.8-4.33,2.85-8.92,3.11-13.68l13.88-2.42c.04-3.33-.25-6.76-.85-10.21-.6-3.45-1.49-6.78-2.65-9.9l-13.88,2.42c-1.85-4.39-4.41-8.43-7.56-11.9l8.13-11.46c-4.79-4.89-10.52-8.91-16.74-11.77l-8.12,11.54c-4.33-1.8-8.92-2.85-13.68-3.11l-2.42-13.88c-3.33-.04-6.76.25-10.21.85-3.45.6-6.78,1.49-9.9,2.65l2.42,13.88c-4.39,1.85-8.36,4.39-11.83,7.55l-11.54-8.12c-4.89,4.79-8.91,10.52-11.77,16.74l11.53,8.04c-1.8,4.33-2.84,9-3.09,13.76l-13.88,2.42c-.04,3.33.25,6.76.85,10.21.6,3.45,1.49,6.78,2.65,9.9l13.88-2.42ZM505.71,154.34c-2.41-13.84,6.86-27.02,20.7-29.43,13.84-2.41,27.02,6.86,29.43,20.7,2.41,13.84-6.86,27.02-20.7,29.43-13.84,2.41-27.02-6.86-29.43-20.7Z"/>
          </g>
        </g>
      </g>
    </g>
  </g>
</svg>