<svg width="24" height="24" viewBox="0 0 24 24" fill="none" xmlns="http://www.w3.org/2000/svg">
<g clip-path="url(#clip0_146_3571)">
<path d="M19.5 16C19.5 16.553 19.053 17 18.5 17H16.5C15.947 17 15.5 16.553 15.5 16C15.5 15.447 15.947 15 16.5 15H18.5C19.053 15 19.5 15.447 19.5 16ZM24 15V20C24 22.206 22.206 24 20 24H4C1.794 24 0 22.206 0 20V15C0 12.794 1.794 11 4 11H5V4C5 1.794 6.794 0 9 0H15C17.206 0 19 1.794 19 4V11H20C22.206 11 24 12.794 24 15ZM7 11H17V4C17 2.897 16.103 2 15 2H9C7.897 2 7 2.897 7 4V11ZM4 22H11V13H4C2.897 13 2 13.897 2 15V20C2 21.103 2.897 22 4 22ZM22 15C22 13.897 21.103 13 20 13H13V22H20C21.103 22 22 21.103 22 20V15ZM7.5 15H5.5C4.947 15 4.5 15.447 4.5 16C4.5 16.553 4.947 17 5.5 17H7.5C8.053 17 8.5 16.553 8.5 16C8.5 15.447 8.053 15 7.5 15ZM14 5C14 4.447 13.553 4 13 4H11C10.447 4 10 4.447 10 5C10 5.553 10.447 6 11 6H13C13.553 6 14 5.553 14 5Z" fill="#2BBBE3"/>
</g>
<defs>
<clipPath id="clip0_146_3571">
<rect width="24" height="24" fill="white"/>
</clipPath>
</defs>
</svg>
