<svg width="18" height="18" viewBox="0 0 18 18" fill="none" xmlns="http://www.w3.org/2000/svg">
<g clip-path="url(#clip0_146_3907)">
<path d="M14.25 0H3.75C2.7558 0.00119089 1.80267 0.396661 1.09966 1.09966C0.396661 1.80267 0.00119089 2.7558 0 3.75L0 14.25C0.00119089 15.2442 0.396661 16.1973 1.09966 16.9003C1.80267 17.6033 2.7558 17.9988 3.75 18H14.25C15.2442 17.9988 16.1973 17.6033 16.9003 16.9003C17.6033 16.1973 17.9988 15.2442 18 14.25V3.75C17.9988 2.7558 17.6033 1.80267 16.9003 1.09966C16.1973 0.396661 15.2442 0.00119089 14.25 0ZM16.5 3.75H11.25V1.5H14.25C14.8467 1.5 15.419 1.73705 15.841 2.15901C16.2629 2.58097 16.5 3.15326 16.5 3.75ZM8.25 1.5H9.75V5.25C9.75 5.44891 9.67098 5.63968 9.53033 5.78033C9.38968 5.92098 9.19891 6 9 6C8.80109 6 8.61032 5.92098 8.46967 5.78033C8.32902 5.63968 8.25 5.44891 8.25 5.25V1.5ZM3.75 1.5H6.75V3.75H1.5C1.5 3.15326 1.73705 2.58097 2.15901 2.15901C2.58097 1.73705 3.15326 1.5 3.75 1.5ZM14.25 16.5H3.75C3.15326 16.5 2.58097 16.2629 2.15901 15.841C1.73705 15.419 1.5 14.8467 1.5 14.25V5.25H6.75C6.75 5.84674 6.98705 6.41903 7.40901 6.84099C7.83097 7.26295 8.40326 7.5 9 7.5C9.59674 7.5 10.169 7.26295 10.591 6.84099C11.0129 6.41903 11.25 5.84674 11.25 5.25H16.5V14.25C16.5 14.8467 16.2629 15.419 15.841 15.841C15.419 16.2629 14.8467 16.5 14.25 16.5ZM15 14.25C15 14.4489 14.921 14.6397 14.7803 14.7803C14.6397 14.921 14.4489 15 14.25 15H12C11.8011 15 11.6103 14.921 11.4697 14.7803C11.329 14.6397 11.25 14.4489 11.25 14.25C11.25 14.0511 11.329 13.8603 11.4697 13.7197C11.6103 13.579 11.8011 13.5 12 13.5H14.25C14.4489 13.5 14.6397 13.579 14.7803 13.7197C14.921 13.8603 15 14.0511 15 14.25Z" fill="#374151"/>
</g>
<defs>
<clipPath id="clip0_146_3907">
<rect width="18" height="18" fill="white"/>
</clipPath>
</defs>
</svg>
