<svg width="16" height="16" viewBox="0 0 16 16" fill="none" xmlns="http://www.w3.org/2000/svg">
<path d="M9.41392 7.99998L15.707 1.70758C16.0976 1.31694 16.0976 0.683589 15.707 0.29298C15.3164 -0.0976601 14.683 -0.0976601 14.2924 0.29298L7.99998 6.58603L1.70758 0.29298C1.31694 -0.0976601 0.683589 -0.0976601 0.29298 0.29298C-0.0976288 0.68362 -0.0976601 1.31697 0.29298 1.70758L6.58603 7.99998L0.29298 14.2924C-0.0976601 14.683 -0.0976601 15.3164 0.29298 15.707C0.68362 16.0976 1.31697 16.0976 1.70758 15.707L7.99998 9.41392L14.2924 15.707C14.683 16.0976 15.3164 16.0976 15.707 15.707C16.0976 15.3164 16.0976 14.683 15.707 14.2924L9.41392 7.99998Z" fill="#111827"/>
</svg>
