<svg width="30" height="30" viewBox="0 0 30 30" fill="none" xmlns="http://www.w3.org/2000/svg">
<g clip-path="url(#clip0_50_1291)">
<path d="M27.895 2.91625C26.3587 1.58625 23.8512 0 20.625 0H9.375C6.14875 0 3.64 1.58625 2.105 2.91625C0.7675 4.07375 0 5.78 0 7.595V21.25C0 24.0075 2.2425 26.25 5 26.25H5.1775C5.73625 28.4013 7.67625 30 10 30H20C22.3237 30 24.2638 28.4013 24.8225 26.25H25C27.7575 26.25 30 24.0075 30 21.25V7.595C30 5.77875 29.2337 4.07375 27.895 2.91625ZM17.9463 2.5L15 9.375L12.0537 2.5H17.9463ZM10 27.5C8.62125 27.5 7.5 26.3787 7.5 25V21.25H10C10.6912 21.25 11.25 20.6912 11.25 20C11.25 19.3088 10.6912 18.75 10 18.75H7.5V11.25C7.5 10.56 6.94 10 6.25 10C5.56 10 5 10.56 5 11.25V23.75C3.62125 23.75 2.5 22.6287 2.5 21.25V7.595C2.5 6.505 2.95125 5.48875 3.74 4.80625C4.955 3.755 6.91875 2.50125 9.375 2.50125H9.58125L8.59 3.615C8.0125 4.4225 8.08 5.525 8.75125 6.25625L13.7513 11.2525V27.5012H10.0013L10 27.5ZM27.5 21.25C27.5 22.6287 26.3787 23.75 25 23.75V11.25C25 10.56 24.44 10 23.75 10C23.06 10 22.5 10.56 22.5 11.25V18.75H20C19.3088 18.75 18.75 19.3088 18.75 20C18.75 20.6912 19.3088 21.25 20 21.25H22.5V25C22.5 26.3787 21.3787 27.5 20 27.5H16.25V11.2513L21.25 6.255C21.9212 5.5225 21.9875 4.42125 21.4112 3.61375L20.42 2.5H20.6262C23.0825 2.5 25.0463 3.75375 26.2613 4.805C27.05 5.4875 27.5012 6.50375 27.5012 7.59375V21.2488L27.5 21.25Z" fill="#32D3A0"/>
</g>
<defs>
<clipPath id="clip0_50_1291">
<rect width="30" height="30" fill="white"/>
</clipPath>
</defs>
</svg>
