<svg width="12" height="12" viewBox="0 0 12 12" fill="none" xmlns="http://www.w3.org/2000/svg">
<g clip-path="url(#clip0_205_4018)">
<path d="M11.9996 5.62348C11.9273 4.45349 11.5142 3.33023 10.8112 2.39219C10.1082 1.45415 9.14609 0.742323 8.04345 0.344474C6.9408 -0.0533747 5.74584 -0.119857 4.60587 0.153224C3.4659 0.426305 2.43076 1.02701 1.62806 1.88129C0.825368 2.73556 0.290208 3.80606 0.0885587 4.96081C-0.113091 6.11555 0.027586 7.30407 0.493246 8.37983C0.958906 9.4556 1.72919 10.3716 2.70914 11.0149C3.68909 11.6581 4.83587 12.0006 6.00809 12H9.49959C10.1624 11.9993 10.7979 11.7357 11.2666 11.267C11.7353 10.7983 11.9989 10.1628 11.9996 9.49998V5.62348ZM10.9996 9.49998C10.9996 9.8978 10.8416 10.2793 10.5602 10.5606C10.2789 10.8419 9.89741 11 9.49959 11H6.00809C5.30255 10.9997 4.60501 10.8506 3.96094 10.5626C3.31686 10.2746 2.74072 9.8541 2.27009 9.32848C1.79717 8.80311 1.44205 8.18271 1.22853 7.50887C1.01502 6.83503 0.948037 6.12332 1.03209 5.42148C1.16481 4.31445 1.66218 3.28307 2.44581 2.48994C3.22943 1.69681 4.25474 1.18703 5.36009 1.04098C5.57571 1.01395 5.79278 1.00026 6.01009 0.999976C7.17533 0.996798 8.30449 1.40393 9.19959 2.14998C9.72235 2.58445 10.1514 3.12055 10.4609 3.72579C10.7703 4.33103 10.9535 4.9928 10.9996 5.67098V9.49998Z" fill="#374151"/>
<path d="M4 4.5H6C6.13261 4.5 6.25979 4.44732 6.35355 4.35355C6.44732 4.25979 6.5 4.13261 6.5 4C6.5 3.86739 6.44732 3.74021 6.35355 3.64645C6.25979 3.55268 6.13261 3.5 6 3.5H4C3.86739 3.5 3.74021 3.55268 3.64645 3.64645C3.55268 3.74021 3.5 3.86739 3.5 4C3.5 4.13261 3.55268 4.25979 3.64645 4.35355C3.74021 4.44732 3.86739 4.5 4 4.5Z" fill="#374151"/>
<path d="M8 5.5H4C3.86739 5.5 3.74021 5.55268 3.64645 5.64645C3.55268 5.74021 3.5 5.86739 3.5 6C3.5 6.13261 3.55268 6.25979 3.64645 6.35355C3.74021 6.44732 3.86739 6.5 4 6.5H8C8.13261 6.5 8.25979 6.44732 8.35355 6.35355C8.44732 6.25979 8.5 6.13261 8.5 6C8.5 5.86739 8.44732 5.74021 8.35355 5.64645C8.25979 5.55268 8.13261 5.5 8 5.5Z" fill="#374151"/>
<path d="M8 7.5H4C3.86739 7.5 3.74021 7.55268 3.64645 7.64645C3.55268 7.74021 3.5 7.86739 3.5 8C3.5 8.13261 3.55268 8.25979 3.64645 8.35355C3.74021 8.44732 3.86739 8.5 4 8.5H8C8.13261 8.5 8.25979 8.44732 8.35355 8.35355C8.44732 8.25979 8.5 8.13261 8.5 8C8.5 7.86739 8.44732 7.74021 8.35355 7.64645C8.25979 7.55268 8.13261 7.5 8 7.5Z" fill="#374151"/>
</g>
<defs>
<clipPath id="clip0_205_4018">
<rect width="12" height="12" fill="white"/>
</clipPath>
</defs>
</svg>
