<svg width="24" height="24" viewBox="0 0 24 24" fill="none" xmlns="http://www.w3.org/2000/svg">
<g clip-path="url(#clip0_146_3576)">
<path d="M15.9995 8C15.8119 7.81253 15.5576 7.70721 15.2925 7.70721C15.0273 7.70721 14.773 7.81253 14.5855 8L11.9995 10.586L9.41346 8C9.22486 7.81784 8.97226 7.71705 8.71006 7.71933C8.44786 7.72161 8.19705 7.82677 8.01164 8.01218C7.82623 8.19759 7.72107 8.4484 7.71879 8.7106C7.71651 8.9728 7.8173 9.2254 7.99946 9.414L10.5855 12L7.99946 14.586C7.8173 14.7746 7.71651 15.0272 7.71879 15.2894C7.72107 15.5516 7.82623 15.8024 8.01164 15.9878C8.19705 16.1732 8.44786 16.2784 8.71006 16.2807C8.97226 16.283 9.22486 16.1822 9.41346 16L11.9995 13.414L14.5855 16C14.7741 16.1822 15.0267 16.283 15.2889 16.2807C15.5511 16.2784 15.8019 16.1732 15.9873 15.9878C16.1727 15.8024 16.2779 15.5516 16.2801 15.2894C16.2824 15.0272 16.1816 14.7746 15.9995 14.586L13.4135 12L15.9995 9.414C16.1869 9.22647 16.2922 8.97216 16.2922 8.707C16.2922 8.44184 16.1869 8.18753 15.9995 8Z" fill="#F15B5B"/>
<path d="M12 0C9.62663 0 7.30655 0.703788 5.33316 2.02236C3.35977 3.34094 1.8217 5.21509 0.913451 7.4078C0.00519943 9.60051 -0.232441 12.0133 0.230582 14.3411C0.693605 16.6689 1.83649 18.8071 3.51472 20.4853C5.19295 22.1635 7.33115 23.3064 9.65892 23.7694C11.9867 24.2324 14.3995 23.9948 16.5922 23.0866C18.7849 22.1783 20.6591 20.6402 21.9776 18.6668C23.2962 16.6935 24 14.3734 24 12C23.9966 8.81846 22.7312 5.76821 20.4815 3.51852C18.2318 1.26883 15.1815 0.00344108 12 0ZM12 22C10.0222 22 8.08879 21.4135 6.4443 20.3147C4.79981 19.2159 3.51809 17.6541 2.76121 15.8268C2.00433 13.9996 1.8063 11.9889 2.19215 10.0491C2.578 8.10929 3.53041 6.32746 4.92894 4.92893C6.32746 3.53041 8.10929 2.578 10.0491 2.19215C11.9889 1.8063 13.9996 2.00433 15.8268 2.7612C17.6541 3.51808 19.2159 4.79981 20.3147 6.4443C21.4135 8.08879 22 10.0222 22 12C21.9971 14.6513 20.9426 17.1931 19.0679 19.0679C17.1931 20.9426 14.6513 21.9971 12 22Z" fill="#F15B5B"/>
</g>
<defs>
<clipPath id="clip0_146_3576">
<rect width="24" height="24" fill="white"/>
</clipPath>
</defs>
</svg>
