<svg width="12" height="12" viewBox="0 0 12 12" fill="none" xmlns="http://www.w3.org/2000/svg">
<path d="M4.42589 8.85C5.30456 9.7287 6.72919 9.7287 7.60788 8.85002L7.60791 8.85L9.21392 7.24399C9.51185 6.95623 9.5201 6.48143 9.23234 6.18349C8.94457 5.88556 8.46978 5.87731 8.17184 6.16507C8.16558 6.17109 8.15944 6.17726 8.15342 6.18349L6.76191 7.57449L6.7504 0.75C6.7504 0.335789 6.41461 0 6.0004 0C5.58619 0 5.2504 0.335789 5.2504 0.75L5.2609 7.56349L3.88041 6.183C3.58247 5.89524 3.10767 5.90348 2.81991 6.20142C2.5392 6.49207 2.5392 6.95285 2.81991 7.2435L4.42589 8.85Z" fill="#6B7280"/>
<path d="M11.25 7.25C10.8358 7.25 10.5 7.58579 10.5 8V10.2955C10.4997 10.4083 10.4083 10.4997 10.2955 10.5H1.70449C1.59166 10.4997 1.50026 10.4083 1.5 10.2955V8C1.5 7.58579 1.16421 7.25 0.75 7.25C0.335789 7.25 0 7.58579 0 8V10.2955C0.00110156 11.2364 0.763594 11.9989 1.70449 12H10.2955C11.2364 11.9989 11.9989 11.2364 12 10.2955V8.00002C12 7.58579 11.6642 7.25 11.25 7.25Z" fill="#6B7280"/>
</svg>
