<svg width="12" height="12" viewBox="0 0 12 12" fill="none" xmlns="http://www.w3.org/2000/svg">
<g clip-path="url(#clip0_137_2246)">
<path d="M9.32801 0.464975L3.23201 6.56098C2.99918 6.79255 2.8146 7.068 2.68895 7.3714C2.5633 7.67479 2.49908 8.00009 2.50001 8.32847V8.99998C2.50001 9.13258 2.55269 9.25976 2.64646 9.35353C2.74022 9.4473 2.8674 9.49998 3.00001 9.49998H3.67151C3.99989 9.5009 4.32519 9.43668 4.62859 9.31103C4.93198 9.18539 5.20744 9.0008 5.43901 8.76797L11.535 2.67197C11.8272 2.37906 11.9913 1.98221 11.9913 1.56848C11.9913 1.15474 11.8272 0.75789 11.535 0.464975C11.2378 0.180922 10.8426 0.0223999 10.4315 0.0223999C10.0204 0.0223999 9.62517 0.180922 9.32801 0.464975ZM10.828 1.96498L4.73201 8.06098C4.45007 8.34119 4.06901 8.49893 3.67151 8.49998H3.50001V8.32847C3.50105 7.93097 3.65879 7.54991 3.93901 7.26798L10.035 1.17198C10.1418 1.06995 10.2838 1.01302 10.4315 1.01302C10.5792 1.01302 10.7212 1.06995 10.828 1.17198C10.933 1.27723 10.9919 1.41982 10.9919 1.56848C10.9919 1.71713 10.933 1.85972 10.828 1.96498Z" fill="#6B7280"/>
<path d="M11.5 4.4895C11.3674 4.4895 11.2402 4.54218 11.1464 4.63595C11.0527 4.72972 11 4.85689 11 4.9895V7.5H9C8.60218 7.5 8.22064 7.65804 7.93934 7.93934C7.65804 8.22064 7.5 8.60218 7.5 9V11H2.5C2.10218 11 1.72064 10.842 1.43934 10.5607C1.15804 10.2794 1 9.89783 1 9.5V2.5C1 2.10218 1.15804 1.72064 1.43934 1.43934C1.72064 1.15804 2.10218 1 2.5 1H7.021C7.15361 1 7.28079 0.947322 7.37455 0.853554C7.46832 0.759785 7.521 0.632608 7.521 0.5C7.521 0.367392 7.46832 0.240215 7.37455 0.146447C7.28079 0.0526784 7.15361 0 7.021 0L2.5 0C1.8372 0.000793929 1.20178 0.264441 0.73311 0.73311C0.264441 1.20178 0.000793929 1.8372 0 2.5L0 9.5C0.000793929 10.1628 0.264441 10.7982 0.73311 11.2669C1.20178 11.7356 1.8372 11.9992 2.5 12H8.1715C8.49996 12.0009 8.82534 11.9367 9.12882 11.8111C9.43229 11.6854 9.70784 11.5008 9.9395 11.268L11.2675 9.939C11.5004 9.70744 11.685 9.43199 11.8108 9.1286C11.9365 8.82522 12.0008 8.49991 12 8.1715V4.9895C12 4.85689 11.9473 4.72972 11.8536 4.63595C11.7598 4.54218 11.6326 4.4895 11.5 4.4895ZM9.2325 10.561C9.03151 10.7615 8.77734 10.9003 8.5 10.961V9C8.5 8.86739 8.55268 8.74022 8.64645 8.64645C8.74022 8.55268 8.86739 8.5 9 8.5H10.9625C10.9006 8.77676 10.762 9.03047 10.5625 9.232L9.2325 10.561Z" fill="#6B7280"/>
</g>
<defs>
<clipPath id="clip0_137_2246">
<rect width="12" height="12" fill="white"/>
</clipPath>
</defs>
</svg>
