<svg width="18" height="18" viewBox="0 0 18 18" fill="none" xmlns="http://www.w3.org/2000/svg">
<g clip-path="url(#clip0_87_393)">
<path d="M18 9.05481C18 13.5466 14.7045 17.2703 10.4025 17.9461V11.6738H12.4943L12.8925 9.07881H10.4025V7.39506C10.4025 6.68481 10.7505 5.99331 11.865 5.99331H12.9967V3.78381C12.9967 3.78381 11.9692 3.60831 10.9875 3.60831C8.937 3.60831 7.5975 4.85106 7.5975 7.10031V9.07806H5.31825V11.6731H7.5975V17.9453C3.29625 17.2688 0 13.5458 0 9.05481C0 4.08456 4.02975 0.0548096 9 0.0548096C13.9703 0.0548096 18 4.08381 18 9.05481Z" fill="#374151"/>
</g>
<defs>
<clipPath id="clip0_87_393">
<rect width="18" height="18" fill="white"/>
</clipPath>
</defs>
</svg>
