<svg width="18" height="18" viewBox="0 0 18 18" fill="none" xmlns="http://www.w3.org/2000/svg">
<g clip-path="url(#clip0_146_3916)">
<path d="M13.1247 1.43774C12.2802 1.45088 11.4541 1.68663 10.7298 2.1212C10.0055 2.55576 9.40874 3.17375 8.99973 3.91274C8.5907 3.17375 7.99393 2.55576 7.26965 2.1212C6.54538 1.68663 5.71926 1.45088 4.87473 1.43774C3.52843 1.49624 2.26 2.08518 1.34656 3.07592C0.433119 4.06665 -0.0510883 5.37864 -0.000275422 6.72524C-0.000275422 10.1355 3.58922 13.86 6.59973 16.3852C7.27189 16.9501 8.12174 17.2598 8.99973 17.2598C9.87771 17.2598 10.7276 16.9501 11.3997 16.3852C14.4102 13.86 17.9997 10.1355 17.9997 6.72524C18.0505 5.37864 17.5663 4.06665 16.6529 3.07592C15.7394 2.08518 14.471 1.49624 13.1247 1.43774ZM10.436 15.2377C10.034 15.5763 9.52529 15.7619 8.99973 15.7619C8.47416 15.7619 7.96549 15.5763 7.56348 15.2377C3.70997 12.0045 1.49972 8.90249 1.49972 6.72524C1.44846 5.77628 1.7745 4.84554 2.40675 4.13602C3.039 3.4265 3.92615 2.99576 4.87473 2.93774C5.8233 2.99576 6.71045 3.4265 7.3427 4.13602C7.97495 4.84554 8.30099 5.77628 8.24973 6.72524C8.24973 6.92416 8.32874 7.11492 8.46939 7.25557C8.61005 7.39623 8.80081 7.47524 8.99973 7.47524C9.19864 7.47524 9.3894 7.39623 9.53006 7.25557C9.67071 7.11492 9.74973 6.92416 9.74973 6.72524C9.69846 5.77628 10.0245 4.84554 10.6567 4.13602C11.289 3.4265 12.1762 2.99576 13.1247 2.93774C14.0733 2.99576 14.9605 3.4265 15.5927 4.13602C16.225 4.84554 16.551 5.77628 16.4997 6.72524C16.4997 8.90249 14.2895 12.0045 10.436 15.2347V15.2377Z" fill="#374151"/>
</g>
<defs>
<clipPath id="clip0_146_3916">
<rect width="18" height="18" fill="white"/>
</clipPath>
</defs>
</svg>
