<svg width="14" height="14" viewBox="0 0 14 14" fill="none" xmlns="http://www.w3.org/2000/svg">
<g clip-path="url(#clip0_137_2266)">
<path d="M7.0013 3.5C6.53981 3.5 6.08869 3.63685 5.70497 3.89324C5.32126 4.14963 5.02219 4.51404 4.84558 4.94041C4.66898 5.36677 4.62277 5.83592 4.7128 6.28854C4.80284 6.74117 5.02506 7.15693 5.35139 7.48325C5.67771 7.80957 6.09347 8.0318 6.54609 8.12183C6.99871 8.21186 7.46787 8.16566 7.89423 7.98905C8.32059 7.81245 8.68501 7.51338 8.9414 7.12966C9.19779 6.74595 9.33464 6.29482 9.33464 5.83333C9.33464 5.21449 9.0888 4.621 8.65122 4.18342C8.21363 3.74583 7.62014 3.5 7.0013 3.5ZM7.0013 7C6.77056 7 6.545 6.93158 6.35314 6.80338C6.16128 6.67519 6.01175 6.49298 5.92344 6.2798C5.83514 6.06662 5.81204 5.83204 5.85705 5.60573C5.90207 5.37942 6.01318 5.17154 6.17635 5.00838C6.33951 4.84521 6.54739 4.7341 6.7737 4.68908C7.00001 4.64407 7.23459 4.66717 7.44777 4.75547C7.66095 4.84378 7.84316 4.99331 7.97135 5.18517C8.09955 5.37703 8.16797 5.60259 8.16797 5.83333C8.16797 6.14275 8.04505 6.4395 7.82626 6.65829C7.60747 6.87708 7.31072 7 7.0013 7Z" fill="#374151"/>
<path d="M7.00018 14C6.50898 14.0025 6.02433 13.8873 5.5868 13.664C5.14928 13.4408 4.77161 13.1159 4.48543 12.7167C2.26235 9.65009 1.13477 7.34476 1.13477 5.86426C1.13477 4.30865 1.75273 2.81676 2.85271 1.71678C3.95269 0.616802 5.44458 -0.00115967 7.00018 -0.00115967C8.55579 -0.00115967 10.0477 0.616802 11.1477 1.71678C12.2476 2.81676 12.8656 4.30865 12.8656 5.86426C12.8656 7.34476 11.738 9.65009 9.51493 12.7167C9.22875 13.1159 8.85109 13.4408 8.41356 13.664C7.97604 13.8873 7.49138 14.0025 7.00018 14ZM7.00018 1.27226C5.78243 1.27365 4.61494 1.75801 3.75386 2.6191C2.89277 3.48018 2.40841 4.64767 2.40702 5.86542C2.40702 7.03792 3.51127 9.20617 5.5156 11.9706C5.68575 12.205 5.90898 12.3957 6.16702 12.5272C6.42505 12.6588 6.71056 12.7273 7.00018 12.7273C7.28981 12.7273 7.57532 12.6588 7.83335 12.5272C8.09138 12.3957 8.31461 12.205 8.48477 11.9706C10.4891 9.20617 11.5934 7.03792 11.5934 5.86542C11.592 4.64767 11.1076 3.48018 10.2465 2.6191C9.38542 1.75801 8.21794 1.27365 7.00018 1.27226Z" fill="#374151"/>
</g>
<defs>
<clipPath id="clip0_137_2266">
<rect width="14" height="14" fill="white"/>
</clipPath>
</defs>
</svg>
