<svg width="14" height="14" viewBox="0 0 14 14" fill="none" xmlns="http://www.w3.org/2000/svg">
<g clip-path="url(#clip0_279_518)">
<path d="M6.99984 3.5C6.53835 3.5 6.08722 3.63685 5.70351 3.89324C5.31979 4.14963 5.02072 4.51404 4.84412 4.94041C4.66751 5.36677 4.62131 5.83592 4.71134 6.28854C4.80137 6.74117 5.0236 7.15693 5.34992 7.48325C5.67625 7.80957 6.09201 8.0318 6.54463 8.12183C6.99725 8.21186 7.46641 8.16566 7.89277 7.98905C8.31913 7.81245 8.68354 7.51338 8.93993 7.12966C9.19632 6.74595 9.33317 6.29482 9.33317 5.83333C9.33317 5.21449 9.08734 4.621 8.64975 4.18342C8.21217 3.74583 7.61868 3.5 6.99984 3.5ZM6.99984 7C6.76909 7 6.54353 6.93158 6.35167 6.80338C6.15982 6.67519 6.01028 6.49298 5.92198 6.2798C5.83368 6.06662 5.81057 5.83204 5.85559 5.60573C5.90061 5.37942 6.01172 5.17154 6.17488 5.00838C6.33804 4.84521 6.54592 4.7341 6.77223 4.68908C6.99854 4.64407 7.23312 4.66717 7.4463 4.75547C7.65948 4.84378 7.84169 4.99331 7.96989 5.18517C8.09808 5.37703 8.16651 5.60259 8.16651 5.83333C8.16651 6.14275 8.04359 6.4395 7.8248 6.65829C7.606 6.87708 7.30926 7 6.99984 7Z" fill="#6B7280"/>
<path d="M7.00018 13.9999C6.50898 14.0025 6.02433 13.8873 5.5868 13.664C5.14928 13.4407 4.77161 13.1158 4.48543 12.7166C2.26235 9.65003 1.13477 7.3447 1.13477 5.8642C1.13477 4.30859 1.75273 2.8167 2.85271 1.71672C3.95269 0.616741 5.44458 -0.0012207 7.00018 -0.0012207C8.55579 -0.0012207 10.0477 0.616741 11.1477 1.71672C12.2476 2.8167 12.8656 4.30859 12.8656 5.8642C12.8656 7.3447 11.738 9.65003 9.51493 12.7166C9.22875 13.1158 8.85109 13.4407 8.41356 13.664C7.97604 13.8873 7.49138 14.0025 7.00018 13.9999ZM7.00018 1.2722C5.78243 1.27359 4.61494 1.75795 3.75386 2.61904C2.89277 3.48012 2.40841 4.64761 2.40702 5.86536C2.40702 7.03786 3.51127 9.20611 5.5156 11.9705C5.68575 12.2049 5.90898 12.3957 6.16702 12.5272C6.42505 12.6587 6.71056 12.7273 7.00018 12.7273C7.28981 12.7273 7.57532 12.6587 7.83335 12.5272C8.09138 12.3957 8.31461 12.2049 8.48477 11.9705C10.4891 9.20611 11.5934 7.03786 11.5934 5.86536C11.592 4.64761 11.1076 3.48012 10.2465 2.61904C9.38542 1.75795 8.21794 1.27359 7.00018 1.2722Z" fill="#6B7280"/>
</g>
<defs>
<clipPath id="clip0_279_518">
<rect width="14" height="14" fill="white"/>
</clipPath>
</defs>
</svg>
