<svg width="16" height="16" viewBox="0 0 16 16" fill="none" xmlns="http://www.w3.org/2000/svg">
<path d="M14.7801 1.21167L14.0801 0.605C13.2735 -0.201667 11.9668 -0.201667 11.1601 0.605C11.1401 0.625 9.90679 2.23167 9.90679 2.23167C9.14679 3.03167 9.14679 4.29167 9.90679 5.085L10.6801 6.05833C9.70679 8.265 8.19346 9.785 6.06013 10.6917L5.08679 9.91167C4.29346 9.145 3.02679 9.145 2.23346 9.91167C2.23346 9.91167 0.626791 11.145 0.606791 11.165C-0.199876 11.9717 -0.199875 13.2783 0.573458 14.0517L1.24012 14.8183C2.00679 15.585 3.04012 16.005 4.16012 16.005C9.25346 16.005 16.0001 9.25167 16.0001 4.165C16.0001 3.05167 15.5801 2.01167 14.7801 1.21833V1.21167ZM4.16012 14.665C3.40012 14.665 2.70012 14.385 2.22012 13.8983L1.55346 13.1317C1.28012 12.8583 1.26679 12.4117 1.52679 12.125C1.52679 12.125 3.12013 10.8983 3.14013 10.8783C3.41346 10.605 3.89346 10.605 4.17346 10.8783C4.19346 10.8983 5.53346 11.9717 5.53346 11.9717C5.72013 12.1183 5.96679 12.1583 6.18679 12.0717C8.94679 11.0183 10.9268 9.045 12.0668 6.19833C12.1535 5.97833 12.1201 5.725 11.9668 5.53167C11.9668 5.53167 10.8935 4.185 10.8801 4.17167C10.5935 3.885 10.5935 3.425 10.8801 3.13833C10.9001 3.11833 12.1268 1.525 12.1268 1.525C12.4135 1.265 12.8601 1.27167 13.1668 1.57833L13.8668 2.185C14.3801 2.69833 14.6668 3.39833 14.6668 4.15833C14.6668 8.79833 8.15346 14.665 4.16012 14.665Z" fill="#32D3A0"/>
</svg>
