<svg width="14" height="14" viewBox="0 0 14 14" fill="none" xmlns="http://www.w3.org/2000/svg">
<path d="M12.9328 1.06021L12.3203 0.529375C11.6145 -0.176458 10.4711 -0.176458 9.76529 0.529375C9.74779 0.546875 8.66863 1.95271 8.66863 1.95271C8.00363 2.65271 8.00363 3.75521 8.66863 4.44938L9.34529 5.30104C8.49363 7.23188 7.16946 8.56188 5.30279 9.35521L4.45113 8.67271C3.75696 8.00188 2.64863 8.00188 1.95446 8.67271C1.95446 8.67271 0.548625 9.75187 0.531125 9.76938C-0.174708 10.4752 -0.174708 11.6185 0.501959 12.2952L1.08529 12.966C1.75613 13.6369 2.66029 14.0044 3.64029 14.0044C8.09696 14.0044 14.0003 8.09521 14.0003 3.64438C14.0003 2.67021 13.6328 1.76021 12.9328 1.06604V1.06021ZM3.64029 12.8319C2.97529 12.8319 2.36279 12.5869 1.94279 12.161L1.35946 11.4902C1.12029 11.251 1.10863 10.8602 1.33613 10.6094C1.33613 10.6094 2.73029 9.53604 2.74779 9.51854C2.98696 9.27938 3.40696 9.27938 3.65196 9.51854C3.66946 9.53604 4.84196 10.4752 4.84196 10.4752C5.00529 10.6035 5.22113 10.6385 5.41363 10.5627C7.82863 9.64104 9.56113 7.91438 10.5586 5.42354C10.6345 5.23104 10.6053 5.00938 10.4711 4.84021C10.4711 4.84021 9.53196 3.66188 9.52029 3.65021C9.26946 3.39938 9.26946 2.99688 9.52029 2.74604C9.53779 2.72854 10.6111 1.33438 10.6111 1.33438C10.862 1.10688 11.2528 1.11271 11.5211 1.38104L12.1336 1.91188C12.5828 2.36104 12.8336 2.97354 12.8336 3.63854C12.8336 7.69854 7.13446 12.8319 3.64029 12.8319Z" fill="#374151"/>
</svg>
