<svg width="18" height="18" viewBox="0 0 18 18" fill="none" xmlns="http://www.w3.org/2000/svg">
<g clip-path="url(#clip0_88_407)">
<path d="M16.6275 1.36496L15.84 0.682456C14.9325 -0.225044 13.4625 -0.225044 12.555 0.682456C12.5325 0.704956 11.145 2.51246 11.145 2.51246C10.29 3.41246 10.29 4.82996 11.145 5.72246L12.015 6.81746C10.92 9.29996 9.21746 11.01 6.81746 12.03L5.72246 11.1525C4.82996 10.29 3.40496 10.29 2.51246 11.1525C2.51246 11.1525 0.704957 12.54 0.682457 12.5625C-0.225043 13.47 -0.225043 14.94 0.644957 15.81L1.39496 16.6725C2.25746 17.535 3.41996 18.0075 4.67996 18.0075C10.41 18.0075 18 10.41 18 4.68746C18 3.43496 17.5275 2.26496 16.6275 1.37246V1.36496ZM4.67996 16.5C3.82496 16.5 3.03746 16.185 2.49746 15.6375L1.74746 14.775C1.43996 14.4675 1.42496 13.965 1.71746 13.6425C1.71746 13.6425 3.50996 12.2625 3.53246 12.24C3.83996 11.9325 4.37996 11.9325 4.69496 12.24C4.71746 12.2625 6.22496 13.47 6.22496 13.47C6.43496 13.635 6.71246 13.68 6.95996 13.5825C10.065 12.3975 12.2925 10.1775 13.575 6.97496C13.6725 6.72746 13.635 6.44246 13.4625 6.22496C13.4625 6.22496 12.255 4.70996 12.24 4.69496C11.9175 4.37246 11.9175 3.85496 12.24 3.53246C12.2625 3.50996 13.6425 1.71746 13.6425 1.71746C13.965 1.42496 14.4675 1.43246 14.8125 1.77746L15.6 2.45996C16.1775 3.03746 16.5 3.82496 16.5 4.67996C16.5 9.89996 9.17246 16.5 4.67996 16.5Z" fill="#9CA3AF"/>
</g>
<defs>
<clipPath id="clip0_88_407">
<rect width="18" height="18" fill="white"/>
</clipPath>
</defs>
</svg>
