<svg width="16" height="15" viewBox="0 0 16 15" fill="none" xmlns="http://www.w3.org/2000/svg">
<path d="M12.6667 2.66667H11.3333V2C11.3333 1.46957 11.1226 0.960859 10.7475 0.585786C10.3725 0.210714 9.86377 0 9.33333 0H2C1.46957 0 0.960859 0.210714 0.585786 0.585786C0.210714 0.960859 0 1.46957 0 2L0 12H1.36067C1.34351 12.1103 1.33438 12.2217 1.33333 12.3333C1.33333 12.9522 1.57917 13.5457 2.01675 13.9832C2.45434 14.4208 3.04783 14.6667 3.66667 14.6667C4.28551 14.6667 4.879 14.4208 5.31658 13.9832C5.75417 13.5457 6 12.9522 6 12.3333C5.99896 12.2217 5.98982 12.1103 5.97267 12H10.0273C10.0102 12.1103 10.001 12.2217 10 12.3333C10 12.9522 10.2458 13.5457 10.6834 13.9832C11.121 14.4208 11.7145 14.6667 12.3333 14.6667C12.9522 14.6667 13.5457 14.4208 13.9832 13.9832C14.4208 13.5457 14.6667 12.9522 14.6667 12.3333C14.6656 12.2217 14.6565 12.1103 14.6393 12H16V6C15.9989 5.11627 15.6474 4.26904 15.0225 3.64415C14.3976 3.01925 13.5504 2.66773 12.6667 2.66667ZM12.6667 4C13.1971 4 13.7058 4.21071 14.0809 4.58579C14.456 4.96086 14.6667 5.46957 14.6667 6V6.66667H11.3333V4H12.6667ZM4.66667 12.3333C4.66667 12.5985 4.56131 12.8529 4.37377 13.0404C4.18624 13.228 3.93188 13.3333 3.66667 13.3333C3.40145 13.3333 3.1471 13.228 2.95956 13.0404C2.77202 12.8529 2.66667 12.5985 2.66667 12.3333C2.66708 12.2194 2.68808 12.1065 2.72867 12H4.60467C4.64525 12.1065 4.66626 12.2194 4.66667 12.3333ZM10 10.6667H1.33333V2C1.33333 1.82319 1.40357 1.65362 1.5286 1.5286C1.65362 1.40357 1.82319 1.33333 2 1.33333H9.33333C9.51014 1.33333 9.67971 1.40357 9.80474 1.5286C9.92976 1.65362 10 1.82319 10 2V10.6667ZM13.3333 12.3333C13.3333 12.5985 13.228 12.8529 13.0404 13.0404C12.8529 13.228 12.5985 13.3333 12.3333 13.3333C12.0681 13.3333 11.8138 13.228 11.6262 13.0404C11.4387 12.8529 11.3333 12.5985 11.3333 12.3333C11.3336 12.2194 11.3546 12.1064 11.3953 12H13.2713C13.312 12.1064 13.333 12.2194 13.3333 12.3333ZM11.3333 10.6667V8H14.6667V10.6667H11.3333Z" fill="#32D3A0"/>
</svg>
