<svg width="24" height="24" viewBox="0 0 24 24" fill="none" xmlns="http://www.w3.org/2000/svg">
<g clip-path="url(#clip0_235_1638)">
<path d="M12.0095 0C5.38753 0 0.0195312 5.368 0.0195312 11.99C0.0195312 17.072 3.17753 21.414 7.63753 23.161C7.52853 22.214 7.44053 20.753 7.67653 19.717C7.89353 18.779 9.07753 13.756 9.07753 13.756C9.07753 13.756 8.72253 13.036 8.72253 11.98C8.72253 10.312 9.68953 9.069 10.8935 9.069C11.9195 9.069 12.4135 9.839 12.4135 10.757C12.4135 11.783 11.7625 13.323 11.4165 14.754C11.1305 15.948 12.0185 16.925 13.1925 16.925C15.3245 16.925 16.9625 14.675 16.9625 11.438C16.9625 8.566 14.9005 6.563 11.9495 6.563C8.53553 6.563 6.53153 9.119 6.53153 11.764C6.53153 12.79 6.92653 13.896 7.41953 14.498C7.51953 14.615 7.52953 14.724 7.49953 14.842C7.41053 15.217 7.20353 16.036 7.16353 16.204C7.11453 16.421 6.98553 16.47 6.75853 16.362C5.25853 15.661 4.32053 13.48 4.32053 11.714C4.32053 7.934 7.06353 4.461 12.2445 4.461C16.3995 4.461 19.6355 7.422 19.6355 11.389C19.6355 15.524 17.0305 18.85 13.4185 18.85C12.2045 18.85 11.0595 18.218 10.6755 17.468C10.6755 17.468 10.0735 19.757 9.92553 20.32C9.65953 21.366 8.92853 22.669 8.43553 23.468C9.56153 23.812 10.7465 24 11.9895 24C18.6115 24 23.9795 18.632 23.9795 12.01C23.9995 5.368 18.6315 0 12.0095 0Z" fill="white"/>
</g>
<defs>
<clipPath id="clip0_235_1638">
<rect width="24" height="24" fill="white"/>
</clipPath>
</defs>
</svg>
