<svg width="18" height="18" viewBox="0 0 18 18" fill="none" xmlns="http://www.w3.org/2000/svg">
<g clip-path="url(#clip0_170_5422)">
<path d="M9 0C7.21997 0 5.47991 0.527841 3.99987 1.51677C2.51983 2.50571 1.36628 3.91131 0.685088 5.55585C0.00389957 7.20038 -0.17433 9.00998 0.172937 10.7558C0.520204 12.5016 1.37737 14.1053 2.63604 15.364C3.89472 16.6226 5.49836 17.4798 7.24419 17.8271C8.99002 18.1743 10.7996 17.9961 12.4442 17.3149C14.0887 16.6337 15.4943 15.4802 16.4832 14.0001C17.4722 12.5201 18 10.78 18 9C17.9974 6.61384 17.0484 4.32616 15.3611 2.63889C13.6738 0.951621 11.3862 0.00258081 9 0ZM9 16.5C7.51664 16.5 6.0666 16.0601 4.83323 15.236C3.59986 14.4119 2.63856 13.2406 2.07091 11.8701C1.50325 10.4997 1.35473 8.99168 1.64411 7.53682C1.9335 6.08197 2.64781 4.74559 3.6967 3.6967C4.7456 2.64781 6.08197 1.9335 7.53683 1.64411C8.99168 1.35472 10.4997 1.50325 11.8701 2.0709C13.2406 2.63856 14.4119 3.59985 15.236 4.83322C16.0601 6.06659 16.5 7.51664 16.5 9C16.4978 10.9885 15.7069 12.8948 14.3009 14.3009C12.8948 15.7069 10.9885 16.4978 9 16.5Z" fill="#32D3A0"/>
<path d="M9.53775 3.79725C9.10525 3.71844 8.66071 3.73566 8.2356 3.84768C7.81048 3.95969 7.41518 4.16377 7.07767 4.44547C6.74016 4.72718 6.46868 5.07961 6.28246 5.47785C6.09623 5.87608 5.9998 6.31037 6 6.75C6 6.94891 6.07902 7.13967 6.21967 7.28033C6.36032 7.42098 6.55109 7.5 6.75 7.5C6.94891 7.5 7.13968 7.42098 7.28033 7.28033C7.42098 7.13967 7.5 6.94891 7.5 6.75C7.49981 6.52933 7.54831 6.31134 7.64204 6.11157C7.73578 5.91179 7.87243 5.73516 8.04226 5.59427C8.2121 5.45337 8.41092 5.35169 8.62457 5.29646C8.83821 5.24123 9.06141 5.23381 9.27825 5.27475C9.57453 5.33226 9.84694 5.47679 10.0607 5.68986C10.2744 5.90294 10.4198 6.1749 10.4783 6.471C10.5373 6.7818 10.4965 7.1033 10.3618 7.38955C10.2271 7.67579 10.0054 7.91212 9.72825 8.06475C9.26938 8.3306 8.89019 8.71463 8.63019 9.17685C8.3702 9.63906 8.23891 10.1625 8.25 10.6927V11.25C8.25 11.4489 8.32902 11.6397 8.46967 11.7803C8.61032 11.921 8.80109 12 9 12C9.19891 12 9.38968 11.921 9.53033 11.7803C9.67098 11.6397 9.75 11.4489 9.75 11.25V10.6927C9.74059 10.4318 9.8001 10.1729 9.92255 9.94222C10.045 9.71154 10.2261 9.51719 10.4475 9.37875C10.9909 9.0803 11.4285 8.62084 11.7001 8.06355C11.9717 7.50626 12.0639 6.87852 11.9642 6.26664C11.8645 5.65477 11.5776 5.08882 11.1431 4.64662C10.7086 4.20442 10.1478 3.90769 9.53775 3.79725Z" fill="#32D3A0"/>
<path d="M9.75 13.5C9.75 13.0858 9.41421 12.75 9 12.75C8.58579 12.75 8.25 13.0858 8.25 13.5C8.25 13.9142 8.58579 14.25 9 14.25C9.41421 14.25 9.75 13.9142 9.75 13.5Z" fill="#32D3A0"/>
</g>
<defs>
<clipPath id="clip0_170_5422">
<rect width="18" height="18" fill="white"/>
</clipPath>
</defs>
</svg>
