<svg width="30" height="30" viewBox="0 0 30 30" fill="none" xmlns="http://www.w3.org/2000/svg">
<g clip-path="url(#clip0_50_1441)">
<path d="M10 15C14.1362 15 17.5 11.6362 17.5 7.5C17.5 3.36375 14.1362 0 10 0C5.86375 0 2.5 3.36375 2.5 7.5C2.5 11.6362 5.86375 15 10 15ZM10 2.5C12.7575 2.5 15 4.7425 15 7.5C15 10.2575 12.7575 12.5 10 12.5C7.2425 12.5 5 10.2575 5 7.5C5 4.7425 7.2425 2.5 10 2.5ZM12.5 18.75C12.5 19.44 11.94 20 11.25 20C6.425 20 2.5 23.925 2.5 28.75C2.5 29.44 1.94 30 1.25 30C0.56 30 0 29.44 0 28.75C0 22.5475 5.0475 17.5 11.25 17.5C11.94 17.5 12.5 18.06 12.5 18.75ZM29.555 22.19L26.5975 24.5988L27.8213 28.3237C27.9888 28.8275 27.8187 29.3825 27.3975 29.7062C26.9762 30.03 26.3962 30.0525 25.9525 29.7638L22.51 27.5225L19.125 29.7875C18.915 29.9287 18.6725 29.9988 18.43 29.9988C18.1663 29.9988 17.9025 29.915 17.68 29.7487C17.255 29.4312 17.0788 28.8787 17.2375 28.3725L18.4137 24.6025L15.4425 22.185C15.0425 21.8462 14.8963 21.2938 15.0775 20.8013C15.2587 20.3088 15.7262 19.9825 16.25 19.9825H20.0012L21.3288 16.2575C21.5112 15.7687 21.9788 15.4437 22.5 15.4437C23.0212 15.4437 23.49 15.7687 23.6712 16.2575L24.9988 19.9825H28.75C29.275 19.9825 29.7437 20.3112 29.9237 20.8037C30.1037 21.2962 29.9562 21.85 29.555 22.1887V22.19Z" fill="white"/>
</g>
<defs>
<clipPath id="clip0_50_1441">
<rect width="30" height="30" fill="white"/>
</clipPath>
</defs>
</svg>
