<svg width="24" height="24" viewBox="0 0 24 24" fill="none" xmlns="http://www.w3.org/2000/svg">
<path d="M21.773 3.98002L20.636 3.22202L18.871 1.45702C17.941 0.527019 16.653 -0.00598145 15.338 -0.00598145H15.333L8.64602 -0.000981445C7.32702 -0.000981445 6.03802 0.537019 5.10702 1.47102L3.36202 3.22402L2.22602 3.98102C0.832023 4.91002 -0.000976562 6.46502 -0.000976562 8.14102V19C-0.000976562 21.757 2.24202 24 4.99902 24H5.99902C6.55102 24 6.99902 23.552 6.99902 23C6.99902 22.448 6.55102 22 5.99902 22H4.99902C3.34502 22 1.99902 20.654 1.99902 19V8.14102C1.99902 7.13602 2.49902 6.20302 3.33502 5.64502L3.87202 5.28702L9.76202 11.177L8.11502 18.515C7.81602 19.562 8.10802 20.691 8.84402 21.425L10.621 23.389C10.973 23.778 11.475 24.001 11.999 24.001H12C12.523 24.001 13.026 23.779 13.378 23.391L15.085 21.507C15.83 20.786 16.153 19.71 15.926 18.695L14.237 11.176L20.126 5.28702L20.663 5.64502C21.499 6.20302 21.999 7.13602 21.999 8.14102V19C21.999 20.654 20.653 22 18.999 22H17.999C17.447 22 16.999 22.448 16.999 23C16.999 23.552 17.447 24 17.999 24H18.999C21.756 24 23.999 21.757 23.999 19V8.14102C23.999 6.46502 23.166 4.91002 21.772 3.98102L21.773 3.98002ZM14.591 1.99402L11.999 4.58602L9.41102 1.99802L14.591 1.99402ZM6.52402 2.88202C6.68302 2.72202 6.85902 2.58202 7.04802 2.46402L10.855 6.27102L10.062 8.65002L5.41302 3.99902L6.52402 2.88202ZM13.649 20.115L12 21.932L10.292 20.046C10.035 19.789 9.93802 19.413 10.052 19.008L11.999 10.336L13.975 19.131C14.051 19.468 13.943 19.828 13.649 20.115ZM13.936 8.64902L13.143 6.27002L16.948 2.46502C17.131 2.58202 17.302 2.71802 17.457 2.87202L18.585 4.00002L13.936 8.64902Z" fill="#32D3A0"/>
</svg>
