<svg width="24" height="24" viewBox="0 0 24 24" fill="none" xmlns="http://www.w3.org/2000/svg">
<path d="M16.7802 4.83793L12.2295 3.32054C12.0805 3.27092 11.9195 3.27092 11.7705 3.32054L7.21978 4.83793C6.49625 5.07827 5.86686 5.54051 5.42103 6.15898C4.97521 6.77745 4.73563 7.52068 4.73633 8.28309V11.9999C4.73633 17.4934 11.4189 20.5275 11.7051 20.6538C11.7979 20.6951 11.8984 20.7164 12 20.7164C12.1016 20.7164 12.2021 20.6951 12.2949 20.6538C12.5811 20.5275 19.2637 17.4934 19.2637 11.9999V8.28309C19.2644 7.52068 19.0248 6.77745 18.579 6.15898C18.1331 5.54051 17.5038 5.07827 16.7802 4.83793ZM17.8109 11.9999C17.8109 15.9622 13.221 18.5612 12 19.183C10.7775 18.5634 6.18906 15.9724 6.18906 11.9999V8.28309C6.18911 7.82568 6.33308 7.37988 6.6006 7.00885C6.86811 6.63782 7.2456 6.36039 7.67957 6.21585L12 4.77546L16.3204 6.21585C16.7544 6.36039 17.1319 6.63782 17.3994 7.00885C17.6669 7.37988 17.8109 7.82568 17.8109 8.28309V11.9999Z" fill="white"/>
<path d="M14.3963 9.31249L11.3542 12.3632L9.72428 10.6635C9.65886 10.592 9.5798 10.5343 9.49174 10.4938C9.40368 10.4533 9.3084 10.4309 9.21153 10.4278C9.11466 10.4247 9.01814 10.441 8.92767 10.4757C8.8372 10.5105 8.75461 10.5631 8.68475 10.6302C8.61489 10.6974 8.55919 10.7779 8.52093 10.867C8.48266 10.956 8.4626 11.0518 8.46193 11.1487C8.46126 11.2457 8.48 11.3417 8.51703 11.4313C8.55407 11.5209 8.60866 11.6021 8.67758 11.6703L10.3526 13.4136C10.4775 13.5485 10.6285 13.6567 10.7964 13.7316C10.9643 13.8065 11.1457 13.8466 11.3295 13.8494H11.3535C11.5337 13.85 11.7122 13.8148 11.8787 13.7458C12.0451 13.6769 12.1962 13.5755 12.3232 13.4477L15.4263 10.3447C15.494 10.277 15.5478 10.1967 15.5846 10.1083C15.6213 10.0199 15.6402 9.92509 15.6403 9.82934C15.6404 9.7336 15.6217 9.63877 15.5851 9.55027C15.5486 9.46178 15.495 9.38135 15.4273 9.31358C15.3597 9.2458 15.2794 9.19201 15.191 9.15528C15.1026 9.11855 15.0078 9.09959 14.912 9.09949C14.8163 9.09939 14.7215 9.11814 14.633 9.15469C14.5445 9.19124 14.464 9.24486 14.3963 9.31249Z" fill="white"/>
</svg>
