<svg width="30" height="30" viewBox="0 0 30 30" fill="none" xmlns="http://www.w3.org/2000/svg">
<path d="M27.216 4.97505L25.7948 4.02755L23.5885 1.8213C22.426 0.658804 20.816 -0.00744629 19.1723 -0.00744629H19.166L10.8073 -0.00119629C9.15854 -0.00119629 7.54729 0.671304 6.38353 1.8388L4.20228 4.03005L2.78229 4.9763C1.03979 6.13755 -0.00146484 8.0813 -0.00146484 10.1763V23.7501C-0.00146484 27.1963 2.80229 30.0001 6.24854 30.0001H7.49854C8.18853 30.0001 8.74854 29.4401 8.74854 28.7501C8.74854 28.0601 8.18853 27.5001 7.49854 27.5001H6.24854C4.18104 27.5001 2.49854 25.8176 2.49854 23.7501V10.1763C2.49854 8.92005 3.12354 7.7538 4.16854 7.0563L4.83979 6.6088L12.2023 13.9713L10.1435 23.1438C9.76978 24.4526 10.1348 25.8638 11.0548 26.7813L13.276 29.2363C13.716 29.7226 14.3435 30.0013 14.9985 30.0013H14.9998C15.6535 30.0013 16.2823 29.7238 16.7223 29.2388L18.856 26.8838C19.7873 25.9826 20.191 24.6376 19.9073 23.3688L17.796 13.9701L25.1573 6.6088L25.8285 7.0563C26.8735 7.7538 27.4985 8.92005 27.4985 10.1763V23.7501C27.4985 25.8176 25.816 27.5001 23.7485 27.5001H22.4985C21.8085 27.5001 21.2485 28.0601 21.2485 28.7501C21.2485 29.4401 21.8085 30.0001 22.4985 30.0001H23.7485C27.1948 30.0001 29.9985 27.1963 29.9985 23.7501V10.1763C29.9985 8.0813 28.9573 6.13755 27.2148 4.9763L27.216 4.97505ZM18.2385 2.49255L14.9985 5.73255L11.7635 2.49755L18.2385 2.49255ZM8.15479 3.60255C8.35354 3.40255 8.57353 3.22755 8.80978 3.08005L13.5685 7.8388L12.5773 10.8126L6.76604 4.9988L8.15479 3.60255ZM17.061 25.1438L14.9998 27.4151L12.8648 25.0576C12.5435 24.7363 12.4223 24.2663 12.5648 23.7601L14.9985 12.9201L17.4685 23.9138C17.5635 24.3351 17.4285 24.7851 17.061 25.1438ZM17.4198 10.8113L16.4285 7.83755L21.1848 3.0813C21.4135 3.22755 21.6273 3.39755 21.821 3.59005L23.231 5.00005L17.4198 10.8113Z" fill="#32D3A0"/>
</svg>
