<svg width="18" height="18" viewBox="0 0 18 18" fill="none" xmlns="http://www.w3.org/2000/svg">
<g clip-path="url(#clip0_375_5328)">
<path d="M17.1222 6.87894L14.2129 3.96969C14.0715 3.83307 13.882 3.75747 13.6854 3.75918C13.4887 3.76089 13.3006 3.83977 13.1616 3.97883C13.0225 4.11788 12.9436 4.30599 12.9419 4.50264C12.9402 4.69929 13.0158 4.88874 13.1524 5.03019L16.0617 7.93944C16.1481 8.02759 16.2237 8.12579 16.2867 8.23194C16.2754 8.23194 16.2664 8.22594 16.2552 8.22594L4.49219 8.24994C4.29328 8.24994 4.10251 8.32896 3.96186 8.46961C3.82121 8.61026 3.74219 8.80103 3.74219 8.99994C3.74219 9.19885 3.82121 9.38962 3.96186 9.53027C4.10251 9.67092 4.29328 9.74994 4.49219 9.74994L16.2507 9.72594C16.2717 9.72594 16.2889 9.71544 16.3092 9.71394C16.2427 9.84081 16.1583 9.95749 16.0587 10.0604L13.1494 12.9697C13.0778 13.0389 13.0207 13.1216 12.9814 13.2131C12.9421 13.3046 12.9214 13.4031 12.9205 13.5026C12.9196 13.6022 12.9386 13.701 12.9763 13.7932C13.014 13.8853 13.0697 13.9691 13.1401 14.0395C13.2106 14.1099 13.2943 14.1656 13.3865 14.2033C13.4786 14.241 13.5774 14.26 13.677 14.2591C13.7766 14.2583 13.875 14.2376 13.9665 14.1983C14.058 14.159 14.1408 14.1018 14.2099 14.0302L17.1192 11.1209C17.6816 10.5584 17.9975 9.79543 17.9975 8.99994C17.9975 8.20445 17.6816 7.44152 17.1192 6.87894H17.1222Z" fill="#374151"/>
<path d="M5.25 16.5H3.75C3.15326 16.5 2.58097 16.2629 2.15901 15.841C1.73705 15.419 1.5 14.8467 1.5 14.25V3.75C1.5 3.15326 1.73705 2.58097 2.15901 2.15901C2.58097 1.73705 3.15326 1.5 3.75 1.5H5.25C5.44891 1.5 5.63968 1.42098 5.78033 1.28033C5.92098 1.13968 6 0.948912 6 0.75C6 0.551088 5.92098 0.360322 5.78033 0.21967C5.63968 0.0790176 5.44891 0 5.25 0L3.75 0C2.7558 0.00119089 1.80267 0.396661 1.09966 1.09966C0.396661 1.80267 0.00119089 2.7558 0 3.75L0 14.25C0.00119089 15.2442 0.396661 16.1973 1.09966 16.9003C1.80267 17.6033 2.7558 17.9988 3.75 18H5.25C5.44891 18 5.63968 17.921 5.78033 17.7803C5.92098 17.6397 6 17.4489 6 17.25C6 17.0511 5.92098 16.8603 5.78033 16.7197C5.63968 16.579 5.44891 16.5 5.25 16.5Z" fill="#374151"/>
</g>
<defs>
<clipPath id="clip0_375_5328">
<rect width="18" height="18" fill="white"/>
</clipPath>
</defs>
</svg>
