<svg width="30" height="30" viewBox="0 0 30 30" fill="none" xmlns="http://www.w3.org/2000/svg">
<g clip-path="url(#clip0_50_1339)">
<path d="M12.5001 26.545L8.44383 18.4312L0.330078 14.375L8.44383 10.3188L12.5001 2.205L16.5563 10.3188L24.6701 14.375L16.5563 18.4312L12.5001 26.545ZM5.92008 14.375L10.3063 16.5688L12.5001 20.955L14.6938 16.5688L19.0801 14.375L14.6938 12.1812L12.5001 7.795L10.3063 12.1812L5.92008 14.375ZM22.5001 26.25L24.3751 30L26.2501 26.25L30.0001 24.375L26.2501 22.5L24.3751 18.75L22.5001 22.5L18.7501 24.375L22.5001 26.25ZM24.1663 5.83375L25.6251 8.75L27.0838 5.83375L30.0001 4.375L27.0838 2.91625L25.6251 0L24.1663 2.91625L21.2501 4.375L24.1663 5.83375Z" fill="white"/>
</g>
<defs>
<clipPath id="clip0_50_1339">
<rect width="30" height="30" fill="white"/>
</clipPath>
</defs>
</svg>
