<svg width="30" height="30" viewBox="0 0 30 30" fill="none" xmlns="http://www.w3.org/2000/svg">
<path d="M28.7502 11.2351C28.7502 8.38256 26.4452 6.06006 23.6115 6.06006C20.9177 6.06006 18.6652 8.17756 18.484 10.8801C18.4377 11.5701 18.9577 12.1651 19.6477 12.2113C20.3365 12.2488 20.9327 11.7363 20.9777 11.0476C21.0715 9.65256 22.2277 8.55881 23.6102 8.55881C25.0652 8.55881 26.249 9.75881 26.249 11.2338C26.249 12.7088 25.0652 13.9088 23.6102 13.9088H8.27148C7.58148 13.9088 7.02148 14.4676 7.02148 15.1588C7.02148 15.8501 7.58148 16.4088 8.27148 16.4088H19.4702C20.9252 16.4088 22.109 17.6088 22.109 19.0838C22.109 20.5588 20.9252 21.7601 19.4702 21.7601C18.0877 21.7601 16.9315 20.6663 16.8377 19.2713C16.7915 18.5826 16.2015 18.0788 15.5077 18.1076C14.819 18.1538 14.2977 18.7501 14.344 19.4388C14.5265 22.1413 16.7777 24.2588 19.4715 24.2588C22.3052 24.2588 24.6102 21.9376 24.6102 19.0826C24.6102 18.1026 24.3377 17.1838 23.8652 16.4013C26.5815 16.2676 28.7515 14.0001 28.7515 11.2326L28.7502 11.2351Z" fill="#32D3A0"/>
<path d="M2.5 11.8563H12.3312C14.6438 11.8563 16.525 9.96254 16.525 7.63504C16.525 5.30754 14.6438 3.41504 12.3312 3.41504C10.3475 3.41504 8.61875 4.83379 8.2225 6.78754C8.085 7.46504 8.5225 8.12379 9.19875 8.26254C9.87625 8.39004 10.535 7.96254 10.6725 7.28629C10.8337 6.49129 11.5312 5.91504 12.3312 5.91504C13.265 5.91504 14.025 6.68629 14.025 7.63504C14.025 8.58379 13.265 9.35629 12.3312 9.35629H2.5C1.81 9.35629 1.25 9.91504 1.25 10.6063C1.25 11.2975 1.81 11.8563 2.5 11.8563Z" fill="#32D3A0"/>
<path d="M10.0675 18.1438H5.44375C3.13125 18.1438 1.25 20.0375 1.25 22.365C1.25 24.6925 3.13125 26.585 5.44375 26.585C7.42875 26.585 9.15625 25.1663 9.5525 23.2113C9.69 22.535 9.2525 21.8763 8.575 21.7375C7.90125 21.6 7.23875 22.0388 7.1025 22.715C6.94125 23.5088 6.24375 24.085 5.44375 24.085C4.51 24.085 3.75 23.3138 3.75 22.365C3.75 21.4163 4.51 20.6438 5.44375 20.6438H10.0675C10.7575 20.6438 11.3175 20.085 11.3175 19.3938C11.3175 18.7025 10.7575 18.1438 10.0675 18.1438Z" fill="#32D3A0"/>
</svg>
