<svg width="14" height="14" viewBox="0 0 14 14" fill="none" xmlns="http://www.w3.org/2000/svg">
<g clip-path="url(#clip0_254_4190)">
<path d="M4.49557 5.39929C4.72366 5.62738 4.72366 5.99663 4.49557 6.22413C4.26749 6.45221 3.89824 6.45221 3.67074 6.22413C3.44266 5.99604 3.44266 5.62679 3.67074 5.39929C3.89882 5.17121 4.26807 5.17121 4.49557 5.39929ZM12.5759 8.94888L12.2463 9.27846C12.2306 9.99771 11.9517 10.7117 11.4092 11.2612L9.56182 13.1325C9.01174 13.6896 8.27791 13.9976 7.49507 14H7.48516C6.70641 14 5.97432 13.6966 5.42366 13.146L1.09766 8.85671C0.71849 8.47813 0.535324 7.95721 0.593657 7.42579L1.03991 3.39146C1.06966 3.12546 1.27557 2.91371 1.54041 2.87754L5.55899 2.32804C6.10266 2.25571 6.64982 2.44063 7.03366 2.82446L11.3941 7.14813C11.6198 7.37388 11.8007 7.62821 11.9372 7.89946C12.4108 7.21929 12.3443 6.26904 11.7377 5.66238L7.30957 1.34279C7.17599 1.20921 6.99166 1.14738 6.81316 1.17246L2.79457 1.72196C2.47432 1.76513 2.18091 1.54171 2.13716 1.22321C2.09399 0.904125 2.31741 0.610126 2.63591 0.566376L6.65507 0.0162923C7.19232 -0.0601244 7.74532 0.127709 8.12974 0.513292L12.5567 4.83288C13.6918 5.96746 13.6982 7.81196 12.5753 8.94946L12.5759 8.94888ZM10.5704 7.97471L6.20999 3.65104C6.07991 3.52096 5.89732 3.46088 5.71591 3.48363L2.14882 3.97188L1.75274 7.55354C1.73349 7.73029 1.79416 7.90413 1.92016 8.02954L6.24616 12.3188C6.57807 12.6513 7.01732 12.8327 7.48457 12.8327H7.49041C7.96057 12.8315 8.40099 12.6466 8.73057 12.3118L10.578 10.4405C11.2517 9.75796 11.2482 8.65137 10.5698 7.97354L10.5704 7.97471Z" fill="#2BBE90"/>
</g>
<defs>
<clipPath id="clip0_254_4190">
<rect width="14" height="14" fill="white"/>
</clipPath>
</defs>
</svg>
