<svg width="30" height="30" viewBox="0 0 30 30" fill="none" xmlns="http://www.w3.org/2000/svg">
<g clip-path="url(#clip0_50_1337)">
<path d="M9.63358 11.57C10.1223 12.0587 10.1223 12.85 9.63358 13.3375C9.14483 13.8262 8.35358 13.8262 7.86608 13.3375C7.37733 12.8487 7.37733 12.0575 7.86608 11.57C8.35483 11.0812 9.14608 11.0812 9.63358 11.57ZM26.9486 19.1762L26.2423 19.8825C26.2086 21.4237 25.6111 22.9537 24.4486 24.1312L20.4898 28.1412C19.3111 29.335 17.7386 29.995 16.0611 30H16.0398C14.3711 30 12.8023 29.35 11.6223 28.17L2.35233 18.9787C1.53983 18.1675 1.14733 17.0512 1.27233 15.9125L2.22858 7.26748C2.29233 6.69748 2.73358 6.24373 3.30108 6.16623L11.9123 4.98873C13.0773 4.83373 14.2498 5.22998 15.0723 6.05248L24.4161 15.3175C24.8998 15.8012 25.2873 16.3462 25.5798 16.9275C26.5948 15.47 26.4523 13.4337 25.1523 12.1337L15.6636 2.87748C15.3773 2.59123 14.9823 2.45873 14.5998 2.51248L5.98858 3.68998C5.30233 3.78248 4.67358 3.30373 4.57983 2.62123C4.48733 1.93748 4.96608 1.30748 5.64858 1.21373L14.2611 0.0349817C15.4123 -0.128768 16.5973 0.273732 17.4211 1.09998L26.9073 10.3562C29.3398 12.7875 29.3536 16.74 26.9473 19.1775L26.9486 19.1762ZM22.6511 17.0887L13.3073 7.82373C13.0286 7.54498 12.6373 7.41623 12.2486 7.46498L4.60483 8.51123L3.75608 16.1862C3.71483 16.565 3.84483 16.9375 4.11483 17.2062L13.3848 26.3975C14.0961 27.11 15.0373 27.4987 16.0386 27.4987H16.0511C17.0586 27.4962 18.0023 27.1 18.7086 26.3825L22.6673 22.3725C24.1111 20.91 24.1036 18.5387 22.6498 17.0862L22.6511 17.0887Z" fill="white"/>
</g>
<defs>
<clipPath id="clip0_50_1337">
<rect width="30" height="30" fill="white"/>
</clipPath>
</defs>
</svg>
