<svg width="18" height="18" viewBox="0 0 18 18" fill="none" xmlns="http://www.w3.org/2000/svg">
<path d="M9 18C4.03725 18 0 13.9628 0 9C0 4.03725 4.03725 0 9 0C13.9628 0 18 4.03725 18 9C18 13.9628 13.9628 18 9 18ZM9 1.5C4.8645 1.5 1.5 4.8645 1.5 9C1.5 13.1355 4.8645 16.5 9 16.5C13.1355 16.5 16.5 13.1355 16.5 9C16.5 4.8645 13.1355 1.5 9 1.5ZM12.75 9C12.75 8.58525 12.4148 8.25 12 8.25H9.75V4.5C9.75 4.08525 9.414 3.75 9 3.75C8.586 3.75 8.25 4.08525 8.25 4.5V9C8.25 9.41475 8.586 9.75 9 9.75H12C12.4148 9.75 12.75 9.41475 12.75 9Z" fill="#24A3C6"/>
</svg>
