<svg width="14" height="13" viewBox="0 0 14 13" fill="none" xmlns="http://www.w3.org/2000/svg">
<path d="M11.0833 2.33333H9.91667V1.75C9.91667 1.28587 9.73229 0.840752 9.4041 0.512563C9.07591 0.184374 8.6308 0 8.16667 0H1.75C1.28587 0 0.840752 0.184374 0.512563 0.512563C0.184374 0.840752 0 1.28587 0 1.75L0 10.5H1.19058C1.17557 10.5965 1.16758 10.694 1.16667 10.7917C1.16667 11.3331 1.38177 11.8525 1.76466 12.2353C2.14754 12.6182 2.66685 12.8333 3.20833 12.8333C3.74982 12.8333 4.26912 12.6182 4.65201 12.2353C5.0349 11.8525 5.25 11.3331 5.25 10.7917C5.24909 10.694 5.24109 10.5965 5.22608 10.5H8.77392C8.75891 10.5965 8.75091 10.694 8.75 10.7917C8.75 11.3331 8.9651 11.8525 9.34799 12.2353C9.73088 12.6182 10.2502 12.8333 10.7917 12.8333C11.3331 12.8333 11.8525 12.6182 12.2353 12.2353C12.6182 11.8525 12.8333 11.3331 12.8333 10.7917C12.8324 10.694 12.8244 10.5965 12.8094 10.5H14V5.25C13.9991 4.47674 13.6915 3.73541 13.1447 3.18863C12.5979 2.64185 11.8566 2.33426 11.0833 2.33333ZM11.0833 3.5C11.5475 3.5 11.9926 3.68437 12.3208 4.01256C12.649 4.34075 12.8333 4.78587 12.8333 5.25V5.83333H9.91667V3.5H11.0833ZM4.08333 10.7917C4.08333 11.0237 3.99115 11.2463 3.82705 11.4104C3.66296 11.5745 3.4404 11.6667 3.20833 11.6667C2.97627 11.6667 2.75371 11.5745 2.58961 11.4104C2.42552 11.2463 2.33333 11.0237 2.33333 10.7917C2.33369 10.692 2.35207 10.5932 2.38758 10.5H4.02908C4.0646 10.5932 4.08297 10.692 4.08333 10.7917ZM8.75 9.33333H1.16667V1.75C1.16667 1.59529 1.22812 1.44692 1.33752 1.33752C1.44692 1.22812 1.59529 1.16667 1.75 1.16667H8.16667C8.32138 1.16667 8.46975 1.22812 8.57915 1.33752C8.68854 1.44692 8.75 1.59529 8.75 1.75V9.33333ZM11.6667 10.7917C11.6667 11.0237 11.5745 11.2463 11.4104 11.4104C11.2463 11.5745 11.0237 11.6667 10.7917 11.6667C10.5596 11.6667 10.337 11.5745 10.1729 11.4104C10.0089 11.2463 9.91667 11.0237 9.91667 10.7917C9.91692 10.692 9.9353 10.5931 9.97092 10.5H11.6124C11.648 10.5931 11.6664 10.692 11.6667 10.7917ZM9.91667 9.33333V7H12.8333V9.33333H9.91667Z" fill="#6B7280"/>
</svg>
