<svg width="30" height="30" viewBox="0 0 30 30" fill="none" xmlns="http://www.w3.org/2000/svg">
<g clip-path="url(#clip0_50_1299)">
<path d="M28.9938 17.6062L26.2951 20.3025V22.455C26.2951 24.5225 24.6126 26.205 22.5451 26.205H20.3938L17.6963 28.9012C16.9901 29.6087 16.0476 30 15.0451 30C14.0426 30 13.1013 29.61 12.3938 28.9012L9.69758 26.205H7.54508C5.47758 26.205 3.79508 24.5225 3.79508 22.455V20.3025L1.09883 17.6062C-0.363672 16.145 -0.363672 13.765 1.09883 12.3025L3.79508 9.60623V7.45498C3.79508 5.38748 5.47758 3.70498 7.54508 3.70498H9.69758L12.3938 1.00748C13.8113 -0.411269 16.2826 -0.407519 17.6976 1.00748L20.3938 3.70373H22.5451C23.2363 3.70373 23.7951 4.26373 23.7951 4.95373C23.7951 5.64373 23.2363 6.20373 22.5451 6.20373H19.8763C19.5438 6.20373 19.2263 6.07248 18.9926 5.83748L15.9288 2.77373C15.4576 2.30373 14.6363 2.30123 14.1613 2.77373L11.0988 5.83748C10.8638 6.07248 10.5476 6.20373 10.2151 6.20373H7.54508C6.85508 6.20373 6.29508 6.76498 6.29508 7.45373V10.1225C6.29508 10.4537 6.16383 10.7725 5.92883 11.0062L2.86633 14.0687C2.37883 14.5562 2.37883 15.3487 2.86633 15.8375L5.92883 18.9C6.16383 19.135 6.29508 19.4512 6.29508 19.7837V22.4537C6.29508 23.1437 6.85508 23.7037 7.54508 23.7037H10.2151C10.5476 23.7037 10.8651 23.835 11.0988 24.07L14.1613 27.1325C14.6351 27.605 15.4576 27.605 15.9276 27.1325L18.9926 24.07C19.2276 23.835 19.5438 23.7037 19.8763 23.7037H22.5451C23.2351 23.7037 23.7951 23.1437 23.7951 22.4537V19.7837C23.7951 19.4512 23.9263 19.1337 24.1613 18.9L27.2251 15.8375C27.7126 15.35 27.7126 14.5562 27.2251 14.0687C26.7376 13.58 26.7376 12.7887 27.2251 12.3012C27.7138 11.8137 28.5051 11.8125 28.9938 12.3012C30.4538 13.7625 30.4538 16.1412 28.9938 17.6037V17.6062ZM13.4013 17.0775L9.62883 13.3425C9.13633 12.855 8.34758 12.8612 7.86008 13.3512C7.37383 13.8412 7.37883 14.6325 7.86883 15.1187L11.6426 18.855C12.4101 19.615 13.4201 19.9962 14.4288 19.9962C15.4376 19.9962 16.4501 19.6125 17.2188 18.8487L28.3813 7.75998C28.8713 7.27373 28.8738 6.48248 28.3863 5.99248C27.8988 5.50248 27.1088 5.49873 26.6188 5.98623L15.4563 17.0762C14.8901 17.64 13.9688 17.64 13.4013 17.0775Z" fill="white"/>
</g>
<defs>
<clipPath id="clip0_50_1299">
<rect width="30" height="30" fill="white"/>
</clipPath>
</defs>
</svg>
