<svg width="1140" height="176" viewBox="0 0 1140 176" fill="none" xmlns="http://www.w3.org/2000/svg">
<path d="M977.493 0H1018.46L1057.9 74.4965H1059.59L1099.04 0H1140L1076.91 111.829V172.981H1040.59V111.829L977.493 0Z" fill="url(#paint0_linear_235_1641)" fill-opacity="0.56"/>
<path d="M838.742 172.981V0H906.988C920.052 0 931.201 2.33681 940.436 7.01044C949.727 11.6278 956.793 18.1877 961.636 26.6904C966.535 35.1367 968.984 45.0752 968.984 56.5059C968.984 67.9929 966.507 77.8751 961.552 86.1524C956.596 94.3735 949.417 100.68 940.014 105.072C930.666 109.464 919.348 111.66 906.059 111.66H860.365V82.2671H900.147C907.129 82.2671 912.929 81.3099 917.546 79.3954C922.164 77.4809 925.598 74.6092 927.851 70.7802C930.159 66.9511 931.314 62.1931 931.314 56.5059C931.314 50.7624 930.159 45.9198 927.851 41.9782C925.598 38.0366 922.135 35.0522 917.462 33.0251C912.845 30.9417 907.017 29.9 899.978 29.9H875.315V172.981H838.742ZM932.158 94.2609L975.15 172.981H934.777L892.714 94.2609H932.158Z" fill="url(#paint1_linear_235_1641)" fill-opacity="0.56"/>
<path d="M727.018 172.981H665.697V0H727.524C744.924 0 759.902 3.46299 772.459 10.389C785.016 17.2586 794.673 27.1408 801.43 40.0356C808.243 52.9303 811.65 68.3589 811.65 86.3214C811.65 104.34 808.243 119.825 801.43 132.776C794.673 145.727 784.959 155.666 772.29 162.592C759.677 169.518 744.586 172.981 727.018 172.981ZM702.27 141.645H725.497C736.308 141.645 745.402 139.73 752.779 135.901C760.212 132.016 765.786 126.019 769.502 117.911C773.275 109.746 775.162 99.2161 775.162 86.3214C775.162 73.5393 773.275 63.094 769.502 54.9855C765.786 46.8771 760.24 40.9083 752.863 37.0793C745.487 33.2503 736.393 31.3358 725.582 31.3358H702.27V141.645Z" fill="url(#paint2_linear_235_1641)" fill-opacity="0.56"/>
<path d="M635.48 0V172.981H603.891L528.634 64.1076H527.367V172.981H490.795V0H522.891L597.556 108.789H599.077V0H635.48Z" fill="url(#paint3_linear_235_1641)" fill-opacity="0.56"/>
<path d="M424.133 0H460.706V112.336C460.706 124.949 457.693 135.986 451.668 145.446C445.699 154.905 437.337 162.282 426.582 167.575C415.827 172.812 403.299 175.43 388.996 175.43C374.638 175.43 362.081 172.812 351.326 167.575C340.571 162.282 332.209 154.905 326.24 145.446C320.271 135.986 317.287 124.949 317.287 112.336V0H353.86V109.211C353.86 115.799 355.296 121.655 358.167 126.779C361.095 131.903 365.206 135.929 370.499 138.857C375.792 141.786 381.958 143.25 388.996 143.25C396.091 143.25 402.257 141.786 407.494 138.857C412.787 135.929 416.869 131.903 419.741 126.779C422.669 121.655 424.133 115.799 424.133 109.211V0Z" fill="url(#paint4_linear_235_1641)" fill-opacity="0.56"/>
<path d="M169.182 172.981H129.991L189.707 0H236.837L296.468 172.981H257.277L213.948 39.5288H212.596L169.182 172.981ZM166.733 104.988H259.304V133.536H166.733V104.988Z" fill="url(#paint5_linear_235_1641)" fill-opacity="0.56"/>
<path d="M0 172.981V0H36.5726V142.827H110.731V172.981H0Z" fill="url(#paint6_linear_235_1641)" fill-opacity="0.56"/>
<defs>
<linearGradient id="paint0_linear_235_1641" x1="1047.96" y1="-441.231" x2="1047.96" y2="349.647" gradientUnits="userSpaceOnUse">
<stop stop-color="#32D3A0"/>
<stop offset="1" stop-color="#111827" stop-opacity="0"/>
</linearGradient>
<linearGradient id="paint1_linear_235_1641" x1="897.89" y1="-441.231" x2="897.89" y2="349.647" gradientUnits="userSpaceOnUse">
<stop stop-color="#32D3A0"/>
<stop offset="1" stop-color="#111827" stop-opacity="0"/>
</linearGradient>
<linearGradient id="paint2_linear_235_1641" x1="728.983" y1="-441.231" x2="728.984" y2="349.647" gradientUnits="userSpaceOnUse">
<stop stop-color="#32D3A0"/>
<stop offset="1" stop-color="#111827" stop-opacity="0"/>
</linearGradient>
<linearGradient id="paint3_linear_235_1641" x1="553.532" y1="-441.231" x2="553.532" y2="349.647" gradientUnits="userSpaceOnUse">
<stop stop-color="#32D3A0"/>
<stop offset="1" stop-color="#111827" stop-opacity="0"/>
</linearGradient>
<linearGradient id="paint4_linear_235_1641" x1="379.475" y1="-447.479" x2="379.475" y2="354.598" gradientUnits="userSpaceOnUse">
<stop stop-color="#32D3A0"/>
<stop offset="1" stop-color="#111827" stop-opacity="0"/>
</linearGradient>
<linearGradient id="paint5_linear_235_1641" x1="202.177" y1="-441.231" x2="202.177" y2="349.647" gradientUnits="userSpaceOnUse">
<stop stop-color="#32D3A0"/>
<stop offset="1" stop-color="#111827" stop-opacity="0"/>
</linearGradient>
<linearGradient id="paint6_linear_235_1641" x1="48.014" y1="-441.231" x2="48.0142" y2="349.647" gradientUnits="userSpaceOnUse">
<stop stop-color="#32D3A0"/>
<stop offset="1" stop-color="#111827" stop-opacity="0"/>
</linearGradient>
</defs>
</svg>
